# Blender v2.79 (sub 0) OBJ File: ''
# www.blender.org
mtllib Grey_Waterfall_01.mtl
o Mesh1_Grey_Waterfall_Model.001
v 1.500000 -1.100000 -1.500000
v 0.720000 -1.100000 -1.500000
v 0.720000 1.100000 -1.500000
v 1.500000 1.100000 -1.500000
v 0.720000 -1.100000 0.798969
v 0.756442 -1.100000 0.741302
v 0.616442 -1.100000 0.741302
v 0.942659 -1.100000 0.225080
v 0.580000 -1.100000 -0.424320
v 0.680101 -1.100000 -0.741300
v 0.820101 -1.100000 -0.741300
v 0.866171 -1.100000 -0.887190
v 1.500000 -1.100000 1.500000
v 0.720000 -1.100000 1.500000
v 0.838950 -1.100000 1.128136
v 0.720000 1.100000 0.798969
v 0.756442 1.100000 0.741302
v 0.866171 1.100000 -0.887190
v 0.820101 1.100000 -0.741300
v 0.680101 1.100000 -0.741300
v 0.580000 1.100000 -0.424320
v 0.942659 1.100000 0.225080
v 0.616442 1.100000 0.741302
v 0.838950 1.100000 1.128136
v 0.720000 1.100000 1.500000
v 1.500000 1.100000 1.500000
vt -0.000000 0.000000
vt 0.354545 0.000000
vt 0.354545 1.000000
vt -0.000000 1.000000
vt -0.079971 1.000000
vt -0.110979 1.000000
vt -0.110979 0.000000
vt -0.079971 0.000000
vt 0.000000 -0.000000
vt 1.363640 0.000000
vt 0.579508 0.253337
vt -0.947964 0.000000
vt -0.878423 0.000000
vt -0.878423 1.000000
vt -0.947964 1.000000
vt -1.122320 1.000000
vt -1.408690 1.000000
vt -1.408690 0.000000
vt -1.122320 0.000000
vt -0.261087 1.000000
vt -0.420178 1.000000
vt -0.420178 0.000000
vt -0.261087 0.000000
vt 0.108019 1.000000
vt -0.069447 1.000000
vt -0.069447 0.000000
vt 0.108019 0.000000
vt -0.354545 0.000000
vt 0.000000 0.000000
vt 0.000000 1.000000
vt -0.354545 1.000000
vt 1.363640 1.000000
vt 1.363640 0.000000
vt -0.169029 0.300477
vt -0.318650 0.354545
vt -0.344863 0.337981
vt -0.344863 0.401617
vt -0.579508 0.253337
vt -1.018770 0.309045
vt -1.085090 0.288104
vt -1.363640 0.000000
vt 1.363640 0.354545
vt 1.085090 0.288104
vt 0.344863 0.401617
vt 0.344863 0.337981
vt -0.000000 0.354545
vt -1.363640 0.354545
vt -0.874689 0.418182
vt -1.018770 0.372682
vt 0.874689 0.418182
vt 1.018770 0.309045
vt 1.018770 0.372682
vt 0.318650 0.354545
vt 0.169029 0.300477
vt 0.000000 0.354545
vt 0.309045 1.000000
vt 0.309045 0.000000
vt 0.372682 0.000000
vt 0.372682 1.000000
vt -0.708161 0.000000
vt -0.708161 1.000000
vt -0.859260 1.000000
vt -0.859260 0.000000
vt -0.629478 0.000000
vt -0.629478 1.000000
vt -0.967569 1.000000
vt -0.967569 0.000000
vt -0.076984 0.000000
vt -0.076984 1.000000
vt -0.354555 1.000000
vt -0.354555 0.000000
vt -0.337981 0.000000
vt -0.337981 1.000000
vt -0.401617 1.000000
vt -0.401617 0.000000
vn -0.0000 0.0000 -1.0000
vn -0.8454 0.0000 -0.5342
vn 0.0000 1.0000 0.0000
vn -0.9536 0.0000 -0.3011
vn -0.9727 0.0000 0.2320
vn -0.9405 0.0000 0.3399
vn -0.9525 0.0000 -0.3047
vn 0.0000 -0.0000 1.0000
vn 1.0000 0.0000 -0.0000
vn -0.0000 -1.0000 -0.0000
vn -0.8731 0.0000 0.4876
usemtl Stone.079
s 1
f 1/1/1 2/2/1 3/3/1 4/4/1
f 16/5/2 17/6/2 6/7/2 5/8/2
f 26/9/3 4/10/3 22/11/3
f 12/12/4 11/13/4 19/14/4 18/15/4
f 18/16/5 3/17/5 2/18/5 12/19/5
f 24/20/6 16/21/6 5/22/6 15/23/6
f 25/24/7 24/25/7 15/26/7 14/27/7
f 14/28/8 13/29/8 26/30/8 25/31/8
f 4/32/9 26/30/9 13/29/9 1/33/9
f 15/34/10 5/35/10 6/36/10
f 6/36/10 7/37/10 8/38/10
f 8/38/10 11/39/10 12/40/10 1/41/10
f 4/10/3 3/42/3 18/43/3
f 22/11/3 23/44/3 17/45/3
f 13/29/10 14/46/10 15/34/10
f 2/47/10 1/41/10 12/40/10
f 1/41/10 13/29/10 8/38/10
f 6/36/10 8/38/10 13/29/10 15/34/10
f 9/48/10 10/49/10 11/39/10 8/38/10
f 21/50/3 22/11/3 19/51/3 20/52/3
f 17/45/3 16/53/3 24/54/3
f 19/51/3 22/11/3 4/10/3 18/43/3
f 24/54/3 25/55/3 26/9/3
f 17/45/3 24/54/3 26/9/3 22/11/3
usemtl Water.016
f 19/56/1 11/57/1 10/58/1 20/59/1
f 9/60/4 21/61/4 20/62/4 10/63/4
f 8/64/11 22/65/11 21/66/11 9/67/11
f 7/68/2 23/69/2 22/70/2 8/71/2
f 6/72/8 17/73/8 23/74/8 7/75/8
