# Blender v2.79 (sub 0) OBJ File: ''
# www.blender.org
mtllib Grey_Waterfall_Top_01.mtl
o Mesh1_Grey_Waterfall_Top_Model
v 1.500000 0.810000 -1.500000
v 0.720000 0.810000 -1.500000
v 0.580000 1.100000 -1.500000
v 0.784709 1.100000 -1.500000
v 1.500000 1.100000 -1.500000
v 0.820101 0.810000 -0.741300
v 0.866171 0.810000 -0.887190
v 0.688856 0.950000 0.741302
v 0.756442 0.810000 0.741302
v 0.720000 0.810000 0.798969
v 0.580000 1.100000 0.798969
v 0.616442 1.100000 0.741302
v 0.756442 0.950000 0.741302
v 0.851992 1.100000 0.741302
v 1.500000 1.100000 0.741302
v 1.500000 0.950000 0.741302
v 1.500000 0.950000 -0.741300
v 1.500000 0.810000 1.500000
v 0.942659 0.810000 0.225080
v 0.720000 0.810000 1.500000
v 1.500000 1.100000 1.500000
v 0.789062 1.100000 1.500000
v 0.580000 1.100000 1.500000
v 0.698950 1.100000 1.128136
v 0.838950 0.810000 1.128136
v 0.800393 1.100000 0.822954
v 0.888916 1.100000 -0.741300
v 0.680101 1.100000 -0.741300
v 0.752514 0.950000 -0.741300
v 1.500000 1.100000 -0.741300
v 0.726171 1.100000 -0.887190
v 0.932647 1.100000 -0.879780
v 0.909263 1.100000 1.124226
v 0.616442 0.810000 0.741302
v 0.580000 0.810000 -0.424320
v 0.680101 0.810000 -0.741300
v 0.616442 0.950000 0.741302
v 0.580000 0.950000 -0.424320
v 0.680101 0.950000 -0.741300
v 0.942659 0.950000 0.225080
vt -0.227273 -0.000000
vt 0.127273 -0.000000
vt 0.190909 0.131818
vt 0.097859 0.131818
vt -0.227273 0.131818
vt -0.227273 1.363640
vt 0.081772 1.018770
vt 0.060831 1.085090
vt -0.215978 0.173704
vt -0.232390 0.104972
vt -0.201382 0.104972
vt -0.167387 0.247345
vt -0.198395 0.247345
vt -0.110708 0.063636
vt -0.141429 0.063636
vt -0.110708 0.000000
vt 0.174345 0.131818
vt 0.067276 0.131818
vt -0.227273 0.131818
vt -0.227273 0.063636
vt 0.110708 0.063636
vt 0.141429 0.063636
vt 1.018770 0.063636
vt 0.344863 0.063636
vt -0.000000 -0.000000
vt 1.363640 -0.000000
vt 0.026064 0.579508
vt -0.227273 -0.000000
vt -0.127273 -0.000000
vt 0.227273 0.000000
vt 0.227273 0.131818
vt -0.095881 0.131818
vt -0.190909 0.131818
vt 0.058164 0.195727
vt -0.119302 0.195727
vt -0.138690 0.050642
vt 0.038776 0.050642
vt -0.205474 0.149482
vt -0.364565 0.149482
vt -0.342938 0.004713
vt -0.183847 0.004713
vt -0.174345 0.344863
vt -0.190909 0.318650
vt -0.090730 0.307748
vt -0.067276 0.344863
vt -0.050492 0.131818
vt -0.145409 0.131818
vt -0.112494 0.063636
vt 0.227273 0.063636
vt 0.227273 0.131818
vt -0.937610 0.230950
vt -0.927698 0.306010
vt -0.997240 0.306010
vt -1.016400 0.160894
vt -0.946861 0.160894
vt -1.084360 0.063769
vt -1.370720 0.063769
vt -1.355950 -0.081860
vt -1.069590 -0.081860
vt -0.050492 1.018770
vt -0.030615 1.081720
vt -0.124468 1.085090
vt -0.145409 1.018770
vt -0.097859 1.363640
vt -0.190909 1.363640
vt -0.041244 0.170806
vt -0.136841 0.169029
vt -0.095881 -0.000000
vt -0.190909 -0.000000
vt 0.110708 0.344863
vt 0.073205 0.169029
vt 0.127273 0.318650
vt -0.000000 0.131818
vt 0.344863 0.131818
vt 0.174345 0.344863
vt 1.363640 0.131818
vt 1.018770 0.131818
vt 0.127273 0.000000
vt 0.190909 0.874689
vt 0.145409 1.018770
vt 0.127273 1.363640
vt -0.174345 0.000000
vt -0.174345 0.063636
vt -0.190909 0.874689
vt 0.227273 1.018770
vt -0.112494 1.018770
vt -0.145409 1.018770
vt 0.112494 0.063636
vt 0.081772 0.000000
vt 0.145409 0.000000
vt 0.145409 0.063636
vt -0.927698 0.000000
vt -0.776600 0.000000
vt -0.776600 0.063636
vt -0.927698 0.063636
vt -0.856756 -0.000000
vt -0.518666 -0.000000
vt -0.518666 0.063636
vt -0.856756 0.063636
vt -0.475966 0.000000
vt -0.198395 0.000000
vt -0.198395 0.063636
vt -0.475966 0.063636
vt -0.026064 0.579508
vt 0.227273 0.344863
vt -0.174345 0.344863
vt -0.141429 0.344863
vt -0.110708 0.344863
vt 0.227273 -0.000000
vt 0.227273 0.344863
vt 0.227273 1.018770
vt 0.227273 1.363640
vn 0.0000 0.0000 -1.0000
vn -0.0000 -1.0000 0.0000
vn -0.7827 -0.3778 -0.4946
vn 0.0000 0.0000 1.0000
vn 1.0000 0.0000 0.0000
vn -0.8654 -0.4178 -0.2768
vn -0.8563 -0.4134 0.3095
vn 0.0000 1.0000 -0.0000
vn -0.8662 -0.4182 -0.2735
vn -0.8805 -0.4251 0.2100
vn -0.9536 0.0000 -0.3011
vn -0.8731 0.0000 0.4876
vn -0.8454 -0.0000 -0.5342
usemtl Stone.080
s 1
f 1/1/1 2/2/1 3/3/1 4/4/1 5/5/1
f 1/6/2 6/7/2 7/8/2
f 8/9/3 9/10/3 10/11/3 11/12/3 12/13/3
f 13/14/4 8/15/4 9/16/4
f 12/17/1 14/18/1 15/19/1 16/20/1 13/21/1 8/22/1
f 17/23/5 16/24/5 18/25/5 1/26/5
f 19/27/2 6/7/2 1/6/2 18/28/2
f 20/29/4 18/30/4 21/31/4 22/32/4 23/33/4
f 23/34/6 24/35/6 25/36/6 20/37/6
f 24/38/7 11/39/7 10/40/7 25/41/7
f 12/42/8 11/43/8 26/44/8 14/45/8
f 27/46/4 28/47/4 29/48/4 17/49/4 30/50/4
f 29/51/9 28/52/9 31/53/9 7/54/9 6/55/9
f 31/56/10 3/57/10 2/58/10 7/59/10
f 27/60/8 32/61/8 31/62/8 28/63/8
f 4/64/8 3/65/8 31/62/8 32/61/8
f 33/66/8 26/44/8 11/43/8 24/67/8
f 22/68/8 33/66/8 24/67/8 23/69/8
f 9/70/2 18/28/2 25/71/2 10/72/2
f 21/73/5 18/25/5 16/24/5 15/74/5
f 19/27/2 9/70/2 34/75/2
f 5/76/5 30/77/5 17/23/5 1/26/5
f 18/28/2 20/78/2 25/71/2
f 35/79/2 36/80/2 6/7/2 19/27/2
f 19/27/2 18/28/2 9/70/2
f 1/6/2 7/8/2 2/81/2
usemtl Water.017
f 34/82/4 9/16/4 8/15/4 37/83/4
f 38/84/8 17/85/8 29/86/8 39/87/8
f 29/88/1 6/89/1 36/90/1 39/91/1
f 36/92/11 35/93/11 38/94/11 39/95/11
f 35/96/12 19/97/12 40/98/12 38/99/12
f 19/100/13 34/101/13 37/102/13 40/103/13
f 38/84/8 40/104/8 16/105/8 17/85/8
f 40/104/8 37/106/8 8/107/8
f 8/107/8 13/108/8 16/105/8 40/104/8
usemtl Leafs.076
f 21/109/8 15/110/8 33/66/8 22/68/8
f 32/61/8 27/60/8 30/111/8
f 5/112/8 4/64/8 32/61/8 30/111/8
f 14/45/8 26/44/8 33/66/8 15/110/8
o Mesh1_Grey_Waterfall_Model.001
v 1.500000 -1.100000 -1.500000
v 0.720000 -1.100000 -1.500000
v 0.720000 0.810000 -1.500000
v 1.500000 0.810000 -1.500000
v 0.720000 -1.100000 0.798969
v 0.756442 -1.100000 0.741302
v 0.616442 -1.100000 0.741302
v 0.942659 -1.100000 0.225080
v 0.580000 -1.100000 -0.424320
v 0.680101 -1.100000 -0.741300
v 0.820101 -1.100000 -0.741300
v 0.866171 -1.100000 -0.887190
v 1.500000 -1.100000 1.500000
v 0.720000 -1.100000 1.500000
v 0.838950 -1.100000 1.128136
v 0.720000 0.810000 0.798969
v 0.756442 0.810000 0.741302
v 0.866171 0.810000 -0.887190
v 0.820101 0.810000 -0.741300
v 0.680101 0.810000 -0.741300
v 0.580000 0.810000 -0.424320
v 0.942659 0.810000 0.225080
v 0.616442 0.810000 0.741302
v 0.838950 0.810000 1.128136
v 0.720000 0.810000 1.500000
v 1.500000 0.810000 1.500000
vt -0.000000 0.000000
vt 0.354545 0.000000
vt 0.354545 1.000000
vt -0.000000 1.000000
vt -0.079971 1.000000
vt -0.110979 1.000000
vt -0.110979 0.000000
vt -0.079971 0.000000
vt 0.000000 -0.000000
vt 1.363640 0.000000
vt 0.579508 0.253337
vt -0.947964 0.000000
vt -0.878423 0.000000
vt -0.878423 1.000000
vt -0.947964 1.000000
vt -1.122320 1.000000
vt -1.408690 1.000000
vt -1.408690 0.000000
vt -1.122320 0.000000
vt -0.261087 1.000000
vt -0.420178 1.000000
vt -0.420178 0.000000
vt -0.261087 0.000000
vt 0.108019 1.000000
vt -0.069447 1.000000
vt -0.069447 0.000000
vt 0.108019 0.000000
vt -0.354545 0.000000
vt 0.000000 0.000000
vt 0.000000 1.000000
vt -0.354545 1.000000
vt 1.363640 1.000000
vt 1.363640 0.000000
vt -0.169029 0.300477
vt -0.318650 0.354545
vt -0.344863 0.337981
vt -0.344863 0.401617
vt -0.579508 0.253337
vt -1.018770 0.309045
vt -1.085090 0.288104
vt -1.363640 0.000000
vt 1.363640 0.354545
vt 1.085090 0.288104
vt 0.344863 0.401617
vt 0.344863 0.337981
vt -0.000000 0.354545
vt -1.363640 0.354545
vt -0.874689 0.418182
vt -1.018770 0.372682
vt 0.874689 0.418182
vt 1.018770 0.309045
vt 1.018770 0.372682
vt 0.318650 0.354545
vt 0.169029 0.300477
vt 0.000000 0.354545
vt 0.309045 1.000000
vt 0.309045 0.000000
vt 0.372682 0.000000
vt 0.372682 1.000000
vt -0.708161 0.000000
vt -0.708161 1.000000
vt -0.859260 1.000000
vt -0.859260 0.000000
vt -0.629478 0.000000
vt -0.629478 1.000000
vt -0.967569 1.000000
vt -0.967569 0.000000
vt -0.076984 0.000000
vt -0.076984 1.000000
vt -0.354555 1.000000
vt -0.354555 0.000000
vt -0.337981 0.000000
vt -0.337981 1.000000
vt -0.401617 1.000000
vt -0.401617 0.000000
vn 0.0000 0.0000 -1.0000
vn -0.8454 0.0000 -0.5342
vn 0.0000 1.0000 0.0000
vn -0.9536 0.0000 -0.3011
vn -0.9727 0.0000 0.2320
vn -0.9405 0.0000 0.3399
vn -0.9525 0.0000 -0.3047
vn 0.0000 -0.0000 1.0000
vn 1.0000 0.0000 -0.0000
vn -0.0000 -1.0000 -0.0000
vn -0.8731 0.0000 0.4876
usemtl Stone.079
s 1
f 41/113/14 42/114/14 43/115/14 44/116/14
f 56/117/15 57/118/15 46/119/15 45/120/15
f 66/121/16 44/122/16 62/123/16
f 52/124/17 51/125/17 59/126/17 58/127/17
f 58/128/18 43/129/18 42/130/18 52/131/18
f 64/132/19 56/133/19 45/134/19 55/135/19
f 65/136/20 64/137/20 55/138/20 54/139/20
f 54/140/21 53/141/21 66/142/21 65/143/21
f 44/144/22 66/142/22 53/141/22 41/145/22
f 55/146/23 45/147/23 46/148/23
f 46/148/23 47/149/23 48/150/23
f 48/150/23 51/151/23 52/152/23 41/153/23
f 44/122/16 43/154/16 58/155/16
f 62/123/16 63/156/16 57/157/16
f 53/141/23 54/158/23 55/146/23
f 42/159/23 41/153/23 52/152/23
f 41/153/23 53/141/23 48/150/23
f 46/148/23 48/150/23 53/141/23 55/146/23
f 49/160/23 50/161/23 51/151/23 48/150/23
f 61/162/16 62/123/16 59/163/16 60/164/16
f 57/157/16 56/165/16 64/166/16
f 59/163/16 62/123/16 44/122/16 58/155/16
f 64/166/16 65/167/16 66/121/16
f 57/157/16 64/166/16 66/121/16 62/123/16
usemtl Water.016
f 59/168/14 51/169/14 50/170/14 60/171/14
f 49/172/17 61/173/17 60/174/17 50/175/17
f 48/176/24 62/177/24 61/178/24 49/179/24
f 47/180/15 63/181/15 62/182/15 48/183/15
f 46/184/21 57/185/21 63/186/21 47/187/21
