# Blender v2.79 (sub 0) OBJ File: ''
# www.blender.org
mtllib Grey_Cliff_Bottom_Green_Top_01.mtl
o Mesh1_Grey_Cliff_Bottom_Green_Top_Model
v 1.500000 -1.100000 -1.500000
v 0.360000 -1.100000 -1.500000
v 0.720000 1.100000 -1.500000
v 1.500000 1.100000 -1.500000
v 0.722659 -1.100000 0.225080
v 0.360000 -1.100000 -0.424320
v 0.506171 -1.100000 -0.887190
v 1.500000 -1.100000 1.500000
v 0.360000 -1.100000 1.500000
v 0.478950 -1.100000 1.128136
v 0.360000 -1.100000 0.798969
v 1.082659 1.100000 0.225080
v 0.720000 1.100000 -0.424320
v 0.720000 1.100000 0.798969
v 0.838950 1.100000 1.128136
v 0.720000 1.100000 1.500000
v 1.500000 1.100000 1.500000
v 0.866171 1.100000 -0.887190
vt -0.227273 -0.000000
vt 0.290909 -0.000000
vt 0.127273 1.000000
vt -0.227273 1.000000
vt -0.487638 1.034550
vt -0.825729 1.034550
vt -0.905514 0.024396
vt -0.567423 0.024396
vt -0.201382 0.952500
vt -0.509961 0.952500
vt -0.422545 -0.057023
vt -0.113966 -0.057023
vt -0.183847 0.986630
vt -0.342938 0.986630
vt -0.398551 -0.025143
vt -0.239460 -0.025143
vt 0.038776 0.969403
vt -0.138690 0.969403
vt -0.088835 -0.042670
vt 0.088631 -0.042670
vt -0.290909 -0.000000
vt 0.227273 -0.000000
vt 0.227273 1.000000
vt -0.127273 1.000000
vt 1.363640 1.000000
vt -0.000000 1.000000
vt -0.000000 -0.000000
vt 1.363640 -0.000000
vt -1.069590 1.017840
vt -1.355950 1.017840
vt -1.393920 0.005253
vt -1.107560 0.005253
vt -0.795763 0.928723
vt -1.016400 0.928723
vt -0.967127 -0.083378
vt -0.746487 -0.083378
vt 0.224468 1.085090
vt 0.290909 1.363640
vt -0.227273 1.363640
vt -0.227273 0.000000
vt 0.236841 0.169029
vt 0.290909 0.318650
vt 0.126064 0.579508
vt 0.290909 -0.000000
vt 0.290909 0.874689
vt -0.073205 0.169029
vt -0.127273 0.000000
vt 0.227273 0.000000
vt 0.227273 1.363640
vt 0.037572 0.579508
vt -0.127273 1.363640
vt -0.060831 1.085090
vt -0.127273 0.318650
vt -0.127273 0.874689
vn 0.0000 0.0000 -1.0000
vn -0.8643 0.1414 0.4827
vn -0.8374 0.1370 -0.5292
vn -0.9295 0.1521 0.3359
vn -0.9411 0.1540 -0.3010
vn 0.0000 0.0000 1.0000
vn 1.0000 0.0000 0.0000
vn -0.9606 0.1572 0.2291
vn -0.9422 0.1542 -0.2975
vn 0.0000 -1.0000 -0.0000
vn 0.0000 1.0000 0.0000
usemtl Stone.005
s 1
f 1/1/1 2/2/1 3/3/1 4/4/1
f 12/5/2 13/6/2 6/7/2 5/8/2
f 14/9/3 12/10/3 5/11/3 11/12/3
f 15/13/4 14/14/4 11/15/4 10/16/4
f 16/17/5 15/18/5 10/19/5 9/20/5
f 9/21/6 8/22/6 17/23/6 16/24/6
f 4/25/7 17/26/7 8/27/7 1/28/7
f 18/29/8 3/30/8 2/31/8 7/32/8
f 13/33/9 18/34/9 7/35/9 6/36/9
f 7/37/10 2/38/10 1/39/10
f 8/40/10 10/41/10 11/42/10 5/43/10
f 1/39/10 8/40/10 5/43/10
f 8/40/10 9/44/10 10/41/10
f 7/37/10 1/39/10 5/43/10 6/45/10
usemtl Leafs.007
f 15/46/11 16/47/11 17/48/11
f 17/48/11 4/49/11 12/50/11
f 4/49/11 3/51/11 18/52/11
f 15/46/11 17/48/11 12/50/11 14/53/11
f 4/49/11 18/52/11 13/54/11 12/50/11
o Cube
v 1.499999 -1.100000 -1.499999
v 1.499999 -1.100000 1.499999
v -1.499999 -1.100000 1.499999
v -1.499999 -1.100000 -1.500000
v 1.500000 1.100000 -1.499998
v 1.499998 1.100000 1.500000
v -1.500000 1.100000 1.499999
v -1.499999 1.100000 -1.499999
l 19 20
l 19 22
l 19 23
l 20 21
l 20 24
l 21 22
l 21 25
l 22 26
l 23 24
l 23 26
l 24 25
l 25 26
