# Blender v2.79 (sub 0) OBJ File: ''
# www.blender.org
mtllib Grey_Cliff_Inside_Corner_Green_Top_01.mtl
o Mesh1_Grey_Cliff_Bottom_Green_Top_Model
v -1.500000 -1.100000 0.719908
v -1.128024 -1.100079 0.838860
v 0.720000 1.100000 -1.500000
v 1.500000 1.100000 -1.500000
v 1.082659 1.100000 0.225080
v 0.720000 1.100000 -0.424320
v -0.798856 -1.100079 0.719913
v 0.424433 -1.100079 0.719922
v 0.720000 1.100000 0.798969
v -0.224970 -1.100079 1.082576
v 1.500000 1.100000 1.500000
v 0.866171 1.100000 -0.887190
v 0.866278 -1.100000 -0.887260
v -0.225077 1.099921 1.082646
v 0.424326 1.099921 0.719992
v 1.500107 -1.100000 1.499930
v 0.720107 -1.100000 0.798899
v -0.798963 1.099921 0.719983
v 0.720107 -1.100000 -0.424390
v -1.128131 1.099921 0.838930
v 1.082766 -1.100000 0.225010
v -1.500000 1.100000 0.719977
v 1.500107 -1.100000 -1.500070
v 0.720107 -1.100000 -1.500070
v -1.500000 1.100000 1.500000
v -1.500000 -1.100000 1.500000
vt -0.127273 1.363640
vt -0.127273 1.363640
vt -0.060831 1.085090
vt -0.060831 1.085090
vt 0.000000 0.000000
vt 0.000000 0.000000
vt -0.825729 1.034550
vt -0.825729 1.034550
vt -0.127273 0.874689
vt -0.127273 0.874689
vt 0.037572 0.579508
vt 0.037572 0.579508
vt -0.073205 0.169029
vt 0.227273 0.000000
vt -0.127273 0.000000
vt -0.487638 1.034550
vt -0.487638 1.034550
vt 0.227273 0.000000
vt 0.227273 0.000000
vt 0.227273 1.363640
vt 0.227273 1.363640
vt -0.127273 0.000000
vt 0.227273 0.000000
vt -0.127273 0.318650
vt -0.127273 0.318650
vt -0.073205 0.169029
vt -0.000000 1.000000
vt -0.000000 1.000000
vt 0.037572 0.579508
vt 0.037572 0.579508
vn -0.9727 -0.0001 0.2320
vn 0.2581 0.0000 -0.9661
vn -0.8731 -0.0001 0.4876
vn -0.0001 -1.0000 0.0001
vn -0.0002 -1.0000 0.0000
vn -0.4876 0.0000 -0.8731
vn 1.0000 0.0000 0.0000
vn -0.8454 -0.0000 -0.5342
vn -1.0000 0.0000 0.0000
vn -0.3399 0.0000 -0.9405
vn 0.0000 0.0000 -1.0000
vn 0.0000 -0.0000 1.0000
vn -0.0000 -1.0000 0.0001
vn 0.3046 0.0000 -0.9525
vn 0.0000 -1.0000 0.0000
vn 0.0002 -1.0000 -0.0003
vn 0.0001 -1.0000 -0.0000
vn 0.5342 0.0001 -0.8454
vn -0.9536 -0.0000 -0.3011
vn -0.0001 1.0000 0.0000
vn -0.0000 1.0000 -0.0001
vn -0.0000 1.0000 -0.0000
vn -0.0002 1.0000 0.0003
vn 0.0001 1.0000 -0.0001
vn 0.0002 1.0000 -0.0000
usemtl Stone.005
s 1
f 3/1/1 24/2/1 13/3/1 12/4/1
f 9/5/2 17/6/2 8/7/2 15/8/2
f 6/9/3 19/10/3 21/11/3 5/12/3
f 2/13/4 26/14/4 1/15/5
f 15/8/6 8/7/6 10/16/6 14/17/6
f 11/18/7 16/19/7 23/20/7 4/21/7
f 5/12/8 21/11/8 17/6/8 9/5/8
f 22/22/9 1/15/9 26/14/9 25/23/9
f 18/24/10 7/25/10 2/13/10 20/26/10
f 4/21/11 23/20/11 24/2/11 3/1/11
f 25/23/12 26/14/12 16/27/12 11/28/12
f 2/13/4 7/25/13 10/29/13 26/14/4
f 20/26/14 2/13/14 1/15/14 22/22/14
f 16/19/15 17/6/16 21/11/15
f 23/20/15 21/11/15 19/10/15 13/3/15
f 16/19/15 21/11/15 23/20/15
f 17/6/16 16/27/15 8/7/17
f 8/7/17 16/27/15 10/16/13
f 23/20/15 13/3/15 24/2/15
f 10/29/13 16/27/15 26/14/4
f 14/30/18 10/29/18 7/25/18 18/24/18
f 12/4/19 13/3/19 19/10/19 6/9/19
usemtl Leafs.007
f 15/8/20 14/17/21 11/28/22
f 9/5/23 15/8/20 11/28/22
f 14/30/21 25/23/24 11/28/22
f 11/18/22 4/21/22 5/12/22
f 4/21/22 3/1/22 12/4/22
f 4/21/22 12/4/22 6/9/22 5/12/22
f 11/18/22 5/12/22 9/5/23
f 20/26/24 22/22/25 25/23/24
f 20/26/24 25/23/24 14/30/21 18/24/21
