# Blender v2.79 (sub 0) OBJ File: ''
# www.blender.org
mtllib Grey_Cliff_Green_Top_01.mtl
o Mesh1_Grey_Cliff_Green_Top_Model
v 1.500000 -1.100000 -1.500000
v 0.720000 -1.100000 -1.500000
v 0.720000 1.100000 -1.500000
v 1.500000 1.100000 -1.500000
v 1.082659 -1.100000 0.225080
v 0.720000 -1.100000 -0.424320
v 0.866171 -1.100000 -0.887190
v 1.500000 -1.100000 1.500000
v 0.720000 -1.100000 1.500000
v 0.838950 -1.100000 1.128136
v 0.720000 -1.100000 0.798969
v 1.082659 1.100000 0.225080
v 0.720000 1.100000 -0.424320
v 0.720000 1.100000 0.798969
v 0.838950 1.100000 1.128136
v 0.720000 1.100000 1.500000
v 1.500000 1.100000 1.500000
v 0.866171 1.100000 -0.887190
vt -0.227273 0.000000
vt 0.127273 -0.000000
vt 0.127273 1.000000
vt -0.227273 1.000000
vt -0.037572 0.579508
vt -0.227273 1.363640
vt -0.227273 -0.000000
vt -0.487638 1.000000
vt -0.825729 1.000000
vt -0.825729 0.000000
vt -0.487638 0.000000
vt 0.060831 1.085090
vt 0.127273 1.363640
vt -0.201382 1.000000
vt -0.509961 1.000000
vt -0.509961 0.000000
vt -0.201382 0.000000
vt -0.183847 1.000000
vt -0.342938 1.000000
vt -0.342938 0.000000
vt -0.183847 -0.000000
vt 0.038776 1.000000
vt -0.138690 1.000000
vt -0.138690 -0.000000
vt 0.038776 -0.000000
vt -0.127273 -0.000000
vt 0.227273 0.000000
vt 0.227273 1.000000
vt -0.127273 1.000000
vt 1.363640 1.000000
vt -0.000000 1.000000
vt -0.000000 -0.000000
vt 1.363640 -0.000000
vt -1.069590 1.000000
vt -1.355950 1.000000
vt -1.355950 -0.000000
vt -1.069590 0.000000
vt -0.795763 1.000000
vt -1.016400 1.000000
vt -1.016400 -0.000000
vt -0.795763 0.000000
vt 0.073205 0.169029
vt 0.127273 0.318650
vt 0.127273 -0.000000
vt 0.127273 0.874689
vt -0.073205 0.169029
vt -0.127273 -0.000000
vt 0.227273 -0.000000
vt 0.227273 1.363640
vt 0.037572 0.579508
vt -0.127273 1.363640
vt -0.060831 1.085090
vt -0.127273 0.318650
vt -0.127273 0.874689
vn 0.0000 0.0000 -1.0000
vn -0.0000 -1.0000 0.0000
vn -0.8731 -0.0000 0.4876
vn -0.8454 0.0000 -0.5342
vn -0.9405 0.0000 0.3399
vn -0.9525 0.0000 -0.3047
vn 0.0000 0.0000 1.0000
vn 1.0000 0.0000 0.0000
vn -0.9727 0.0000 0.2320
vn -0.9536 0.0000 -0.3011
vn 0.0000 1.0000 0.0000
usemtl Stone.001
s 1
f 1/1/1 2/2/1 3/3/1 4/4/1
f 5/5/2 1/6/2 8/7/2
f 12/8/3 13/9/3 6/10/3 5/11/3
f 7/12/2 2/13/2 1/6/2
f 14/14/4 12/15/4 5/16/4 11/17/4
f 15/18/5 14/19/5 11/20/5 10/21/5
f 16/22/6 15/23/6 10/24/6 9/25/6
f 9/26/7 8/27/7 17/28/7 16/29/7
f 4/30/8 17/31/8 8/32/8 1/33/8
f 18/34/9 3/35/9 2/36/9 7/37/9
f 13/38/10 18/39/10 7/40/10 6/41/10
f 8/7/2 10/42/2 11/43/2 5/5/2
f 8/7/2 9/44/2 10/42/2
f 7/12/2 1/6/2 5/5/2 6/45/2
usemtl Leafs
f 15/46/11 16/47/11 17/48/11
f 17/48/11 4/49/11 12/50/11
f 4/49/11 3/51/11 18/52/11
f 15/46/11 17/48/11 12/50/11 14/53/11
f 4/49/11 18/52/11 13/54/11 12/50/11
o Cube
v 1.499999 -1.100000 -1.499999
v 1.499999 -1.100000 1.499999
v -1.499999 -1.100000 1.499999
v -1.499999 -1.100000 -1.500000
v 1.500000 1.100000 -1.499998
v 1.499998 1.100000 1.500000
v -1.500000 1.100000 1.499999
v -1.499999 1.100000 -1.499999
l 19 20
l 19 22
l 19 23
l 20 21
l 20 24
l 21 22
l 21 25
l 22 26
l 23 24
l 23 26
l 24 25
l 25 26
