# Blender v2.79 (sub 0) OBJ File: ''
# www.blender.org
mtllib Grey_Cliff_Corner_Green_Top_01.mtl
o Mesh1_Grey_Cliff_Corner_Green_Top_Model.001
v 1.500000 -1.100000 1.500000
v 0.720000 -1.100000 1.500000
v 1.500000 -1.100000 0.720000
v 1.500000 1.100000 1.500000
v 0.720000 1.100000 1.500000
v 1.500000 1.100000 0.720000
vt -0.354545 0.000000
vt 0.000000 0.000000
vt -0.354545 0.354545
vt 0.354545 0.000000
vt 0.354545 1.000000
vt 0.000000 1.000000
vt 0.000000 0.000000
vt 0.354545 0.000000
vt 0.354545 1.000000
vt 0.000000 1.000000
vt -0.501403 0.000000
vt -0.501403 1.000000
vt 0.000000 0.000000
vt 0.354545 0.000000
vt 0.354545 0.354545
vn 0.0000 -1.0000 -0.0000
vn 0.0000 0.0000 1.0000
vn 1.0000 0.0000 0.0000
vn -0.7071 0.0000 -0.7071
vn 0.0000 1.0000 0.0000
usemtl Stone.083
s 1
f 1/1/1 2/2/1 3/3/1
f 2/2/2 1/4/2 4/5/2 5/6/2
f 1/7/3 3/8/3 6/9/3 4/10/3
f 3/11/4 2/2/4 5/6/4 6/12/4
usemtl Leafs.078
f 5/13/5 4/14/5 6/15/5
