# Blender v2.79 (sub 0) OBJ File: ''
# www.blender.org
mtllib Plate_River_4way_01.mtl
o Mesh1_Plate_River_Dirt_Model.007
v 1.500000 0.800000 1.500000
v 0.741300 0.950000 1.500000
v -1.500000 0.800000 1.500000
v 1.500000 1.100000 1.500000
v 1.500000 0.950000 0.741302
v 1.500000 0.800000 -1.500000
v -1.500000 0.800000 -1.500000
v -1.500000 0.950000 0.741302
v -1.500000 1.100000 0.741302
v -1.500000 1.100000 1.500000
v -0.741302 0.950000 1.500000
v 0.741300 0.950000 -1.500000
v -0.741302 0.950000 -1.500000
v 1.500000 1.100000 -1.500000
v 0.741300 1.100000 -1.500000
v 0.874550 0.950000 -0.941370
v 0.874550 1.100000 -0.941370
v 1.500000 1.100000 -0.741300
v 1.500000 0.950000 -0.741300
v 0.860250 0.950000 1.128136
v 0.741300 1.100000 0.798969
v 0.741300 0.950000 0.798969
v 0.860250 1.100000 1.128136
v 0.741300 1.100000 1.500000
v 1.500000 1.100000 0.741302
v 0.899190 1.100000 0.549118
v 0.899190 0.950000 0.549118
v -1.500000 1.100000 -1.500000
v -1.500000 0.950000 -0.741300
v -0.563735 0.950000 0.517979
v -0.563735 1.100000 0.517979
v -0.741302 1.100000 1.500000
v -0.622352 0.950000 1.128136
v -0.622352 1.100000 1.128136
v -0.741302 0.950000 0.798969
v -0.741302 1.100000 0.798969
v -0.610917 1.100000 -0.953370
v -0.610917 0.950000 -0.953370
v -1.500000 1.100000 -0.741300
v -0.741302 1.100000 -1.500000
vt 118.110001 0.000000
vt 88.240196 5.905510
vt 0.000000 0.000000
vt 118.110001 11.811000
vt 0.000000 0.000000
vt 29.870001 5.905510
vt 0.000000 11.811000
vt 118.110001 0.000000
vt -118.110001 118.110001
vt -118.110001 0.000000
vt 0.000000 118.110001
vt -29.870001 5.905510
vt -118.110001 0.000000
vt -29.870001 11.811000
vt 0.000000 11.811000
vt 29.870001 5.905510
vt -88.240196 5.905510
vt -118.110001 -0.000000
vt -29.870001 5.905510
vt -118.110001 11.811000
vt -88.240196 11.811000
vt -71.803596 5.905510
vt -94.414001 11.811000
vt -94.414001 5.905510
vt -71.803596 11.811000
vt 59.757999 5.905510
vt 85.611099 11.811000
vt 59.757999 11.811000
vt 85.611099 5.905510
vt 17.811800 5.905510
vt 4.032260 11.811000
vt 4.032260 5.905510
vt 17.811800 11.811000
vt -26.884001 5.905510
vt -42.255001 11.811000
vt -42.255001 5.905510
vt -26.884001 11.811000
vt 88.240196 11.811000
vt 29.870001 11.811000
vt -103.394997 5.905510
vt -78.560097 11.811000
vt -103.394997 11.811000
vt -78.560097 5.905510
vt 88.240196 5.905510
vt 88.240196 11.811000
vt 118.110001 11.811000
vt -70.470100 5.905510
vt -82.106201 11.811000
vt -82.106201 5.905510
vt -70.470100 11.811000
vt -0.000000 -0.000000
vt -0.000000 11.811000
vt -88.240196 5.905510
vt -118.110001 11.811000
vt -6.930340 11.811000
vt -44.825298 5.905510
vt -6.930340 5.905510
vt -44.825298 11.811000
vt 29.870001 11.811000
vt 24.471500 5.905510
vt 9.100430 11.811000
vt 9.100430 5.905510
vt 24.471500 11.811000
vt 15.805300 5.905510
vt 2.025760 11.811000
vt 2.025760 5.905510
vt 15.805300 11.811000
vt 52.374599 5.905510
vt 39.288200 11.811000
vt 39.288200 5.905510
vt 52.374599 11.811000
vt 56.458500 11.811000
vt 20.473200 5.905510
vt 56.458500 5.905510
vt 20.473200 11.811000
vt 85.832298 11.811000
vt 107.957001 5.905510
vt 107.957001 11.811000
vt 85.832298 5.905510
vt -29.870001 11.811000
vt -88.240196 11.811000
vt 88.240196 0.000000
vt 34.553101 14.640300
vt 29.870001 0.000000
vt 36.860802 38.662300
vt 88.240196 118.110001
vt 35.003300 96.589401
vt 29.870001 118.110001
vt 93.486198 96.116798
vt 94.456398 37.436298
vt 118.110001 88.240196
vt 118.110001 29.870001
vt 0.000000 29.870001
vt -0.000000 88.240196
vt 29.870001 27.599600
vt 118.110001 0.000000
vt 92.923302 14.640300
vt 88.240196 0.000000
vt 94.456398 37.436298
vt 118.110001 29.870001
vt 118.110001 118.110001
vt 93.486198 96.116798
vt 118.110001 88.240196
vt 88.240196 118.110001
vt 88.240196 27.599600
vt 0.000000 29.870001
vt 29.870001 27.599600
vt 36.860802 38.662300
vt 29.870001 0.000000
vt 0.000000 0.000000
vt 34.553101 14.640300
vt 35.003300 96.589401
vt 0.000000 118.110001
vt -0.000000 88.240196
vt 29.870001 118.110001
vn 0.0000 0.0000 1.0000
vn 1.0000 0.0000 0.0000
vn 0.0000 -1.0000 -0.0000
vn -1.0000 0.0000 0.0000
vn 0.0000 0.0000 -1.0000
vn -0.9727 0.0000 0.2320
vn -0.3047 0.0000 0.9525
vn -0.9405 0.0000 0.3399
vn -0.9525 0.0000 -0.3047
vn 0.3047 0.0000 -0.9525
vn -0.8454 0.0000 -0.5342
vn -0.2320 0.0000 -0.9727
vn 0.9525 0.0000 0.3047
vn 0.9405 0.0000 -0.3399
vn 0.8454 0.0000 0.5342
vn 0.2320 0.0000 0.9727
vn 0.9727 0.0000 -0.2320
vn 0.0000 1.0000 -0.0000
usemtl Stone.084
s 1
f 1/1/1 2/2/1 3/3/1
f 2/2/1 1/1/1 4/4/1
f 1/5/2 5/6/2 4/7/2
f 5/6/2 1/5/2 6/8/2
f 3/3/3 6/9/3 1/10/3
f 6/9/3 3/3/3 7/11/3
f 3/3/4 8/12/4 7/13/4
f 3/3/4 9/14/4 8/12/4
f 9/14/4 3/3/4 10/15/4
f 3/3/1 11/16/1 10/15/1
f 11/16/1 3/3/1 2/2/1
f 12/17/5 6/18/5 13/19/5
f 6/18/5 12/17/5 14/20/5
f 14/20/5 12/17/5 15/21/5
f 16/22/6 15/23/6 12/24/6
f 15/23/6 16/22/6 17/25/6
f 16/26/7 18/27/7 17/28/7
f 18/27/7 16/26/7 19/29/7
f 20/30/8 21/31/8 22/32/8
f 21/31/8 20/30/8 23/33/8
f 2/34/9 23/35/9 20/36/9
f 23/35/9 2/34/9 24/37/9
f 2/2/1 4/4/1 24/38/1
f 25/39/2 4/7/2 5/6/2
f 5/40/10 26/41/10 25/42/10
f 26/41/10 5/40/10 27/43/10
f 5/6/2 6/8/2 19/44/2
f 19/44/2 6/8/2 18/45/2
f 18/45/2 6/8/2 14/46/2
f 22/47/11 26/48/11 27/49/11
f 26/48/11 22/47/11 21/50/11
f 7/51/5 13/19/5 6/18/5
f 13/19/5 7/51/5 28/52/5
f 7/13/4 29/53/4 28/54/4
f 7/13/4 8/12/4 29/53/4
f 9/55/12 30/56/12 8/57/12
f 30/56/12 9/55/12 31/58/12
f 10/15/1 11/16/1 32/59/1
f 33/60/13 32/61/13 11/62/13
f 32/61/13 33/60/13 34/63/13
f 35/64/14 34/65/14 33/66/14
f 34/65/14 35/64/14 36/67/14
f 30/68/15 36/69/15 35/70/15
f 36/69/15 30/68/15 31/71/15
f 37/72/16 29/73/16 38/74/16
f 29/73/16 37/72/16 39/75/16
f 37/76/17 13/77/17 40/78/17
f 13/77/17 37/76/17 38/79/17
f 13/19/5 28/52/5 40/80/5
f 28/54/4 29/53/4 39/81/4
usemtl Water.018
f 2/82/18 33/83/18 11/84/18
f 33/83/18 2/82/18 30/85/18
f 12/86/18 38/87/18 30/85/18
f 38/87/18 12/86/18 13/88/18
f 16/89/18 27/90/18 19/91/18
f 19/91/18 27/90/18 5/92/18
f 8/93/18 38/87/18 29/94/18
f 38/87/18 8/93/18 30/85/18
f 30/85/18 35/95/18 33/83/18
f 12/24/18 30/85/18 16/22/18
f 27/90/18 16/89/18 30/85/18 22/47/18
f 20/30/18 22/32/18 30/85/18 2/82/18
usemtl Leafs.079
f 4/96/18 23/97/18 24/98/18
f 23/97/18 4/96/18 26/99/18
f 26/99/18 4/96/18 25/100/18
f 14/101/18 17/102/18 18/103/18
f 17/102/18 14/101/18 15/104/18
f 26/99/18 21/105/18 23/97/18
f 9/106/18 36/107/18 31/108/18
f 9/106/18 32/109/18 36/107/18
f 32/109/18 9/106/18 10/110/18
f 34/111/18 36/107/18 32/109/18
f 37/112/18 28/113/18 39/114/18
f 28/113/18 37/112/18 40/115/18
