# Blender v2.79 (sub 0) OBJ File: ''
# www.blender.org
mtllib Plate_River_01.mtl
o Mesh1_Plate_River_Model.001
v -1.500000 0.800000 1.500000
v 1.500000 0.800000 1.500000
v 1.500000 1.100000 1.500000
v 0.741300 1.100000 1.500000
v 0.741300 0.950000 1.500000
v -0.741302 0.950000 1.500000
v -0.741302 1.100000 1.500000
v -1.500000 1.100000 1.500000
v 1.500000 0.800000 -1.500000
v -1.500000 0.800000 -1.500000
v 1.500000 1.100000 -1.500000
v -1.500000 1.100000 -1.500000
v -0.741302 1.100000 -1.500000
v -0.741302 0.950000 -1.500000
v 0.741300 0.950000 -1.500000
v 0.741300 1.100000 -1.500000
v -0.741302 1.100000 0.798969
v -0.622352 1.100000 1.128136
v -0.622352 0.950000 1.128136
v -0.741302 0.950000 0.798969
v 1.103960 1.100000 0.225080
v 0.741300 1.100000 -0.424320
v 0.741300 0.950000 -0.424320
v 1.103960 0.950000 0.225080
v 0.741300 1.100000 0.798969
v 0.741300 0.950000 0.798969
v 0.860250 1.100000 1.128136
v 0.860250 0.950000 1.128136
v 0.887470 1.100000 -0.887190
v 0.887470 0.950000 -0.887190
v -0.595131 1.100000 -0.887190
v -0.595131 0.950000 -0.887190
v -0.741302 1.100000 -0.424320
v -0.741302 0.950000 -0.424320
v -0.378640 1.100000 0.225080
v -0.378640 0.950000 0.225080
vt -1.363640 1.363640
vt -1.363640 0.000000
vt 0.000000 0.000000
vt 0.000000 1.363640
vt 0.000000 0.000000
vt 1.363640 0.000000
vt 1.363640 0.136364
vt 0.000000 0.136364
vt -1.090050 0.136364
vt -1.090050 0.068182
vt -1.363640 0.000000
vt 0.000000 0.136364
vt -1.363640 0.136364
vt 0.182479 0.136364
vt 0.023388 0.136364
vt 0.023388 0.068182
vt 0.182479 0.068182
vt 0.282535 0.136364
vt 0.105069 0.136364
vt 0.105069 0.068182
vt 0.282535 0.068182
vt 0.071147 0.136364
vt -0.266944 0.136364
vt -0.266944 0.068182
vt 0.071147 0.068182
vt -0.813609 0.136364
vt -1.122190 0.136364
vt -1.122190 0.068182
vt -0.813609 0.068182
vt 0.205645 0.136364
vt 0.046554 0.136364
vt 0.046554 0.068182
vt 0.205645 0.068182
vt -0.310388 0.136364
vt -0.487854 0.136364
vt -0.487854 0.068182
vt -0.310388 0.068182
vt -0.803689 0.136364
vt -0.803689 0.068182
vt -1.140870 0.136364
vt -1.361510 0.136364
vt -1.361510 0.068182
vt -1.140870 0.068182
vt 1.246410 0.136364
vt 0.960048 0.136364
vt 0.960048 0.068182
vt 1.246410 0.068182
vt 1.158580 0.136364
vt 0.937937 0.136364
vt 0.937937 0.068182
vt 1.158580 0.068182
vt 0.595527 0.136364
vt 0.257436 0.136364
vt 0.257436 0.068182
vt 0.595527 0.068182
vt 0.762179 0.136364
vt 0.453600 0.136364
vt 0.453600 0.068182
vt 0.762179 0.068182
vt 0.344863 1.363640
vt 0.344863 1.363640
vt 0.000000 1.363640
vt 0.344863 0.068182
vt 0.344863 0.136364
vt 1.018770 0.068182
vt 1.363640 0.000000
vt 1.363640 0.136364
vt 1.018770 0.136364
vt 1.072840 0.169029
vt 1.018770 0.000000
vt 1.363640 0.000000
vt 0.344863 0.318650
vt 0.344863 0.874689
vt 0.000000 0.000000
vt 1.363640 1.363640
vt 1.183620 0.579508
vt 0.509708 0.579508
vt 0.398931 0.169029
vt 0.344863 0.000000
vt 1.018770 1.363640
vt 1.085210 1.085090
vt 1.018770 0.874689
vt 0.411304 1.085090
vt 1.018770 0.318650
vt 0.411304 1.085090
vt 0.344863 0.874689
vt 1.018770 0.874689
vt 1.085210 1.085090
vt 0.509708 0.579508
vt 0.398931 0.169029
vt 1.018770 0.000000
vt 1.018770 0.318650
vt 0.344863 0.318650
vt 0.344863 0.000000
vt 1.072840 0.169029
vt 1.183620 0.579508
vt 1.018770 1.363640
vn 0.0000 -1.0000 -0.0000
vn 1.0000 0.0000 0.0000
vn 0.0000 0.0000 -1.0000
vn -1.0000 0.0000 0.0000
vn 0.9405 0.0000 -0.3399
vn 0.9525 0.0000 0.3047
vn -0.8731 0.0000 0.4876
vn -0.8454 0.0000 -0.5342
vn -0.9405 0.0000 0.3399
vn -0.9525 0.0000 -0.3047
vn -0.9727 0.0000 0.2320
vn -0.9536 -0.0000 -0.3011
vn 0.9727 0.0000 -0.2320
vn 0.9536 -0.0000 0.3011
vn 0.8731 0.0000 -0.4876
vn 0.8454 0.0000 0.5342
vn 0.0000 0.0000 1.0000
vn 0.0000 1.0000 0.0000
usemtl Stone.006
s 1
f 9/1/1 2/2/1 1/3/1 10/4/1
f 2/5/2 9/6/2 11/7/2 3/8/2
f 16/9/3 11/7/3 9/6/3 15/10/3
f 10/11/4 1/3/4 8/12/4 12/13/4
f 17/14/5 18/15/5 19/16/5 20/17/5
f 18/18/6 7/19/6 6/20/6 19/21/6
f 21/22/7 22/23/7 23/24/7 24/25/7
f 25/26/8 21/27/8 24/28/8 26/29/8
f 27/30/9 25/31/9 26/32/9 28/33/9
f 4/34/10 27/35/10 28/36/10 5/37/10
f 29/38/11 16/9/11 15/10/11 30/39/11
f 22/40/12 29/41/12 30/42/12 23/43/12
f 13/44/13 31/45/13 32/46/13 14/47/13
f 31/48/14 33/49/14 34/50/14 32/51/14
f 33/52/15 35/53/15 36/54/15 34/55/15
f 35/56/16 17/57/16 20/58/16 36/59/16
f 9/6/3 10/4/3 14/60/3 15/10/3
f 13/61/3 14/60/3 10/11/3 12/62/3
f 8/12/17 1/3/17 6/63/17 7/64/17
f 5/65/17 6/63/17 1/3/17 2/66/17
f 3/67/17 4/68/17 5/65/17 2/66/17
usemtl Leafs.008
f 27/69/18 4/70/18 3/71/18
f 17/72/18 33/73/18 12/62/18 8/74/18
f 3/71/18 11/75/18 21/76/18
f 17/72/18 35/77/18 33/73/18
f 18/78/18 17/72/18 8/74/18 7/79/18
f 11/75/18 16/80/18 29/81/18
f 11/75/18 29/81/18 22/82/18 21/76/18
f 31/83/18 13/61/18 12/62/18 33/73/18
f 27/69/18 3/71/18 21/76/18 25/84/18
usemtl Water.002
f 32/85/18 34/86/18 23/87/18 30/88/18
f 36/89/18 19/90/18 5/91/18 26/92/18
f 34/86/18 36/89/18 23/87/18
f 36/89/18 20/93/18 19/90/18
f 19/90/18 6/94/18 5/91/18
f 5/91/18 28/95/18 26/92/18
f 23/87/18 36/89/18 26/92/18 24/96/18
f 15/97/18 14/60/18 32/85/18 30/88/18
