# Blender v2.79 (sub 0) OBJ File: ''
# www.blender.org
mtllib Plate_River_Corner_01.mtl
o Mesh1_Plate_River_Corner_Model
v -1.500000 0.800000 1.500000
v 1.500000 0.800000 1.500000
v 1.500000 1.100000 1.500000
v -1.500000 1.100000 1.500000
v 1.500000 0.800000 -1.500000
v -1.500000 0.800000 -1.500000
v 1.500000 1.100000 -1.500000
v -1.500000 1.100000 -1.500000
v -0.741302 1.100000 -1.500000
v -0.741302 0.950000 -1.500000
v 0.741300 0.950000 -1.500000
v 0.741300 1.100000 -1.500000
v -1.500000 1.100000 0.741302
v -1.500000 0.950000 0.741302
v -1.500000 0.950000 -0.741300
v -1.500000 1.100000 -0.741300
v 0.084840 1.100000 0.404840
v -0.642291 1.100000 0.800693
v 0.867710 1.100000 -0.865910
v 0.312920 1.100000 -0.328320
v 0.084840 0.950000 0.404840
v -0.642291 0.950000 0.800693
v 0.312920 0.950000 -0.328320
v 0.867710 0.950000 -0.865910
v -0.965095 0.950000 -0.913340
v -0.965095 1.100000 -0.913340
vt 0.000000 0.000000
vt 1.363640 0.000000
vt 1.363640 0.136364
vt 0.000000 0.136364
vt -1.363640 1.363640
vt -1.363640 0.000000
vt 0.000000 1.363640
vt 0.000000 0.000000
vt 1.363640 0.000000
vt 1.363640 0.136364
vt 0.000000 0.136364
vt -1.363640 0.000000
vt 0.000000 0.000000
vt -0.344863 0.068182
vt -1.018770 0.068182
vt -0.494399 0.136364
vt -0.870718 0.136364
vt -0.870718 0.068182
vt -0.494399 0.068182
vt -0.689320 0.136364
vt -1.038330 0.136364
vt -1.038330 0.068182
vt -0.689320 0.068182
vt -1.170120 0.136364
vt -1.521270 0.136364
vt -1.521270 0.068182
vt -1.170120 0.068182
vt -0.844249 0.136364
vt -1.138140 0.136364
vt -1.138140 0.068182
vt -0.844249 0.068182
vt 0.023823 0.136364
vt -0.366979 0.136364
vt -0.366979 0.068182
vt 0.023823 0.068182
vt 1.397000 0.136364
vt 1.111590 0.136364
vt 1.111590 0.068182
vt 1.397000 0.068182
vt 0.567334 0.136364
vt 0.311929 0.136364
vt 0.311929 0.068182
vt 0.567334 0.068182
vt -1.363640 -0.000000
vt -0.344863 0.068182
vt -1.018770 0.068182
vt -0.344863 0.136364
vt -1.363640 0.136364
vt -1.018770 0.136364
vt 0.000000 0.136364
vt -0.344863 0.136364
vt -1.363640 0.136364
vt -1.018770 0.136364
vt -0.000000 1.363640
vt -0.000000 1.018770
vt 0.243139 1.096970
vt 0.344863 1.363640
vt 1.363640 1.363640
vt 1.018770 1.363640
vt 1.076230 1.075420
vt 1.363640 0.000000
vt 0.389868 0.317867
vt -0.000000 0.344863
vt -0.000000 0.000000
vt 0.824055 0.831056
vt 0.720382 0.497800
vt -0.000000 1.018770
vt -0.000000 0.344863
vt 0.389868 0.317867
vt 0.344863 1.363640
vt 0.243139 1.096970
vt 0.720382 0.497800
vt 0.824055 0.831056
vt 1.018770 1.363640
vt 1.076230 1.075420
vn 0.0000 0.0000 1.0000
vn 0.0000 -1.0000 -0.0000
vn 1.0000 0.0000 0.0000
vn 0.0000 0.0000 -1.0000
vn -0.4781 0.0000 -0.8783
vn -0.9549 0.0000 -0.2970
vn -0.6959 0.0000 -0.7182
vn -0.9807 0.0000 0.1955
vn 0.0691 0.0000 -0.9976
vn 0.9343 0.0000 0.3564
vn 0.3062 0.0000 0.9520
vn -1.0000 0.0000 0.0000
vn 0.0000 1.0000 0.0000
usemtl Stone
s 1
f 1/1/1 2/2/1 3/3/1 4/4/1
f 5/5/2 2/6/2 1/1/2 6/7/2
f 2/8/3 5/9/3 7/10/3 3/11/3
f 5/12/4 6/13/4 10/14/4 11/15/4
f 18/16/5 17/17/5 21/18/5 22/19/5
f 17/20/6 20/21/6 23/22/6 21/23/6
f 20/24/7 19/25/7 24/26/7 23/27/7
f 19/28/8 12/29/8 11/30/8 24/31/8
f 13/32/9 18/33/9 22/34/9 14/35/9
f 9/36/10 26/37/10 25/38/10 10/39/10
f 26/40/11 16/41/11 15/42/11 25/43/11
f 6/44/12 1/1/12 14/45/12 15/46/12
f 4/4/12 13/47/12 14/45/12 1/1/12
f 8/48/12 6/44/12 15/46/12 16/49/12
f 8/50/4 9/51/4 10/14/4 6/13/4
f 7/52/4 5/12/4 11/15/4 12/53/4
usemtl Leafs
f 8/54/13 16/55/13 26/56/13 9/57/13
f 7/58/13 12/59/13 19/60/13 3/61/13
f 18/62/13 13/63/13 4/64/13
f 20/65/13 17/66/13 3/61/13 19/60/13
f 17/66/13 18/62/13 4/64/13 3/61/13
usemtl Water
f 15/67/13 14/68/13 22/69/13
f 10/70/13 25/71/13 21/72/13 23/73/13
f 11/74/13 10/70/13 23/73/13 24/75/13
f 25/71/13 15/67/13 22/69/13 21/72/13
