# Blender v2.79 (sub 0) OBJ File: ''
# www.blender.org
mtllib Plate_River_Plungepool_01.mtl
o Mesh1_Plate_River_Model.000
v 1.500000 0.800000 1.500000
v -1.500000 0.800000 1.500000
v -1.500000 0.800000 -1.500000
v 1.500000 0.800000 -1.500000
v 1.500000 1.100000 1.500000
v -1.500000 1.100000 1.500000
v 1.500000 1.100000 -1.500000
v -1.500000 1.100000 -1.500000
v -0.798969 1.100000 -0.741302
v -1.128136 1.100000 -0.622352
v -1.128136 0.950000 -0.622352
v -0.798969 0.950000 -0.741302
v -1.500000 1.100000 -0.741302
v -1.500000 0.950000 -0.741302
v -0.798969 1.100000 0.741300
v -0.243864 1.100000 1.103960
v -0.243864 0.950000 1.103960
v -0.798969 0.950000 0.741300
v -1.128136 1.100000 0.860250
v -1.128136 0.950000 0.860250
v -1.500000 1.100000 0.741300
v -1.500000 0.950000 0.741300
v -0.225080 1.100000 -0.378640
v -0.225080 0.950000 -0.378640
v 0.334163 0.950000 -0.741302
v 0.334163 1.100000 -0.741302
v 0.271071 1.100000 0.741300
v 0.271071 0.950000 0.741300
v 0.234818 1.100000 -0.424321
v 0.597476 1.100000 0.225082
v 0.234818 0.950000 -0.424321
v 0.597476 0.950000 0.225082
vt -1.363640 1.363640
vt -1.363640 0.000000
vt 0.000000 0.000000
vt 0.000000 1.363640
vt 0.000000 0.000000
vt 1.363640 0.000000
vt 1.363640 0.136364
vt 0.000000 0.136364
vt -1.363640 0.000000
vt -1.363640 0.136364
vt 0.000000 0.136364
vt 0.182479 0.136364
vt 0.023388 0.136364
vt 0.023388 0.068182
vt 0.182479 0.068182
vt 0.282535 0.136364
vt 0.105069 0.136364
vt 0.105069 0.068182
vt 0.282535 0.068182
vt -0.813609 0.136364
vt -1.122190 0.136364
vt -1.122190 0.068182
vt -0.813609 0.068182
vt 0.205645 0.136364
vt 0.046554 0.136364
vt 0.046554 0.068182
vt 0.205645 0.068182
vt -0.310388 0.136364
vt -0.487854 0.136364
vt -0.487854 0.068182
vt -0.310388 0.068182
vt 0.762179 0.136364
vt 0.453600 0.136364
vt 0.453600 0.068182
vt 0.762179 0.068182
vt 0.000000 0.000000
vt 0.344863 0.874689
vt 0.509708 0.579508
vt 0.000000 0.000000
vt 0.000000 0.000000
vt 0.344863 0.068182
vt 0.344863 0.136364
vt 1.018770 0.068182
vt 1.363640 0.000000
vt 1.363640 0.136364
vt 1.018770 0.136364
vt 1.072840 0.169029
vt 1.018770 0.000000
vt 1.363640 0.000000
vt 0.344863 0.318650
vt 0.000000 1.363640
vt 0.000000 0.000000
vt 1.363640 1.363640
vt 1.183620 0.579508
vt 0.398931 0.169029
vt 0.344863 0.000000
vt 1.018770 0.318650
vt 0.000000 0.000000
vt 0.000000 0.000000
vt 0.509708 0.579508
vt 0.398931 0.169029
vt 1.018770 0.000000
vt 1.018770 0.318650
vt 0.344863 0.318650
vt 0.344863 0.000000
vt 1.072840 0.169029
vt 0.000000 0.000000
vt 0.000000 0.000000
vn 0.0000 -1.0000 -0.0000
vn 0.0000 0.0000 1.0000
vn 1.0000 0.0000 0.0000
vn 0.0000 0.0000 -1.0000
vn 0.3399 0.0000 0.9405
vn -0.3047 0.0000 0.9525
vn 0.5469 0.0000 -0.8372
vn -0.3399 0.0000 -0.9405
vn 0.3047 0.0000 -0.9525
vn -0.5342 -0.0000 0.8454
vn 0.5441 -0.0000 0.8390
vn -0.5758 0.0000 -0.8176
vn -1.0000 0.0000 0.0000
vn -0.0000 1.0000 0.0000
vn -0.9542 0.0000 -0.2991
vn -0.8731 0.0000 0.4876
vn -0.8452 0.0000 -0.5344
usemtl Stone.002
s 1
f 1/1/1 2/2/1 3/3/1 4/4/1
f 2/5/2 1/6/2 5/7/2 6/8/2
f 5/7/3 1/1/3 4/9/3 7/10/3
f 4/9/4 3/3/4 8/11/4 7/10/4
f 9/12/5 10/13/5 11/14/5 12/15/5
f 10/16/6 13/17/6 14/18/6 11/19/6
f 15/20/7 16/21/7 17/22/7 18/23/7
f 19/24/8 15/25/8 18/26/8 20/27/8
f 21/28/9 19/29/9 20/30/9 22/31/9
f 23/32/10 9/33/10 12/34/10 24/35/10
f 24/35/11 25/36/11 26/37/11 23/38/11
f 17/22/12 16/21/12 27/39/12 28/40/12
f 8/11/13 3/3/13 14/41/13 13/42/13
f 22/43/13 14/41/13 3/3/13 2/44/13
f 6/45/13 21/46/13 22/43/13 2/44/13
usemtl Leafs.001
f 19/47/14 21/48/14 6/49/14
f 9/50/14 26/37/14 7/51/14 8/52/14
f 6/49/14 5/53/14 16/54/14
f 9/50/14 23/38/14 26/37/14
f 10/55/14 9/50/14 8/52/14 13/56/14
f 19/47/14 6/49/14 16/54/14 15/57/14
f 26/37/14 29/58/14 30/59/14 7/51/14
f 16/54/14 5/53/14 27/39/14
f 30/59/14 27/39/14 5/53/14
f 5/53/14 7/51/14 30/59/14
usemtl Water.001
f 24/60/14 11/61/14 22/62/14 18/63/14
f 24/60/14 12/64/14 11/61/14
f 11/61/14 14/65/14 22/62/14
f 22/62/14 20/66/14 18/63/14
f 31/67/15 29/58/15 26/37/15 25/36/15
f 30/59/16 29/58/16 31/67/16 32/68/16
f 27/39/17 30/59/17 32/68/17 28/40/17
f 24/35/14 31/67/14 25/36/14
f 32/68/14 31/67/14 24/35/14 28/40/14
f 28/40/14 24/35/14 18/63/14 17/22/14
