# Blender v2.79 (sub 0) OBJ File: ''
# www.blender.org
mtllib Tent_01.mtl
o Mesh1_Tent_Model
v -1.303404 -1.100000 -1.300000
v 0.000000 1.380840 -1.300000
v 0.000000 1.380840 1.300000
v -1.303404 -1.100000 1.300000
v -0.750000 -1.100000 -1.300000
v 0.000000 0.905030 -1.300000
v 0.750000 -1.100000 -1.300000
v 1.303400 -1.100000 -1.300000
v -0.750000 -1.100000 -1.500000
v 0.000000 0.905030 -1.500000
v -1.500000 -1.100000 -1.500000
v 0.000000 1.755030 -1.500000
v 1.500000 -1.100000 -1.500000
v 0.750000 -1.100000 -1.500000
v -0.604552 0.604350 -0.752200
v -0.533371 0.739840 -0.286720
v -0.533665 0.739280 0.106470
v -0.277240 1.227340 0.204680
v -0.326180 1.134190 0.795379
v 0.000000 1.755030 1.500000
v -1.500000 -1.100000 1.500000
v -0.582603 0.646130 0.697174
v -0.749870 0.327760 -0.133670
v -0.821052 0.192280 -0.599160
v 1.303400 -1.100000 1.300000
v 1.500000 -1.100000 1.500000
vt 0.681818 0.911376
vt 1.274270 0.000000
vt 0.681818 1.127650
vt -1.363640 0.000000
vt -1.022730 0.000000
vt -0.681818 0.911376
vt -1.023730 0.875120
vt -1.363640 1.465950
vt -1.363640 0.000000
vt -0.812145 0.944686
vt -0.633422 0.944398
vt -0.588783 1.195000
vt -0.320282 1.147170
vt 0.000000 1.465950
vt 0.000000 0.000000
vt -0.364921 0.896571
vt -0.742579 0.733101
vt -0.954164 0.663535
vt -1.274270 0.090909
vt -1.363640 0.000000
vt -0.681818 1.127650
vt -1.274270 0.000000
vt -0.089362 0.000000
vt 0.681818 1.297740
vt 1.363640 0.000000
vt 1.272730 0.119438
vt 1.363640 0.119438
vt 1.363640 1.092490
vt 1.272730 1.092490
vt 0.089362 0.000000
vt 0.340909 0.000000
vt 1.022730 0.000000
vt -0.090909 -0.592670
vt -0.090909 0.681145
vt -1.272730 0.681145
vt -1.272730 -0.592670
vt -0.340909 0.000000
vt -0.000000 0.000000
vt -0.681818 1.297740
vt -1.274270 1.272730
vt -1.022730 1.272730
vt -1.022730 1.363640
vt 0.000000 1.363640
vt -0.340909 1.363640
vt -0.089362 1.272730
vt -0.340909 1.272730
vt -1.363640 1.363640
vt -0.089362 0.090909
vt -1.363640 -0.358314
vt -1.272730 -0.358314
vt -1.272730 0.614736
vt -1.363640 0.614736
vt -0.000000 -0.634233
vt 1.363640 -0.634233
vt 1.363640 0.831716
vt -0.000000 0.831716
vt 0.090909 0.041563
vt 1.272730 0.041563
vt 1.272730 1.315380
vt 0.090909 1.315380
vn 0.0000 -0.0000 1.0000
vn 0.0000 0.0000 -1.0000
vn -0.8853 0.4651 -0.0000
vn -0.0000 -1.0000 -0.0000
vn 0.9366 -0.3504 -0.0000
vn -0.8853 -0.4651 0.0000
vn -0.9366 -0.3504 -0.0000
vn 0.8853 0.4651 0.0000
vn 0.8853 -0.4651 0.0000
usemtl Green_Roof
s 1
f 6/1/1 8/2/1 2/3/1
f 13/4/2 14/5/2 10/6/2
f 15/7/3 12/8/3 11/9/3
f 16/10/3 12/8/3 15/7/3
f 17/11/3 12/8/3 16/10/3
f 18/12/3 12/8/3 17/11/3
f 19/13/3 12/8/3 18/12/3
f 19/13/3 20/14/3 12/8/3
f 20/14/3 19/13/3 21/15/3
f 22/16/3 21/15/3 19/13/3
f 21/15/3 22/16/3 11/9/3
f 11/9/3 22/16/3 23/17/3
f 23/17/3 22/16/3 17/11/3
f 17/11/3 16/10/3 23/17/3
f 11/9/3 24/18/3 15/7/3
f 11/9/3 23/17/3 24/18/3
f 25/19/4 26/20/4 21/15/4
f 3/21/2 25/22/2 4/23/2
f 20/24/1 21/15/1 26/25/1
f 5/26/5 9/27/5 10/28/5 6/29/5
f 1/30/1 5/31/1 6/1/1
f 6/1/1 7/32/1 8/2/1
f 2/3/1 1/30/1 6/1/1
f 25/33/6 3/34/6 2/35/6 8/36/6
f 9/37/2 11/38/2 10/6/2
f 11/38/2 12/39/2 10/6/2
f 12/39/2 13/4/2 10/6/2
f 8/40/4 7/41/4 14/42/4
f 11/43/4 9/44/4 1/45/4
f 9/44/4 5/46/4 1/45/4
f 8/40/4 14/42/4 13/47/4
f 25/19/4 8/40/4 13/47/4
f 21/15/4 11/43/4 1/45/4
f 21/15/4 1/45/4 4/48/4
f 25/19/4 13/47/4 26/20/4
f 21/15/4 4/48/4 25/19/4
f 14/49/7 7/50/7 6/51/7 10/52/7
f 26/53/8 13/54/8 12/55/8 20/56/8
f 4/57/9 1/58/9 2/59/9 3/60/9
usemtl Leafs
f 23/17/3 16/10/3 15/7/3 24/18/3
f 19/13/3 18/12/3 17/11/3 22/16/3
