# Blender v2.79 (sub 0) OBJ File: ''
# www.blender.org
mtllib Campfire_01.mtl
o Mesh1_Campfire_Model
v 0.195161 -1.086500 0.349665
v 0.349664 -1.086500 0.195162
v 0.349664 -0.996500 0.195162
v 0.195161 -0.996500 0.349665
v 0.349664 -1.086500 -0.195161
v 0.249502 -1.086500 -0.094999
v 0.334999 -1.086500 -0.094999
v 0.334999 -1.086500 0.095001
v 0.249502 -1.086500 0.095001
v 0.094999 -1.086500 0.249504
v 0.094999 -1.086500 0.335001
v -0.095001 -1.086500 0.335001
v -0.095001 -1.086500 0.249504
v -0.195162 -1.086500 0.349665
v -0.349665 -1.086500 0.195162
v -0.249504 -1.086500 0.095001
v -0.335001 -1.086500 0.095001
v -0.335001 -1.086500 -0.094999
v -0.249504 -1.086500 -0.094999
v -0.349665 -1.086500 -0.195161
v -0.195162 -1.086500 -0.349664
v -0.095001 -1.086500 -0.249502
v -0.095001 -1.086500 -0.334999
v 0.094999 -1.086500 -0.334999
v 0.094999 -1.086500 -0.249502
v 0.195161 -1.086500 -0.349664
v 0.249502 -1.011722 -0.094999
v 0.349664 -0.996500 -0.195161
v 0.094999 -1.023462 -0.094999
v 0.094999 -0.979485 -0.094999
v 0.334999 -0.936500 -0.094999
v 0.195161 -0.996500 -0.349664
v 0.094999 -1.011722 -0.249502
v 0.094999 -0.936500 -0.334999
v -0.095001 -0.979485 -0.094999
v -0.000001 -0.996500 0.000001
v -0.095001 -0.936500 -0.334999
v -0.335001 -0.936500 0.095001
v -0.095001 -0.979485 0.095001
v -0.335001 -0.936500 -0.094999
v -0.249504 -1.011722 0.095001
v -0.095001 -1.023462 0.095001
v -0.195162 -0.996500 0.349665
v -0.095001 -1.011722 0.249504
v -0.349665 -0.996500 0.195162
v -0.095001 -0.936500 0.335001
v 0.094999 -0.936500 0.335001
v 0.094999 -0.979485 0.095001
v 0.094999 -1.011722 0.249504
v 0.094999 -1.023462 0.095001
v 0.249502 -1.011722 0.095001
v 0.334999 -0.936500 0.095001
v -0.095001 -1.023462 -0.094999
v -0.249504 -1.011722 -0.094999
v -0.095001 -1.011722 -0.249502
v -0.195162 -0.996500 -0.349664
v -0.349665 -0.996500 -0.195161
vt 0.115757 0.074318
vt 0.115757 0.006136
vt 0.202120 0.006136
vt 0.202120 0.074318
vt 0.115757 0.074318
vt 0.115757 0.006136
vt 0.202120 0.006136
vt 0.202120 0.074318
vt -0.049659 0.047045
vt -0.049659 0.006136
vt 0.049659 0.006136
vt 0.049659 0.047045
vt -0.202120 0.074318
vt -0.202120 0.006136
vt -0.115757 0.006136
vt -0.115757 0.074318
vt -0.274432 0.047045
vt -0.274432 0.006136
vt -0.175114 0.006136
vt -0.175114 0.047045
vt -0.202120 0.074318
vt -0.202120 0.006136
vt -0.115757 0.006136
vt -0.115757 0.074318
vt -0.049659 0.047045
vt -0.049659 0.006136
vt 0.049659 0.006136
vt 0.049659 0.047045
vt 0.175114 0.047045
vt 0.175114 0.006136
vt 0.274432 0.006136
vt 0.274432 0.047045
vt -0.115757 0.045528
vt -0.045528 0.115757
vt -0.045528 0.202120
vt -0.272349 0.040126
vt -0.202120 0.054779
vt -0.311211 0.074318
vt 0.311211 0.074318
vt 0.272349 0.040126
vt 0.311211 0.006136
vt 0.045528 0.040126
vt 0.115756 0.054779
vt 0.006666 0.074318
vt -0.049659 -0.109105
vt 0.000000 -0.159050
vt 0.049659 -0.109105
vt -0.006666 0.074318
vt -0.045528 0.040126
vt -0.006666 0.006136
vt 0.045528 0.040126
vt 0.115757 0.054779
vt 0.006666 0.074318
vt 0.311211 0.074318
vt 0.272349 0.040126
vt 0.311211 0.006136
vt -0.006666 0.074318
vt -0.045528 0.040126
vt -0.006666 0.006136
vt -0.272349 0.040126
vt -0.202120 0.054779
vt -0.311211 0.074318
vt -0.311211 0.115756
vt -0.272349 0.115756
vt -0.272349 0.202120
vt -0.311211 0.202120
vt -0.274432 0.114381
vt -0.175114 0.114381
vt -0.175114 0.179138
vt -0.274432 0.179138
vt -0.115757 0.272349
vt -0.115757 0.311211
vt -0.202120 0.311211
vt -0.202120 0.272349
vt -0.000000 0.247648
vt -0.070229 0.317877
vt -0.115757 0.006666
vt -0.202120 0.045528
vt -0.202120 0.006666
vt 0.399886 0.006136
vt 0.399886 0.047045
vt 0.335500 0.040126
vt 0.335500 0.006136
vt -0.006666 0.115757
vt -0.006666 0.202120
vt -0.049659 0.337867
vt 0.049659 0.337867
vt 0.049659 0.402624
vt -0.049659 0.402624
vt 0.202120 0.208612
vt 0.202120 0.319439
vt 0.115757 0.319439
vt 0.115757 0.208612
vt -0.335500 0.040126
vt -0.399886 0.047045
vt -0.399886 0.006136
vt -0.335500 0.006136
vt -0.202120 0.034790
vt -0.311211 0.006136
vt -0.272349 0.006136
vt -0.049659 -0.044348
vt 0.049659 -0.044348
vt 0.000000 0.287922
vt 0.110727 0.040126
vt 0.110727 0.006136
vt 0.202120 0.054779
vt 0.202120 0.034790
vt 0.272349 0.006136
vt 0.115757 -0.104286
vt 0.202120 -0.104286
vt 0.202120 0.006541
vt 0.115757 0.006541
vt 0.158938 0.164743
vt -0.202120 -0.104286
vt -0.115757 -0.104286
vt -0.115757 0.006541
vt -0.202120 0.006541
vt 0.158938 -0.148155
vt 0.115756 0.034790
vt 0.006666 0.006136
vt 0.045528 0.006136
vt -0.247648 0.317877
vt -0.317877 0.247648
vt -0.114045 0.040126
vt -0.114045 0.006136
vt -0.115757 0.054779
vt -0.115757 0.034790
vt -0.045528 0.006136
vt -0.202120 0.208612
vt -0.115757 0.208612
vt -0.115757 0.319439
vt -0.202120 0.319439
vt -0.158938 -0.148155
vt 0.006666 0.006136
vt 0.045528 0.006136
vt 0.115757 0.034790
vt -0.110727 0.040126
vt -0.110727 0.006136
vt 0.274432 0.114381
vt 0.274432 0.179138
vt 0.175114 0.179138
vt 0.175114 0.114381
vt -0.224773 0.064436
vt 0.202120 0.054779
vt 0.202120 0.034790
vt 0.272349 0.006136
vt -0.158938 0.164743
vt 0.175114 0.006136
vt 0.175114 0.047045
vt 0.110727 0.040126
vt 0.110727 0.006136
vt -0.115756 0.054779
vt -0.115756 0.034790
vt -0.045528 0.006136
vt -0.311211 0.006136
vt -0.272349 0.006136
vt -0.202120 0.034790
vt 0.114045 0.040126
vt 0.114045 0.006136
vt -0.110727 0.040126
vt -0.175114 0.047045
vt -0.175114 0.006136
vt -0.110727 0.006136
vt -0.247648 0.000000
vt -0.317877 0.070229
vt 0.224773 0.064436
vt 0.000000 0.070229
vt -0.070229 0.000000
vn 1.0000 -0.0000 0.0000
vn 0.0000 -0.0000 1.0000
vn -0.7071 -0.0000 0.7071
vn -1.0000 0.0000 0.0000
vn -0.7071 0.0000 -0.7071
vn 0.0000 0.0000 -1.0000
vn 0.7071 0.0000 -0.7071
vn 0.7071 0.0000 0.7071
vn 0.0000 -1.0000 -0.0000
vn 0.0756 0.9943 -0.0756
vn -0.0756 0.9943 -0.0756
vn -0.0756 0.9943 0.0756
vn -0.0888 0.9921 0.0888
vn 0.0000 0.9843 0.1763
vn 0.0888 0.9921 0.0888
vn 0.0888 0.9921 -0.0888
vn 0.1763 0.9843 0.0000
vn -0.0000 1.0000 0.0000
vn -0.0888 0.9921 -0.0888
vn 0.0000 0.9843 -0.1763
vn -0.1763 0.9843 0.0000
vn 0.0756 0.9943 0.0756
usemtl Light_Wood
s 1
f 52/1/1 8/2/1 7/3/1 31/4/1
f 46/5/2 12/6/2 11/7/2 47/8/2
f 45/9/3 15/10/3 14/11/3 43/12/3
f 40/13/4 18/14/4 17/15/4 38/16/4
f 56/17/5 21/18/5 20/19/5 57/20/5
f 34/21/6 24/22/6 23/23/6 37/24/6
f 28/25/7 5/26/7 26/27/7 32/28/7
f 4/29/8 1/30/8 2/31/8 3/32/8
usemtl Wood
f 13/33/9 16/34/9 19/35/9
f 27/36/6 30/37/6 31/38/6
f 34/39/1 33/40/1 24/41/1
f 41/42/2 39/43/2 38/44/2
f 44/45/10 42/46/10 41/47/10
f 46/48/4 44/49/4 12/50/4
f 49/51/1 48/52/1 47/53/1
f 52/54/2 51/55/2 8/56/2
f 40/57/6 54/58/6 18/59/6
f 55/60/4 35/61/4 37/62/4
f 8/63/9 9/64/9 6/65/9 7/66/9
f 51/67/11 49/68/11 4/69/11 3/70/11
f 22/71/9 23/72/9 24/73/9 25/74/9
f 22/71/9 19/35/9 20/75/9 21/76/9
f 12/77/9 13/33/9 10/78/9 11/79/9
f 5/80/8 28/81/8 27/82/8 6/83/8
f 25/74/9 6/65/9 9/64/9
f 16/34/9 17/84/9 18/85/9 19/35/9
f 33/86/12 27/87/12 28/88/12 32/89/12
f 25/74/9 9/64/9 10/78/9
f 22/71/9 25/74/9 19/35/9
f 30/90/13 34/91/14 37/92/14 35/93/15
f 33/94/5 32/95/5 26/96/5 25/97/5
f 27/36/6 29/98/6 30/37/6
f 31/38/6 7/99/6 27/36/6
f 7/99/6 6/100/6 27/36/6
f 43/101/10 44/45/10 41/47/10 45/102/10
f 33/86/12 29/103/12 27/87/12
f 1/30/3 4/29/3 49/104/3 10/105/3
f 34/39/1 30/106/1 33/40/1
f 30/106/1 29/107/1 33/40/1
f 33/40/1 25/108/1 24/41/1
f 39/109/16 35/110/15 40/111/17 38/112/17
f 35/93/15 36/113/18 30/90/13
f 48/114/19 39/115/16 46/116/20 47/117/20
f 39/109/16 36/118/18 35/110/15
f 41/42/2 42/119/2 39/43/2
f 38/44/2 17/120/2 41/42/2
f 17/120/2 16/121/2 41/42/2
f 25/74/9 26/122/9 5/123/9 6/65/9
f 15/10/5 45/9/5 41/124/5 16/125/5
f 46/48/4 39/126/4 44/49/4
f 39/126/4 42/127/4 44/49/4
f 44/49/4 13/128/4 12/50/4
f 30/129/13 48/130/19 52/131/21 31/132/21
f 48/114/19 36/133/18 39/115/16
f 47/53/1 11/134/1 49/51/1
f 11/134/1 10/135/1 49/51/1
f 49/51/1 50/136/1 48/52/1
f 54/137/3 57/20/3 20/19/3 19/138/3
f 55/139/22 56/140/22 57/141/22 54/142/22
f 51/67/11 50/143/11 49/68/11
f 52/54/2 48/144/2 51/55/2
f 48/144/2 50/145/2 51/55/2
f 51/55/2 9/146/2 8/56/2
f 30/129/13 36/147/18 48/130/19
f 21/148/7 56/149/7 55/150/7 22/151/7
f 19/35/9 25/74/9 10/78/9 13/33/9
f 40/57/6 35/152/6 54/58/6
f 35/152/6 53/153/6 54/58/6
f 54/58/6 19/154/6 18/59/6
f 37/62/4 23/155/4 55/60/4
f 23/155/4 22/156/4 55/60/4
f 55/60/4 53/157/4 35/61/4
f 44/158/8 43/12/8 14/11/8 13/159/8
f 51/160/7 3/161/7 2/162/7 9/163/7
f 1/164/9 10/78/9 9/64/9 2/165/9
f 54/142/22 53/166/22 55/139/22
f 15/167/9 16/34/9 13/33/9 14/168/9
