# Blender v2.79 (sub 0) OBJ File: ''
# www.blender.org
mtllib Flower_Yellow_02.mtl
o Mesh4_Flower_Yellow_Model.001
v -0.242963 -0.889123 0.000000
v -0.025407 -0.992224 0.000000
v -0.025407 -1.100000 -0.000000
v -0.204962 -1.100000 -0.000000
v 0.000000 -0.889123 -0.242963
v 0.000000 -0.992224 -0.025407
v 0.000000 -1.100000 -0.025407
v 0.000000 -1.100000 -0.204962
v 0.025407 -1.100000 0.025407
v 0.000000 -1.100000 0.025407
v -0.025407 -1.100000 0.025407
v -0.025407 -1.100000 -0.000000
v -0.025407 -1.100000 -0.025407
v 0.000000 -1.100000 -0.025407
v 0.025407 -1.100000 -0.025407
v 0.025407 -1.100000 -0.000000
v 0.025407 -0.817900 -0.025407
v 0.025407 -0.817900 0.025407
v -0.025407 -0.817900 0.025407
v -0.025407 -0.817900 -0.025407
v 0.103162 -0.817900 -0.103162
v -0.103163 -0.817900 -0.103162
v -0.103163 -0.817900 0.103163
v 0.103162 -0.817900 0.103163
v -0.145459 -0.700000 -0.145459
v 0.145459 -0.700000 -0.145459
v 0.145459 -0.700000 0.145459
v -0.145459 -0.700000 0.145459
v 0.000000 -1.100000 0.204962
v 0.000000 -1.100000 0.025407
v 0.000000 -0.992224 0.025407
v 0.000000 -0.889123 0.242963
v 0.204962 -1.100000 -0.000000
v 0.025407 -1.100000 -0.000000
v 0.025407 -0.992224 0.000000
v 0.242963 -0.889123 0.000000
v -0.242963 -0.889123 0.000000
v -0.025407 -0.992224 0.000000
v -0.025407 -1.100000 -0.000000
v -0.204962 -1.100000 -0.000000
v 0.000000 -0.889123 -0.242963
v 0.000000 -0.992224 -0.025407
v 0.000000 -1.100000 -0.025407
v 0.000000 -1.100000 -0.204962
v 0.000000 -1.100000 0.204962
v 0.000000 -1.100000 0.025407
v 0.000000 -0.992224 0.025407
v 0.000000 -0.889123 0.242963
v 0.204962 -1.100000 -0.000000
v 0.025407 -1.100000 -0.000000
v 0.025407 -0.992224 0.000000
v 0.242963 -0.889123 0.000000
vt 0.000000 0.095853
vt -0.098889 0.048989
vt -0.098889 0.000000
vt -0.017273 0.000000
vt 0.220875 0.095853
vt 0.121986 0.048989
vt 0.121986 -0.000000
vt 0.203602 -0.000000
vt -0.121986 0.098889
vt -0.110438 0.098889
vt -0.098889 0.098889
vt -0.098889 0.110438
vt -0.098889 0.121986
vt -0.110438 0.121986
vt -0.121986 0.121986
vt -0.121986 0.110438
vt 0.121986 0.128227
vt 0.098889 0.128227
vt 0.098889 0.000000
vt 0.110438 0.000000
vt 0.121986 0.000000
vt 0.121986 0.128227
vt 0.098889 0.128227
vt 0.098889 0.000000
vt 0.110438 0.000000
vt 0.121986 0.000000
vt -0.098889 0.128227
vt -0.121986 0.128227
vt -0.121986 0.000000
vt -0.110438 0.000000
vt -0.098889 0.000000
vt -0.098889 0.128227
vt -0.121986 0.128227
vt -0.121986 0.000000
vt -0.110438 0.000000
vt -0.098889 0.000000
vt 0.017273 0.000000
vt 0.098889 0.000000
vt 0.098889 0.048989
vt 0.000000 0.095853
vt -0.203602 0.000000
vt -0.121986 0.000000
vt -0.121986 0.048989
vt -0.220875 0.095853
vt 0.000000 0.095853
vt -0.017273 0.000000
vt -0.098889 0.000000
vt -0.098889 0.048989
vt 0.220875 0.095853
vt 0.203602 -0.000000
vt 0.121986 -0.000000
vt 0.121986 0.048989
vt 0.017273 0.000000
vt 0.000000 0.095853
vt 0.098889 0.048989
vt 0.098889 0.000000
vt -0.203602 0.000000
vt -0.220875 0.095853
vt -0.121986 0.048989
vt -0.121986 0.000000
vt -0.098889 0.121986
vt -0.157330 0.157330
vt -0.121986 0.121986
vt -0.063546 0.157330
vt -0.063546 0.063546
vt -0.098889 0.098889
vt -0.157330 0.063546
vt -0.121986 0.098889
vt -0.063546 0.173822
vt -0.044320 0.230757
vt -0.176555 0.230757
vt -0.157330 0.173822
vt 0.063546 0.173822
vt 0.157330 0.173822
vt 0.176555 0.230757
vt 0.044320 0.230757
vt 0.176555 0.044320
vt 0.176555 0.176555
vt 0.044320 0.176555
vt 0.044320 0.044320
vt -0.044320 0.156173
vt -0.176555 0.156173
vt -0.157330 0.099238
vt -0.063546 0.099238
vt 0.157330 0.099238
vt 0.176555 0.156173
vt 0.044320 0.156173
vt 0.063546 0.099238
vn -0.0000 0.0000 -1.0000
vn 1.0000 0.0000 0.0000
vn 0.0000 -1.0000 0.0000
vn 0.0000 -0.0000 1.0000
vn -1.0000 0.0000 0.0000
vn 0.0000 -0.3377 -0.9413
vn 0.9413 -0.3377 0.0000
vn 0.0000 1.0000 0.0000
vn -0.9413 -0.3377 0.0000
vn 0.0000 -0.3377 0.9413
usemtl Green_leafs.005
s 1
f 1/1/1 2/2/1 3/3/1 4/4/1
f 5/5/2 6/6/2 7/7/2 8/8/2
f 9/9/3 10/10/3 11/11/3 12/12/3 13/13/3 14/14/3 15/15/3 16/16/3
f 17/17/2 18/18/2 9/19/2 16/20/2 15/21/2
f 18/22/4 19/23/4 11/24/4 10/25/4 9/26/4
f 19/27/5 20/28/5 13/29/5 12/30/5 11/31/5
f 20/32/1 17/33/1 15/34/1 14/35/1 13/36/1
f 29/37/2 30/38/2 31/39/2 32/40/2
f 33/41/1 34/42/1 35/43/1 36/44/1
f 37/45/4 40/46/4 39/47/4 38/48/4
f 41/49/5 44/50/5 43/51/5 42/52/5
f 45/53/5 48/54/5 47/55/5 46/56/5
f 49/57/4 52/58/4 51/59/4 50/60/4
usemtl Light_Wood.003
f 20/61/3 21/62/3 17/63/3
f 20/61/3 22/64/3 21/62/3
f 22/64/3 20/61/3 23/65/3
f 19/66/3 23/65/3 20/61/3
f 23/65/3 19/66/3 24/67/3
f 24/67/3 19/66/3 18/68/3
f 24/67/3 18/68/3 21/62/3
f 17/63/3 21/62/3 18/68/3
f 22/69/6 25/70/6 26/71/6 21/72/6
f 24/73/7 21/74/7 26/75/7 27/76/7
f 27/77/8 26/78/8 25/79/8 28/80/8
f 28/81/9 25/82/9 22/83/9 23/84/9
f 24/85/10 27/86/10 28/87/10 23/88/10
