# Blender v2.79 (sub 0) OBJ File: ''
# www.blender.org
mtllib Mushroom_Brown_01.mtl
o Mesh1_Mushroom_Brown_Model
v -0.217459 -0.894665 0.125550
v 0.000000 -0.746516 0.000000
v -0.217459 -0.894665 -0.125550
v 0.000000 -0.894665 0.251100
v 0.217459 -0.894665 0.125550
v 0.217459 -0.894665 -0.125550
v 0.080972 -0.894665 0.091270
v -0.076411 -0.894665 0.091270
v -0.076411 -0.894665 -0.066113
v 0.000000 -0.894665 -0.251100
v 0.080972 -0.894665 -0.066113
v -0.115169 -1.100000 -0.104872
v 0.119731 -1.100000 -0.104872
v -0.115169 -1.100000 0.130028
v 0.119731 -1.100000 0.130028
vt -0.057068 0.052550
vt -0.114136 0.172154
vt -0.171205 0.052550
vt 0.085602 0.093394
vt 0.028534 0.212998
vt -0.028534 0.093394
vt 0.199739 0.011705
vt 0.142670 0.131309
vt 0.085602 0.011705
vt 0.114136 0.008775
vt 0.057068 -0.110828
vt 0.171205 -0.110828
vt -0.197690 0.057068
vt -0.135651 0.072650
vt -0.197690 0.171205
vt -0.098845 0.000000
vt -0.064113 0.072650
vt 0.000000 0.057068
vt -0.064113 0.144188
vt -0.098845 0.228273
vt 0.000000 0.171205
vt -0.085602 -0.069984
vt -0.142670 0.049620
vt -0.199739 -0.069984
vt 0.028534 -0.151673
vt -0.028534 -0.032069
vt -0.085602 -0.151673
vt -0.135651 0.144188
vt -4.027150 -2.599460
vt -5.553080 5.627350
vt -11.749300 5.627350
vt -13.275200 -2.599460
vt -6.292520 8.973770
vt -12.488700 8.973770
vt -14.014600 0.746965
vt -4.766600 0.746965
vt 4.766600 -2.462310
vt 14.014600 -2.462310
vt 12.488700 5.764500
vt 6.292520 5.764500
vt -13.275200 14.014600
vt -13.275200 4.766600
vt -4.027150 4.766600
vt -4.027150 14.014600
vt 13.275200 0.884118
vt 11.749300 9.110930
vt 5.553080 9.110930
vt 4.027150 0.884118
vn -0.5630 0.8264 0.0000
vn -0.2815 0.8264 0.4876
vn 0.2815 0.8264 0.4876
vn 0.5630 0.8264 0.0000
vn 0.0000 -1.0000 -0.0000
vn -0.2815 0.8264 -0.4876
vn 0.2815 0.8264 -0.4876
vn 0.0000 0.1855 -0.9826
vn -0.9826 0.1855 0.0000
vn 0.9826 0.1855 0.0000
vn 0.0000 0.1855 0.9826
usemtl Wood.002
s 1
f 1/1/1 2/2/1 3/3/1
f 4/4/2 2/5/2 1/6/2
f 5/7/3 2/8/3 4/9/3
f 2/10/4 5/11/4 6/12/4
f 5/13/5 7/14/5 6/15/5
f 4/16/5 7/14/5 5/13/5
f 4/16/5 8/17/5 7/14/5
f 1/18/5 8/17/5 4/16/5
f 8/17/5 1/18/5 9/19/5
f 1/18/5 10/20/5 9/19/5
f 10/20/5 1/18/5 3/21/5
f 3/22/6 2/23/6 10/24/6
f 10/25/7 2/26/7 6/27/7
f 11/28/5 10/20/5 6/15/5
f 9/19/5 10/20/5 11/28/5
f 11/28/5 7/14/5 8/17/5 9/19/5
f 11/28/5 6/15/5 7/14/5
usemtl FrontColor
f 12/29/8 9/30/8 11/31/8 13/32/8
f 8/33/9 9/34/9 12/35/9 14/36/9
f 15/37/10 13/38/10 11/39/10 7/40/10
f 13/41/5 15/42/5 14/43/5 12/44/5
f 15/45/11 7/46/11 8/47/11 14/48/11
