# Blender v2.79 (sub 0) OBJ File: ''
# www.blender.org
mtllib Plant_03.mtl
o Mesh1_Plant_3_Model
v 0.179574 -1.001400 0.175580
v 0.287158 -0.542196 0.175580
v 0.287158 -0.542196 -0.184420
v 0.179574 -1.001400 -0.184420
v 0.483828 -0.403919 -0.114220
v 0.483828 -0.403919 0.105380
v 0.667055 -0.555973 -0.004420
v 0.089574 -1.100000 0.085580
v 0.089574 -1.100000 -0.094420
v -0.090426 -1.100000 -0.094420
v -0.180426 -1.001400 -0.184420
v -0.090426 -1.100000 0.085580
v -0.180426 -1.001400 0.175580
v -0.180426 -0.737243 0.270513
v 0.179574 -0.737243 0.270513
v 0.109374 -0.611680 0.385516
v -0.110226 -0.611680 0.385516
v -0.000426 -0.745169 0.511943
v -0.235728 -0.644431 -0.184420
v -0.235728 -0.644431 0.175580
v -0.369064 -0.534751 0.105380
v -0.369064 -0.534751 -0.114220
v -0.482665 -0.655141 -0.004420
v 0.189574 -0.712255 -0.265862
v -0.170426 -0.712255 -0.265862
v -0.110226 -0.574815 -0.430866
v 0.109374 -0.574815 -0.430866
v -0.000426 -0.720931 -0.579277
v 0.179574 -1.001400 0.175580
v 0.287158 -0.542196 0.175580
v 0.287158 -0.542196 -0.184420
v 0.179574 -1.001400 -0.184420
v 0.483828 -0.403919 -0.114220
v 0.483828 -0.403919 0.105380
v 0.667055 -0.555973 -0.004420
v 0.089574 -1.100000 0.085580
v 0.089574 -1.100000 -0.094420
v -0.090426 -1.100000 -0.094420
v -0.180426 -1.001400 -0.184420
v -0.090426 -1.100000 0.085580
v -0.180426 -1.001400 0.175580
v -0.180426 -0.737243 0.270513
v 0.179574 -0.737243 0.270513
v 0.109374 -0.611680 0.385516
v -0.110226 -0.611680 0.385516
v -0.000426 -0.745169 0.511943
v -0.235728 -0.644431 -0.184420
v -0.235728 -0.644431 0.175580
v -0.369064 -0.534751 0.105380
v -0.369064 -0.534751 -0.114220
v -0.482665 -0.655141 -0.004420
v 0.189574 -0.712255 -0.265862
v -0.170426 -0.712255 -0.265862
v -0.110226 -0.574815 -0.430866
v 0.109374 -0.574815 -0.430866
v -0.000426 -0.720931 -0.579277
vt -0.152892 0.112301
vt -0.152892 0.326682
vt -0.316528 0.326682
vt -0.316528 0.112301
vt -0.284619 0.541359
vt -0.316528 0.432079
vt -0.152892 0.432079
vt -0.184801 0.541359
vt 0.184801 -0.136011
vt 0.234710 -0.244240
vt 0.284619 -0.136011
vt 0.152892 0.236037
vt 0.316528 0.236037
vt 0.275619 0.175355
vt 0.193801 0.175355
vt -0.301018 0.246494
vt -0.137381 0.246494
vt -0.178290 0.185812
vt -0.260109 0.185812
vt -0.316528 -0.059515
vt -0.152892 -0.059515
vt -0.193801 -0.120197
vt -0.275619 -0.120197
vt 0.137381 -0.069972
vt 0.301018 -0.069972
vt 0.260109 -0.130654
vt 0.178290 -0.130654
vt -0.260109 0.275619
vt -0.178290 0.275619
vt -0.178290 0.193801
vt -0.260109 0.193801
vt -0.137381 -0.009531
vt -0.137381 0.118058
vt -0.301018 0.118058
vt -0.301018 -0.009531
vt -0.269109 0.124870
vt -0.301018 0.047475
vt -0.137381 0.047475
vt -0.169290 0.124870
vt 0.169290 0.200673
vt 0.219199 0.117103
vt 0.269109 0.200673
vt 0.316528 0.023257
vt 0.316528 0.187452
vt 0.152892 0.187452
vt 0.152892 0.023257
vt 0.184801 0.123343
vt 0.152892 0.044865
vt 0.316528 0.044865
vt 0.284619 0.123343
vt -0.284619 0.222309
vt -0.234710 0.147070
vt -0.184801 0.222309
vt 0.301018 0.128956
vt 0.305563 0.265500
vt 0.141927 0.265500
vt 0.137381 0.128956
vt 0.169290 0.482066
vt 0.141927 0.384454
vt 0.305563 0.384454
vt 0.269109 0.482066
vt -0.269109 -0.137906
vt -0.219199 -0.232575
vt -0.169290 -0.137906
vt -0.152892 0.112301
vt -0.316528 0.112301
vt -0.316528 0.326682
vt -0.152892 0.326682
vt -0.284619 0.541359
vt -0.184801 0.541359
vt -0.152892 0.432079
vt -0.316528 0.432079
vt 0.184801 -0.136011
vt 0.284619 -0.136011
vt 0.234710 -0.244240
vt 0.152892 0.236037
vt 0.193801 0.175355
vt 0.275619 0.175355
vt 0.316528 0.236037
vt -0.301018 0.246494
vt -0.260109 0.185812
vt -0.178290 0.185812
vt -0.137381 0.246494
vt -0.316528 -0.059515
vt -0.275619 -0.120197
vt -0.193801 -0.120197
vt -0.152892 -0.059515
vt 0.137381 -0.069972
vt 0.178290 -0.130654
vt 0.260109 -0.130654
vt 0.301018 -0.069972
vt -0.260109 0.275619
vt -0.260109 0.193801
vt -0.178290 0.193801
vt -0.178290 0.275619
vt -0.137381 -0.009531
vt -0.301018 -0.009531
vt -0.301018 0.118058
vt -0.137381 0.118058
vt -0.269109 0.124870
vt -0.169290 0.124870
vt -0.137381 0.047475
vt -0.301018 0.047475
vt 0.169290 0.200673
vt 0.269109 0.200673
vt 0.219199 0.117103
vt 0.316528 0.023257
vt 0.152892 0.023257
vt 0.152892 0.187452
vt 0.316528 0.187452
vt 0.184801 0.123343
vt 0.284619 0.123343
vt 0.316528 0.044865
vt 0.152892 0.044865
vt -0.284619 0.222309
vt -0.184801 0.222309
vt -0.234710 0.147070
vt 0.301018 0.128956
vt 0.137381 0.128956
vt 0.141927 0.265500
vt 0.305563 0.265500
vt 0.169290 0.482066
vt 0.269109 0.482066
vt 0.305563 0.384454
vt 0.141927 0.384454
vt -0.269109 -0.137906
vt -0.169290 -0.137906
vt -0.219199 -0.232575
vn -0.9113 0.4118 0.0000
vn -0.9736 0.2281 0.0000
vn -0.5752 0.8180 0.0000
vn 0.6386 0.7695 0.0000
vn -0.7386 0.6742 0.0000
vn 0.0000 0.4348 0.9006
vn 0.0000 0.4390 0.8985
vn 0.0000 0.6742 0.7386
vn 0.9299 0.3678 0.0000
vn 0.7386 0.6742 0.0000
vn 0.0000 0.4758 -0.8795
vn 0.0000 0.6742 -0.7386
vn 0.0000 1.0000 0.0000
vn 0.0000 0.3382 -0.9411
vn 0.0000 0.6754 -0.7374
vn 0.0000 0.6876 0.7261
vn 0.9882 0.1531 0.0000
vn 0.6353 0.7723 0.0000
vn -0.7273 0.6863 0.0000
vn 0.0000 0.2711 0.9625
vn 0.0000 0.7684 0.6400
vn 0.0000 0.7126 -0.7016
vn 0.9113 -0.4118 0.0000
vn 0.9736 -0.2281 0.0000
vn 0.5752 -0.8180 0.0000
vn -0.6386 -0.7695 0.0000
vn 0.7386 -0.6742 0.0000
vn 0.0000 -0.4348 -0.9006
vn 0.0000 -0.6742 -0.7386
vn 0.0000 -0.4390 -0.8985
vn -0.9299 -0.3678 0.0000
vn -0.7386 -0.6742 0.0000
vn 0.0000 -0.4758 0.8795
vn 0.0000 -0.6742 0.7386
vn 0.0000 -1.0000 0.0000
vn 0.0000 -0.3382 0.9411
vn 0.0000 -0.6754 0.7374
vn 0.0000 -0.6876 -0.7261
vn -0.9882 -0.1531 0.0000
vn -0.6353 -0.7723 0.0000
vn 0.7273 -0.6863 0.0000
vn 0.0000 -0.2711 -0.9625
vn 0.0000 -0.7684 -0.6400
vn 0.0000 -0.7126 0.7016
usemtl Green_leafs.010
s 1
f 1/1/1 2/2/2 3/3/2 4/4/1
f 5/5/3 3/6/3 2/7/3 6/8/3
f 6/9/4 7/10/4 5/11/4
f 1/12/1 4/13/1 9/14/5 8/15/5
f 4/16/6 11/17/7 10/18/8 9/19/8
f 11/20/9 13/21/9 12/22/10 10/23/10
f 13/24/11 1/25/11 8/26/12 12/27/12
f 9/28/13 10/29/13 12/30/13 8/31/13
f 13/32/11 14/33/14 15/34/14 1/35/11
f 16/36/15 15/37/15 14/38/15 17/39/15
f 17/40/16 18/41/16 16/42/16
f 11/43/9 19/44/17 20/45/17 13/46/9
f 21/47/18 20/48/18 19/49/18 22/50/18
f 22/51/19 23/52/19 21/53/19
f 4/54/6 24/55/20 25/56/20 11/57/7
f 26/58/21 25/59/21 24/60/21 27/61/21
f 27/62/22 28/63/22 26/64/22
f 29/65/23 32/66/23 31/67/24 30/68/24
f 33/69/25 34/70/25 30/71/25 31/72/25
f 34/73/26 33/74/26 35/75/26
f 29/76/23 36/77/27 37/78/27 32/79/23
f 32/80/28 37/81/29 38/82/29 39/83/30
f 39/84/31 38/85/32 40/86/32 41/87/31
f 41/88/33 40/89/34 36/90/34 29/91/33
f 37/92/35 36/93/35 40/94/35 38/95/35
f 41/96/33 29/97/33 43/98/36 42/99/36
f 44/100/37 45/101/37 42/102/37 43/103/37
f 45/104/38 44/105/38 46/106/38
f 39/107/31 41/108/31 48/109/39 47/110/39
f 49/111/40 50/112/40 47/113/40 48/114/40
f 50/115/41 49/116/41 51/117/41
f 32/118/28 39/119/30 53/120/42 52/121/42
f 54/122/43 55/123/43 52/124/43 53/125/43
f 55/126/44 54/127/44 56/128/44
