# Blender v2.79 (sub 0) OBJ File: ''
# www.blender.org
mtllib Rock_01.mtl
o Mesh1_Rock_1_Model
v -0.377600 -0.460000 0.000000
v -0.188800 -0.460000 0.327011
v 0.188800 -0.460000 0.327011
v 0.377600 -0.460000 0.000000
v 0.188800 -0.460000 -0.327011
v -0.188800 -0.460000 -0.327011
v -0.590000 -1.100000 0.000000
v -0.295000 -1.100000 0.510955
v -0.295000 -1.100000 -0.510955
v 0.295000 -1.100000 -0.510955
v 0.590000 -1.100000 0.000000
v 0.295000 -1.100000 0.510955
vt 0.439818 0.232252
vt 0.354000 0.380894
vt 0.182364 0.380894
vt 0.018773 0.334764
vt -0.152864 0.334764
vt -0.201136 0.032077
vt 0.067046 0.032077
vt -0.249409 0.270609
vt -0.421045 0.270609
vt -0.469318 -0.032077
vt -0.201136 -0.032077
vt -0.134091 -0.128310
vt -0.182364 0.174376
vt -0.354000 0.174376
vt -0.402273 -0.128310
vt -0.067046 -0.160387
vt 0.201136 -0.160387
vt 0.152864 0.142299
vt -0.018773 0.142299
vt 0.201136 -0.096232
vt 0.469318 -0.096232
vt 0.421045 0.206454
vt 0.249409 0.206454
vt 0.402273 0.000000
vt 0.354000 0.302686
vt 0.182364 0.302686
vt 0.134091 0.000000
vt 0.096546 0.232252
vt 0.182364 0.083611
vt -0.402273 0.000000
vt -0.134091 0.000000
vt 0.000000 0.232252
vt -0.134091 0.464505
vt -0.402273 0.464505
vt 0.354000 0.083611
vt -0.536364 0.232252
vn 0.0000 1.0000 0.0000
vn -0.8323 0.2762 0.4805
vn -0.8323 0.2762 -0.4805
vn 0.0000 0.2762 -0.9611
vn 0.8323 0.2762 -0.4805
vn 0.8323 0.2762 0.4805
vn 0.0000 0.2762 0.9611
vn 0.0000 -1.0000 -0.0000
usemtl Stone
s 1
f 4/1/1 5/2/1 6/3/1
f 2/4/2 1/5/2 7/6/2 8/7/2
f 1/8/3 6/9/3 9/10/3 7/11/3
f 9/12/4 6/13/4 5/14/4 10/15/4
f 11/16/5 10/17/5 5/18/5 4/19/5
f 12/20/6 11/21/6 4/22/6 3/23/6
f 12/24/7 3/25/7 2/26/7 8/27/7
f 6/3/1 1/28/1 2/29/1
f 12/30/8 8/31/8 7/32/8
f 7/32/8 9/33/8 10/34/8
f 3/35/1 4/1/1 6/3/1 2/29/1
f 11/36/8 12/30/8 7/32/8 10/34/8
