# Blender v2.79 (sub 0) OBJ File: ''
# www.blender.org
mtllib Rock_05.mtl
o Mesh1_Rock_5_Model
v 0.235281 -0.610000 0.088829
v -0.009834 -0.610000 -0.235281
v -0.090816 -0.610000 -0.235281
v -0.235281 -0.610000 0.061084
v -0.235281 -0.610000 0.121280
v 0.159335 -0.610000 0.235281
v 0.235281 -0.610000 0.235281
v 0.500000 -1.100000 0.000000
v 0.121864 -1.100000 -0.500000
v -0.500000 -1.100000 0.000000
v -0.256272 -1.100000 -0.500000
v 0.500000 -1.100000 0.500000
v 0.121864 -1.100000 0.500000
v -0.500000 -1.100000 0.320350
vt -0.092910 -0.237483
vt 0.192039 -0.237483
vt 0.132176 0.015670
vt -0.052533 0.015670
vt -0.454545 0.227273
vt -0.454545 0.000000
vt -0.282665 0.000000
vt -0.457130 -0.047334
vt -0.204294 -0.047334
vt -0.232059 0.205818
vt -0.381923 0.205818
vt -0.227273 -0.000000
vt -0.081659 -0.000000
vt -0.172145 0.253152
vt -0.199507 0.253152
vt -0.022664 0.037289
vt 0.271561 0.037289
vt 0.254528 0.290441
vt 0.067823 0.290441
vt 0.282665 0.000000
vt 0.454545 0.000000
vt 0.334218 0.253152
vt 0.299698 0.253152
vt 0.000000 -0.216052
vt 0.227273 -0.216052
vt 0.186896 0.037100
vt 0.120327 0.037100
vt -0.282665 -0.216052
vt -0.110785 -0.216052
vt -0.185993 0.037100
vt -0.222803 0.037100
vt 0.334218 0.120327
vt 0.334218 0.186896
vt 0.299698 0.120327
vt 0.000000 0.081659
vt 0.000000 0.227273
vt 0.222803 0.334218
vt 0.185993 0.334218
vt 0.120327 0.199507
vt -0.110785 0.454545
vt -0.282665 0.454545
vt 0.120327 0.172145
vn 0.7017 0.4753 -0.5307
vn 0.0000 -1.0000 0.0000
vn -0.7909 0.4753 -0.3855
vn -0.8798 0.4753 0.0000
vn -0.2442 0.4753 0.8453
vn -0.1230 0.4790 0.8692
vn 0.0000 0.4753 0.8798
vn 0.8798 0.4753 0.0000
vn 0.0000 0.4753 -0.8798
vn 0.0000 1.0000 0.0000
usemtl Stone.004
s 1
f 8/1/1 9/2/1 2/3/1 1/4/1
f 8/5/2 12/6/2 13/7/2
f 11/8/3 10/9/3 4/10/3 3/11/3
f 10/12/4 14/13/4 5/14/4 4/15/4
f 14/16/5 13/17/6 6/18/6 5/19/5
f 13/20/6 12/21/7 7/22/7 6/23/6
f 12/24/8 8/25/8 1/26/8 7/27/8
f 9/28/9 11/29/9 3/30/9 2/31/9
f 7/32/10 1/33/10 6/34/10
f 14/35/2 10/36/2 13/7/2
f 2/37/10 3/38/10 4/39/10 1/33/10
f 10/36/2 11/40/2 9/41/2
f 4/39/10 5/42/10 6/34/10 1/33/10
f 9/41/2 8/5/2 13/7/2 10/36/2
