# Blender v2.79 (sub 0) OBJ File: ''
# www.blender.org
mtllib Rock_03.mtl
o Mesh1_Rock_3_Model
v -0.226528 -0.420000 0.000001
v -0.113264 -0.420000 -0.196179
v -0.139832 -0.780000 -0.242197
v -0.279664 -0.780000 0.000001
v 0.113264 -0.420000 -0.196179
v -0.113264 -0.420000 0.196180
v 0.113264 -0.420000 0.196180
v 0.226528 -0.420000 0.000001
v 0.139832 -0.780000 -0.242197
v 0.279664 -0.780000 0.000001
v 0.196000 -0.780000 -0.339481
v -0.196000 -0.780000 -0.339481
v -0.392000 -0.780000 0.000001
v -0.245000 -1.100000 -0.424352
v -0.490000 -1.100000 0.000001
v 0.245000 -1.100000 -0.424352
v 0.490000 -1.100000 0.000001
v 0.392000 -0.780000 0.000001
v -0.245000 -1.100000 0.424352
v 0.245000 -1.100000 0.424352
v -0.196000 -0.780000 0.339482
v -0.139832 -0.780000 0.242197
v 0.196000 -0.780000 0.339482
v 0.139832 -0.780000 0.242197
vt -0.226925 0.307518
vt -0.329893 0.307518
vt -0.341969 0.142550
vt -0.214849 0.142550
vt 0.171244 0.103715
vt 0.274211 0.103715
vt 0.325695 0.192887
vt -0.159167 0.105865
vt -0.171244 0.270833
vt -0.274211 0.270833
vt -0.286287 0.105865
vt -0.007878 0.093636
vt 0.119242 0.093636
vt 0.107166 0.258604
vt 0.004198 0.258604
vt 0.133636 0.347197
vt 0.159167 0.302977
vt 0.286287 0.302977
vt 0.311818 0.347197
vt 0.133636 0.038578
vt 0.159167 0.082798
vt 0.095607 0.192887
vt 0.044546 0.192887
vt -0.189318 0.125759
vt -0.367500 0.125759
vt -0.389773 -0.024724
vt -0.167045 -0.024724
vt -0.111364 -0.098896
vt -0.133636 0.051587
vt -0.311818 0.051587
vt -0.334091 -0.098896
vt -0.055682 -0.123620
vt 0.167045 -0.123620
vt 0.144773 0.026863
vt -0.033409 0.026863
vt 0.033409 0.175207
vt -0.144773 0.175207
vt -0.167045 0.024724
vt 0.055682 0.024724
vt 0.286287 0.082798
vt 0.311818 0.038578
vt 0.400909 0.192887
vt 0.349847 0.192887
vt 0.334091 0.000000
vt 0.311818 0.150483
vt 0.133636 0.150483
vt 0.111364 0.000000
vt 0.167045 -0.074172
vt 0.389773 -0.074172
vt 0.367500 0.076311
vt 0.189318 0.076311
vt 0.286287 0.154779
vt 0.274211 0.319747
vt 0.171244 0.319747
vt 0.159167 0.154779
vt 0.214849 0.118093
vt 0.341969 0.118093
vt 0.329893 0.283061
vt 0.226925 0.283061
vt -0.004198 0.331975
vt -0.107166 0.331975
vt -0.119242 0.167007
vt 0.007878 0.167007
vt -0.334091 0.000000
vt -0.111364 0.000000
vt 0.000000 0.192887
vt -0.111364 0.385775
vt -0.334091 0.385775
vt 0.274211 0.282060
vt 0.171244 0.282060
vt -0.445455 0.192887
vt 0.119760 0.192887
vn -0.8590 0.1268 -0.4960
vn 0.0000 1.0000 0.0000
vn 0.0000 0.1268 -0.9919
vn 0.8590 0.1268 -0.4960
vn -0.8371 0.2564 -0.4833
vn 0.0000 0.2564 -0.9666
vn 0.8371 0.2564 -0.4833
vn -0.8371 0.2564 0.4833
vn 0.0000 0.2564 0.9666
vn 0.8371 0.2564 0.4833
vn 0.0000 0.1268 0.9919
vn 0.8590 0.1268 0.4960
vn -0.8590 0.1268 0.4960
vn 0.0000 -1.0000 0.0000
usemtl Stone.002
s 1
f 1/1/1 2/2/1 3/3/1 4/4/1
f 6/5/2 7/6/2 8/7/2
f 3/8/3 2/9/3 5/10/3 9/11/3
f 10/12/4 9/13/4 5/14/4 8/15/4
f 12/16/2 3/17/2 9/18/2 11/19/2
f 21/20/2 22/21/2 4/22/2 13/23/2
f 13/24/5 12/25/5 14/26/5 15/27/5
f 14/28/6 12/29/6 11/30/6 16/31/6
f 17/32/7 16/33/7 11/34/7 18/35/7
f 12/16/2 13/23/2 4/22/2 3/17/2
f 21/36/8 13/37/8 15/38/8 19/39/8
f 24/40/2 23/41/2 18/42/2 10/43/2
f 10/43/2 18/42/2 11/19/2 9/18/2
f 20/44/9 23/45/9 21/46/9 19/47/9
f 20/48/10 17/49/10 18/50/10 23/51/10
f 23/41/2 24/40/2 22/21/2 21/20/2
f 24/52/11 7/53/11 6/54/11 22/55/11
f 24/56/12 10/57/12 8/58/12 7/59/12
f 6/60/13 1/61/13 4/62/13 22/63/13
f 20/64/14 19/65/14 15/66/14
f 15/66/14 14/67/14 16/68/14
f 8/7/2 5/69/2 2/70/2
f 17/71/14 20/64/14 15/66/14 16/68/14
f 1/72/2 6/5/2 8/7/2 2/70/2
