# Blender v2.79 (sub 0) OBJ File: ''
# www.blender.org
mtllib Rock_04.mtl
o Mesh1_Rock_4_Model
v -0.500000 -1.100000 0.000000
v -0.353285 -1.100000 0.500000
v -0.145477 -0.570000 0.222453
v -0.187325 -0.570000 0.079835
v 0.500000 -1.100000 -0.141226
v 0.316846 -1.100000 0.500000
v 0.000000 -1.100000 -0.500000
v 0.179474 -0.570000 -0.029614
v 0.107476 -0.570000 0.222453
v 0.029638 -0.570000 -0.137128
vt -0.218078 0.029686
vt 0.018777 0.029686
vt -0.075681 0.301629
vt -0.143241 0.301629
vt -0.371294 0.000000
vt -0.066689 0.000000
vt 0.000000 0.227273
vt 0.101975 -0.165624
vt 0.405097 -0.165624
vt 0.316301 0.106319
vt 0.197143 0.106319
vt -0.199386 -0.232794
vt 0.080342 -0.232794
vt -0.026763 0.039149
vt -0.110589 0.039149
vt -0.482118 -0.074553
vt -0.160706 -0.074553
vt -0.235543 0.197389
vt -0.375013 0.197389
vt 0.066689 -0.000000
vt 0.371294 -0.000000
vt 0.276125 0.271943
vt 0.161147 0.271943
vt 0.308852 0.240734
vt 0.240745 0.289604
vt 0.142125 0.190984
vt 0.276125 0.126158
vt 0.161147 0.126158
vt -0.454545 0.291466
vt -0.227273 0.454545
vn -0.8500 0.4639 0.2494
vn 0.0000 -1.0000 -0.0000
vn 0.8518 0.4639 0.2433
vn 0.5165 0.4639 -0.7198
vn -0.6264 0.4639 -0.6264
vn 0.0000 0.4639 0.8859
vn 0.0000 1.0000 0.0000
usemtl Stone.003
s 1
f 1/1/1 2/2/1 3/3/1 4/4/1
f 6/5/2 2/6/2 1/7/2
f 6/8/3 5/9/3 8/10/3 9/11/3
f 5/12/4 7/13/4 10/14/4 8/15/4
f 7/16/5 1/17/5 4/18/5 10/19/5
f 2/20/6 6/21/6 9/22/6 3/23/6
f 8/24/7 10/25/7 4/26/7 9/27/7
f 4/26/7 3/28/7 9/27/7
f 5/29/2 6/5/2 1/7/2 7/30/2
