# Blender v2.79 (sub 0) OBJ File: ''
# www.blender.org
mtllib Tall_Rock_01.mtl
o Mesh1_Tall_Rock_1_Model
v 0.355090 0.490000 0.245128
v 0.355090 0.490000 0.040116
v -0.076637 0.490000 -0.101308
v -0.355094 0.490000 0.040116
v -0.355094 0.490000 0.245128
v -0.000002 0.490000 0.450141
v 0.461160 -0.360000 0.266250
v 0.461160 -0.360000 0.000000
v 0.614880 -1.100000 0.355000
v 0.614880 -1.100000 -0.355000
v 0.461160 -0.360000 -0.266250
v -0.000002 -1.100000 0.710000
v -0.000002 -1.100000 -0.710000
v -0.614880 -1.100000 -0.355000
v -0.614880 -1.100000 0.355000
v -0.000002 -0.360000 0.532500
v -0.461160 -0.360000 0.266250
v -0.461160 -0.360000 0.000000
v -0.099527 -0.360000 -0.183667
v -0.461160 -0.360000 -0.266250
v -0.000002 -0.360000 -0.532500
vt 41.929100 -9.847110
vt 38.435001 19.908701
vt 27.952801 19.908701
vt 0.279490 0.645455
vt 0.000000 0.484091
vt 0.000000 0.161364
vt 13.976400 -9.847110
vt 17.470501 19.908701
vt 38.187801 18.302000
vt 38.187801 26.373400
vt 21.190701 31.941200
vt 10.227800 26.373400
vt 10.227800 18.302000
vt -17.470501 29.659000
vt -18.302000 63.383099
vt -26.373400 63.383099
vt -27.952801 29.659000
vt -27.952801 29.755800
vt -41.929100 -0.000000
vt -13.976400 -0.000000
vt -17.470501 29.755800
vt 24.207800 10.230700
vt 0.558980 0.161364
vt 0.558980 0.484091
vt -3.494090 32.217602
vt -6.988190 2.461780
vt 20.964600 2.461780
vt 17.470501 32.217602
vt -28.080299 59.298500
vt -31.556999 25.716900
vt -8.328640 25.716900
vt -10.194500 59.298500
vt 24.458700 28.525801
vt 45.423199 28.525801
vt 42.222599 62.108002
vt 26.079901 62.108002
vt -34.022202 26.816999
vt -18.053699 26.816999
vt -21.061701 60.443802
vt -33.357399 60.443802
vt -0.293488 64.132202
vt -3.494090 30.549999
vt 17.470501 30.549999
vt 15.849200 64.132202
vt -17.470501 17.446899
vt -20.964600 -12.308900
vt 6.988190 -12.308900
vt 3.494090 17.446899
vt 24.207800 48.917301
vt 6.051950 38.435001
vt 20.289499 35.183701
vt 6.051950 27.952801
vt 42.363602 38.435001
vt 42.363602 27.952801
vt -38.435001 29.755800
vt 20.964600 -2.461780
vt 48.917301 -2.461780
vt 45.423199 27.294001
vt 24.458700 27.294001
vt -45.423199 22.370501
vt -48.917301 -7.385330
vt -20.964600 -7.385330
vt -24.458700 22.370501
vt 0.279490 0.000000
vt 26.373400 57.388100
vt 18.302000 57.388100
vt 17.470501 23.664000
vt 27.952801 23.664000
vn 0.9791 0.2034 0.0000
vn 0.9865 0.1638 -0.0000
vn 0.0000 1.0000 -0.0000
vn -0.9865 0.1638 0.0000
vn -0.9923 0.1238 0.0000
vn -0.9791 0.2034 0.0000
vn -0.4948 0.1438 0.8570
vn -0.4895 0.2034 0.8479
vn 0.3102 0.0834 -0.9470
vn 0.4948 0.1438 0.8570
vn 0.4982 0.0836 0.8630
vn -0.4506 0.0981 -0.8873
vn -0.4982 0.0836 0.8630
vn 0.4895 0.2034 -0.8479
vn 0.4895 0.2034 0.8479
vn -0.4895 0.2034 -0.8479
vn 0.9923 0.1238 0.0000
usemtl Stone.006
s 1
f 10/1/1 11/2/1 8/3/2
f 13/4/3 14/5/3 15/6/3
f 9/7/1 10/1/1 8/3/2 7/8/2
f 1/9/3 2/10/3 3/11/3
f 3/11/3 4/12/3 5/13/3
f 17/14/4 5/15/5 4/16/5 18/17/4
f 18/18/4 14/19/6 15/20/6 17/21/4
f 3/11/3 5/13/3 6/22/3 1/9/3
f 9/23/3 10/24/3 13/4/3
f 17/25/7 15/26/8 12/27/8 16/28/7
f 2/29/9 8/30/9 19/31/9 3/32/9
f 16/33/10 7/34/10 1/35/11 6/36/11
f 19/37/12 18/38/12 4/39/12 3/40/12
f 5/41/13 17/42/7 16/43/7 6/44/13
f 11/45/14 10/46/14 13/47/14 21/48/14
f 21/49/3 20/50/3 19/51/3
f 20/50/3 18/52/3 19/51/3
f 11/53/3 21/49/3 19/51/3 8/54/3
f 18/18/4 20/55/6 14/19/6
f 12/56/15 9/57/15 7/58/10 16/59/10
f 21/60/16 13/61/16 14/62/16 20/63/16
f 12/64/3 9/23/3 13/4/3 15/6/3
f 2/65/17 1/66/17 7/67/2 8/68/2
