# Blender v2.79 (sub 0) OBJ File: ''
# www.blender.org
mtllib Tall_Rock_02.mtl
o Mesh1_Tall_Rock_2_Model
v 0.588895 -1.100000 0.340000
v 0.000002 -1.100000 0.680000
v -0.588895 -1.100000 0.340000
v -0.588895 -1.100000 -0.340000
v 0.000002 -1.100000 -0.680000
v 0.588895 -1.100000 -0.340000
v 0.506455 -0.040000 0.292400
v 0.000002 -0.040000 0.584800
v 0.506455 -0.040000 -0.292400
v 0.506455 -0.040000 0.000000
v 0.000002 -0.040000 -0.584800
v -0.506449 -0.040000 -0.292400
v -0.506449 -0.040000 0.000000
v -0.506449 -0.040000 0.292400
v -0.048850 -0.040000 -0.167446
v -0.435546 0.380000 0.029215
v -0.042010 0.380000 -0.114789
v -0.435546 0.380000 0.280679
v -0.195884 0.380000 0.419048
v 0.000002 0.380000 0.532143
v 0.435555 0.380000 0.280679
v 0.435555 0.380000 0.029215
v -0.014497 1.070000 -0.059799
v 0.381879 1.070000 0.059723
v -0.142212 1.070000 0.383285
v 0.020374 1.070000 0.477154
v 0.381879 1.070000 0.268439
vt -0.000000 0.463636
vt -0.267681 0.618182
vt -0.535361 0.463636
vt 0.463636 -0.041514
vt 0.442000 0.441759
vt 0.309091 0.441759
vt -0.535361 0.154545
vt -0.267681 0.000000
vt 0.095400 0.689526
vt -0.030389 0.689526
vt -0.055636 0.497495
vt 0.210182 0.497495
vt -0.231818 -0.051893
vt 0.077273 -0.051893
vt 0.055636 0.431380
vt -0.210182 0.431380
vt 0.000000 0.154545
vt -0.176182 0.481334
vt -0.181510 0.674944
vt -0.295811 0.674944
vt -0.309091 0.481334
vt -0.055636 0.493652
vt -0.077273 0.010379
vt 0.231818 0.010379
vt 0.210182 0.493652
vt 0.154545 -0.041514
vt 0.176182 0.441759
vt -0.309091 0.483273
vt -0.442000 0.483273
vt -0.463636 0.000000
vt 0.276940 0.092203
vt 0.441261 0.187073
vt 0.261090 0.336272
vt 0.203038 0.134871
vt -0.360429 0.620445
vt -0.387451 0.428270
vt -0.123815 0.428270
vt -0.133701 0.620445
vt 0.295811 0.585827
vt 0.181510 0.585827
vt 0.176182 0.392217
vt 0.309091 0.392217
vt 0.037475 0.442000
vt 0.037475 0.309091
vt 0.245475 0.385203
vt 0.267681 0.574909
vt 0.497886 0.442000
vt 0.497886 0.309091
vt 0.198214 0.689526
vt -0.154545 -0.000000
vt -0.176182 0.483273
vt -0.341075 0.958611
vt -0.360429 0.644317
vt -0.133701 0.644317
vt -0.152891 0.958611
vt 0.253455 0.468601
vt 0.519273 0.468601
vt 0.494026 0.660632
vt 0.265422 0.660632
vt 0.285939 0.981739
vt 0.265422 0.667642
vt 0.494026 0.667642
vt 0.475680 0.981739
vt -0.362897 0.444240
vt -0.141409 0.444240
vt -0.167111 0.636596
vt -0.357591 0.636596
vt 0.441261 0.281944
vt 0.069704 0.295811
vt 0.069704 0.181510
vt 0.178641 0.118615
vt 0.248584 0.361268
vt 0.281944 0.949173
vt 0.187073 0.949173
vt 0.181510 0.634589
vt 0.295811 0.634589
vt -0.415984 0.679871
vt -0.163452 0.679871
vt -0.185829 0.994078
vt -0.395430 0.994078
vt -0.540909 -0.031136
vt -0.231818 -0.031136
vt -0.253455 0.452138
vt -0.519273 0.452138
vt 0.253455 0.472895
vt 0.231818 -0.010379
vt 0.540909 -0.010379
vt 0.519273 0.472895
vt 0.108400 1.001150
vt 0.095400 0.686412
vt 0.198214 0.686412
vt 0.193736 1.001150
vn 0.0000 -1.0000 0.0000
vn 0.9970 0.0775 0.0000
vn 0.9925 0.1221 0.0000
vn -0.4977 0.0957 0.8620
vn -0.4971 0.1079 0.8610
vn -0.4978 0.0927 0.8623
vn 0.4985 0.0775 -0.8634
vn -0.9925 0.1221 0.0000
vn -0.9860 0.1665 0.0000
vn -0.4985 0.0775 0.8634
vn 0.9925 0.1220 0.0000
vn -0.9970 0.0775 0.0000
vn 0.0000 1.0000 -0.0000
vn 0.2875 0.0896 -0.9536
vn 0.2868 0.1146 -0.9511
vn 0.2875 0.0895 -0.9536
vn 0.9925 0.1222 -0.0000
vn -0.4977 0.0955 0.8621
vn 0.2881 0.0647 -0.9554
vn 0.4978 0.0927 0.8623
vn 0.4978 0.0928 0.8623
vn 0.4984 0.0811 0.8632
vn 0.4984 0.0810 0.8632
vn 0.4993 0.0542 0.8648
vn -0.3411 0.1224 -0.9320
vn 0.9970 0.0776 0.0000
vn -0.9591 0.0603 -0.2765
vn -0.4985 0.0775 -0.8634
vn 0.4985 0.0775 0.8634
vn -0.4983 0.0835 0.8630
usemtl Stone.007
s 1
f 4/1/1 5/2/1 6/3/1
f 6/4/2 9/5/2 10/6/3
f 6/3/1 1/7/1 2/8/1
f 19/9/4 18/10/5 14/11/6 8/12/6
f 6/13/7 5/14/7 11/15/7 9/16/7
f 3/17/1 4/1/1 6/3/1 2/8/1
f 14/18/8 18/19/9 16/20/9 13/21/8
f 14/22/6 3/23/10 2/24/10 8/25/6
f 1/26/2 6/4/2 10/6/3 7/27/11
f 13/28/8 12/29/12 4/30/12
f 26/31/13 27/32/13 23/33/13 25/34/13
f 22/35/14 10/36/15 15/37/15 17/38/16
f 22/39/17 21/40/3 7/41/11 10/42/3
f 12/43/13 13/44/13 15/45/13 11/46/13
f 9/47/13 11/46/13 15/45/13 10/48/13
f 8/12/6 20/49/18 19/9/4
f 13/28/8 4/30/12 3/50/12 14/51/8
f 24/52/19 22/53/14 17/54/16 23/55/19
f 8/56/20 7/57/21 21/58/22 20/59/23
f 26/60/24 20/61/23 21/62/22 27/63/24
f 15/64/25 13/65/25 16/66/25 17/67/25
f 27/32/13 24/68/13 23/33/13
f 16/69/13 18/70/13 19/71/13 17/72/13
f 24/73/26 27/74/26 21/75/3 22/76/17
f 17/77/27 19/78/27 25/79/27 23/80/27
f 5/81/28 4/82/28 12/83/28 11/84/28
f 8/85/20 2/86/29 1/87/29 7/88/21
f 25/89/30 19/90/4 20/91/18 26/92/30
