# Blender v2.79 (sub 0) OBJ File: ''
# www.blender.org
mtllib Water_Lily_01.mtl
o Mesh1_Water_lily_Model
v -0.000001 -1.150000 0.000001
v -0.281410 -1.150000 0.130034
v -0.028093 -1.150000 0.308724
v 0.253317 -1.150000 0.178691
v 0.281410 -1.150000 -0.130033
v 0.028093 -1.150000 -0.308724
v -0.253317 -1.150000 -0.178690
v -0.000001 -1.250000 0.000001
v -0.281410 -1.250000 0.130033
v -0.253317 -1.250000 -0.178690
v 0.028093 -1.250000 -0.308724
v 0.281410 -1.250000 -0.130033
v 0.253317 -1.250000 0.178690
v -0.028093 -1.250000 0.308724
vt 0.140683 0.280659
vt 0.012769 0.221552
vt 0.127913 0.140329
vt -0.174979 0.000000
vt -0.034070 0.000000
vt -0.034070 0.045454
vt -0.174979 0.045454
vt -0.117273 0.000000
vt 0.023636 0.000000
vt 0.023636 0.045454
vt -0.117273 0.045454
vt -0.245434 0.000000
vt -0.104525 0.000000
vt -0.104525 0.045454
vt -0.245434 0.045454
vt -0.094090 0.000000
vt 0.046819 0.000000
vt 0.046819 0.045454
vt -0.094090 0.045454
vt 0.080889 0.000000
vt 0.221798 0.000000
vt 0.221798 0.045454
vt 0.080889 0.045454
vt 0.104525 0.000000
vt 0.245434 0.000000
vt 0.245434 0.045454
vt 0.104525 0.045454
vt -0.046819 0.000000
vt 0.094090 0.000000
vt 0.094090 0.045454
vt -0.046819 0.045454
vt -0.243058 0.059106
vt -0.115144 0.000000
vt 0.000000 0.081223
vt -0.127913 0.140329
vt -0.255827 0.199435
vt -0.140683 0.280659
vt -0.012769 0.221552
vt 0.115144 0.000000
vt 0.243058 0.059106
vt 0.000000 0.081223
vt 0.255827 0.199435
vn 0.0000 1.0000 0.0000
vn -0.4195 0.0000 -0.9078
vn -0.5764 -0.0000 0.8172
vn 0.5764 0.0000 -0.8172
vn 0.9959 0.0000 0.0906
vn 0.4195 -0.0000 0.9078
vn 0.0000 -1.0000 0.0000
usemtl Green_leafs.011
s 1
f 6/1/1 7/2/1 1/3/1
f 8/4/2 9/5/2 2/6/2 1/7/2
f 10/8/3 8/9/3 1/10/3 7/11/3
f 11/12/2 10/13/2 7/14/2 6/15/2
f 12/16/4 11/17/4 6/18/4 5/19/4
f 13/20/5 12/21/5 5/22/5 4/23/5
f 14/24/6 13/25/6 4/26/6 3/27/6
f 9/28/3 14/29/3 3/30/3 2/31/3
f 13/32/7 14/33/7 9/34/7 8/35/7
f 12/36/7 13/32/7 8/35/7 11/37/7
f 8/35/7 10/38/7 11/37/7
f 3/39/1 4/40/1 1/3/1 2/41/1
f 5/42/1 6/1/1 1/3/1 4/40/1
