# Blender v2.79 (sub 0) OBJ File: ''
# www.blender.org
mtllib Wood_Fence_Gate_01.mtl
o Mesh1_Wood_Fence_Gate_Model
v -0.250000 -0.550000 -1.500000
v 0.250000 -0.550000 -1.500000
v 0.250000 -1.100000 -1.500000
v -0.250000 -1.100000 -1.500000
v -0.250000 0.000000 -1.000000
v 0.250000 0.000000 -1.000000
v -0.250000 -1.100000 -1.000000
v 0.250000 -1.100000 -1.000000
v 0.250000 -1.100000 1.500000
v 0.250000 -0.550000 1.500000
v -0.250000 -0.550000 1.500000
v -0.250000 -1.100000 1.500000
v 0.250000 -1.100000 1.000000
v 0.250000 0.000000 1.000000
v -0.250000 -1.100000 1.000000
v -0.250000 0.000000 1.000000
vt -1.136360 -0.000000
vt -1.363640 0.250000
vt -1.363640 -0.000000
vt 1.363640 0.250000
vt 1.136360 0.000000
vt 1.363640 0.000000
vt -0.227273 -0.732296
vt -0.000000 -0.732296
vt -0.000000 -0.394431
vt -0.227273 -0.394431
vt 0.227273 0.500000
vt 0.000000 0.500000
vt 0.000000 0.000000
vt 0.227273 0.000000
vt -1.136360 0.500000
vt -0.227273 1.363640
vt -0.227273 1.136360
vt -0.000000 1.136360
vt 0.000000 1.363640
vt 1.136360 0.500000
vt -0.000000 0.000000
vt -0.000000 0.250000
vt -0.227273 0.250000
vt -0.227273 0.000000
vt 0.227273 -0.000000
vt 0.000000 0.250000
vt -0.000000 -0.000000
vt -0.000000 0.250000
vt -0.227273 0.000000
vt 0.000000 0.000000
vt 0.000000 0.227273
vt -0.227273 0.227273
vt -0.227273 0.000000
vt 0.227273 0.500000
vt -0.000000 0.000000
vt -0.000000 0.500000
vt -0.227273 0.500000
vt -0.227273 0.000000
vt 0.227273 0.522850
vt -0.000000 0.522850
vt 0.000000 0.184985
vt 0.227273 0.184985
vt -0.227273 0.500000
vt 0.227273 -0.000000
vt 0.227273 0.250000
vn -1.0000 0.0000 0.0000
vn 1.0000 0.0000 0.0000
vn 0.0000 0.6727 -0.7399
vn 0.0000 0.0000 1.0000
vn 0.0000 -1.0000 -0.0000
vn 0.0000 0.0000 -1.0000
vn 0.0000 0.6727 0.7399
usemtl Wood.005
s 1
f 7/1/1 1/2/1 4/3/1
f 2/4/2 8/5/2 3/6/2
f 2/7/3 1/8/3 5/9/3 6/10/3
f 6/11/4 5/12/4 7/13/4 8/14/4
f 7/1/1 5/15/1 1/2/1
f 3/16/5 8/17/5 7/18/5 4/19/5
f 2/4/2 6/20/2 8/5/2
f 4/21/6 1/22/6 2/23/6 3/24/6
f 13/25/2 10/26/2 9/27/2
f 11/28/1 15/29/1 12/30/1
f 12/30/5 15/31/5 13/32/5 9/33/5
f 13/25/2 14/34/2 10/26/2
f 15/35/6 16/36/6 14/37/6 13/38/6
f 14/39/7 16/40/7 11/41/7 10/42/7
f 11/28/1 16/43/1 15/29/1
f 12/30/4 9/44/4 10/45/4 11/28/4
