# Blender v2.79 (sub 0) OBJ File: ''
# www.blender.org
mtllib Plate_Corner_01.mtl
o Mesh1_Plate_Corner_Model.001
v -0.538845 1.050000 1.101877
v 1.500000 1.050000 1.500000
v -0.764364 1.050000 0.764364
v -1.500000 0.800000 -1.500000
v 1.500000 0.800000 -1.500000
v 1.500000 0.800000 1.500000
v -1.500000 0.800000 1.500000
v 1.500000 1.050000 -1.500000
v -1.500000 1.050000 -1.500000
v -1.500000 1.050000 0.459650
v -1.101877 1.050000 0.538845
v -0.459650 1.050000 1.500000
v -0.788490 1.100000 1.500000
v -1.500000 1.100000 1.500000
v -1.500000 1.100000 0.788490
v -0.996887 1.100000 0.996887
v -1.227717 1.100000 0.842651
v -0.842651 1.100000 1.227717
vt 0.436889 0.180965
vt 1.363640 -0.000000
vt 0.334380 0.334380
vt 0.000000 1.363640
vt -1.363640 1.363640
vt -1.363640 0.000000
vt 0.000000 0.000000
vt -1.363640 0.113636
vt -1.363640 0.000000
vt 0.000000 0.000000
vt 0.000000 0.113636
vt -0.000000 1.363640
vt -0.000000 0.472885
vt 0.180965 0.436889
vt 0.472885 -0.000000
vt 1.363640 1.363640
vt 0.000000 0.113636
vt 0.000000 0.000000
vt 1.363640 0.000000
vt 1.363640 0.113636
vt 118.110001 0.000000
vt 118.110001 9.842520
vt 40.958500 9.842520
vt -118.110001 0.000000
vt -40.958500 9.842520
vt -118.110001 9.842520
vt 28.012199 11.811000
vt 0.000000 11.811000
vt -28.012199 11.811000
vt 0.228688 0.228688
vt 0.123765 0.298795
vt 0.000000 0.000000
vt 0.063095 -0.292564
vt -0.063095 -0.292564
vt -0.092255 -0.440914
vt 0.092255 -0.440914
vt 0.063095 -0.292564
vt -0.063095 -0.292564
vt -0.092255 -0.440914
vt 0.092255 -0.440914
vt -0.000000 0.323413
vt 0.323413 0.000000
vt 0.298795 0.123765
vt 0.092255 -0.440914
vt 0.063095 -0.292564
vt -0.063095 -0.292564
vt -0.092255 -0.440914
vt -0.063095 -0.292564
vt -0.092255 -0.440914
vt 0.092255 -0.440914
vt 0.063095 -0.292564
vn 0.0366 0.9989 -0.0301
vn 0.0000 1.0000 0.0000
vn 0.0328 0.9972 -0.0674
vn 0.0000 -1.0000 -0.0000
vn 0.0000 0.0000 -1.0000
vn 0.0150 0.9970 -0.0753
vn 0.0252 0.9990 -0.0361
vn 0.0753 0.9970 -0.0150
vn 1.0000 0.0000 0.0000
vn 0.0000 0.0000 1.0000
vn -1.0000 0.0000 0.0000
vn 0.0538 0.9975 -0.0452
vn 0.0192 0.9960 -0.0871
vn 0.0871 0.9960 -0.0192
usemtl Dark_Stone.011
s 1
f 1/1/1 2/2/2 3/3/3
f 4/4/4 5/5/4 6/6/4 7/7/4
f 8/8/5 5/9/5 4/10/5 9/11/5
f 9/12/2 10/13/6 11/14/7
f 9/12/2 11/14/7 3/3/3
f 12/15/8 2/2/2 1/1/1
f 2/2/2 8/16/2 9/12/2 3/3/3
f 2/17/9 6/18/9 5/19/9 8/20/9
usemtl FrontColor.002
f 6/21/10 2/22/10 12/23/10 7/7/10
f 4/24/11 7/7/11 10/25/11 9/26/11
f 13/27/10 14/28/10 7/7/10 12/23/10
f 15/29/11 10/25/11 7/7/11 14/28/11
usemtl Light_Stone.011
f 16/30/12 17/31/13 14/32/2
f 15/33/6 17/34/13 11/35/7 10/36/6
f 17/37/13 16/38/12 3/39/3 11/40/7
f 15/41/6 14/32/2 17/31/13
f 14/32/2 13/42/8 18/43/14
f 16/30/12 14/32/2 18/43/14
f 3/44/3 16/45/12 18/46/14 1/47/1
f 13/48/8 12/49/8 1/50/1 18/51/14
