# Blender v2.79 (sub 0) OBJ File: ''
# www.blender.org
mtllib Roof_Straight_Red_01.mtl
o Mesh1_Roof_Straight_Red_Model
v 1.500000 -1.218720 1.000000
v 1.500000 -1.053027 1.500000
v 1.500000 -1.218720 1.500000
v 1.500000 -1.053027 -1.500000
v 1.500000 -1.218720 -1.000000
v 1.500000 -1.218720 -1.500000
v -1.500000 -1.218720 -1.000000
v -1.500000 -1.053027 -1.500000
v -1.500000 -1.218720 -1.500000
v -1.500000 -1.053027 1.500000
v -1.500000 -1.218720 1.000000
v -1.500000 -1.218720 1.500000
v 1.400000 -1.218720 -1.000000
v 1.400000 -1.218720 1.000000
v -1.400000 -1.218720 1.000000
v -1.400000 -1.218720 -1.000000
v 1.400000 -0.473690 1.000000
v 1.500000 -0.473690 1.000000
v 1.500000 -0.473690 -1.000000
v 1.400000 -0.473690 -1.000000
v -1.400000 -0.473690 -1.000000
v -1.500000 -0.473690 -1.000000
v -1.500000 -0.473690 1.000000
v -1.400000 -0.473690 1.000000
v 1.400000 0.992980 0.000000
v -1.400000 0.992980 0.000000
v -1.700000 1.105650 0.165250
v 1.700000 1.105650 0.165250
v 1.700000 1.348010 0.000000
v -1.700000 1.348010 0.000000
v 1.700000 1.105650 -0.165250
v -1.700000 1.105650 -0.165250
v 1.700000 -1.218272 -1.612670
v -1.700000 -1.218272 -1.612670
v -1.700000 -1.218272 1.612667
v 1.700000 -1.218272 1.612667
v 1.700000 -1.105605 -1.777910
v -1.700000 -1.105605 -1.777910
v 1.700000 0.992980 0.000000
v -1.700000 0.992980 0.000000
v -1.700000 -1.105605 1.777913
v 1.700000 -1.105605 1.777913
vt 0.227273 -0.000000
vt 0.000000 0.136364
vt 0.000000 -0.000000
vt 1.363640 0.136364
vt 1.136360 -0.000000
vt 1.363640 -0.000000
vt -1.136360 0.000000
vt -1.363640 0.136364
vt -1.363640 0.000000
vt 0.000000 0.136364
vt -0.227273 0.000000
vt 0.000000 0.000000
vt -1.318180 1.136360
vt -1.318180 0.227273
vt -0.045454 0.227273
vt -0.045454 1.136360
vt -1.363640 0.227273
vt -1.363640 0.000000
vt -1.363640 1.363640
vt 0.000000 1.363640
vt 0.000000 0.227273
vt 0.000000 1.136360
vt -1.318180 0.469697
vt -1.363640 0.469697
vt -1.363640 0.000000
vt -1.318180 -0.000000
vt -1.363640 1.136360
vt 0.227273 0.469697
vt 1.318180 -0.000000
vt 1.363640 0.000000
vt 1.363640 0.469697
vt 1.318180 0.469697
vt 1.136360 0.469697
vt 0.045454 0.469697
vt 0.000000 0.469697
vt 0.000000 0.000000
vt 0.045454 0.000000
vt -1.363640 0.136364
vt -1.363640 0.000000
vt 0.000000 0.000000
vt 0.000000 0.136364
vt -1.136360 0.469697
vt -0.045454 0.000000
vt 0.000000 0.000000
vt 0.000000 0.469697
vt -0.045454 0.469697
vt -0.227273 0.469697
vt 1.363640 0.000000
vt 1.363640 0.136364
vt 1.136360 0.469697
vt 0.681818 1.136360
vt 0.227273 0.469697
vt 1.136360 -0.000000
vt 0.227273 -0.000000
vt -0.227273 0.000000
vt -0.227273 0.469697
vt -1.136360 0.469697
vt -1.136360 0.000000
vt -0.681818 1.136360
vt -0.090909 1.322990
vt 1.454550 1.322990
vt 1.454550 1.456320
vt -0.090909 1.456320
vt 0.090909 0.688135
vt -1.454550 0.688135
vt -1.454550 0.554801
vt 0.090909 0.554801
vt -1.318180 0.554801
vt -1.318180 -0.252079
vt -0.045454 -0.252079
vt -0.045454 0.554801
vt 1.318180 0.516108
vt 0.045454 0.516108
vt 0.000000 0.112667
vt 1.363640 0.112667
vt 0.000000 -0.655519
vt 0.000000 -0.252079
vt -1.363640 -0.252079
vt -1.363640 -0.655519
vt 0.045454 1.322990
vt 1.318180 1.322990
vt 1.363640 0.516108
vt 0.000000 0.516108
vt 1.454550 -0.746428
vt -0.090909 -0.746428
vt 0.090909 0.021758
vt -1.363640 0.112667
vt -1.454550 0.021758
vt -1.454550 -0.746428
vt 0.090909 -0.746428
vt 1.454550 0.554801
vt 1.363640 -0.252079
vt 0.045454 -0.252079
vt 0.045454 0.554801
vt -0.090909 0.554801
vt -0.045454 1.322990
vt -0.045454 0.516108
vt 0.090909 1.322990
vt 1.363640 -0.655519
vt -0.756930 1.187580
vt -1.489960 0.112464
vt -1.414850 0.061252
vt -0.681818 1.136360
vt -0.681818 1.297740
vt -0.606707 1.187580
vt 0.126324 0.112464
vt 0.051212 0.061252
vt -1.454550 1.294400
vt -1.454550 1.203490
vt 0.090909 1.203490
vt 0.090909 1.294400
vt 1.318180 0.554801
vt 1.318180 -0.252079
vt 1.489960 0.112464
vt 0.756930 1.187580
vt 0.681818 1.136360
vt 1.414850 0.061252
vt -1.363640 0.516108
vt -1.318180 0.516108
vt -1.318180 1.322990
vt -1.454550 1.322990
vt 0.681818 1.297740
vt 0.606707 1.187580
vt -0.090909 0.021758
vt 1.454550 0.021758
vt -0.051212 0.061252
vt -0.126324 0.112464
vt -0.090909 0.167728
vt -0.090909 0.076819
vt 1.454550 0.076819
vt 1.454550 0.167728
vn 1.0000 0.0000 0.0000
vn -1.0000 0.0000 0.0000
vn 0.0000 -1.0000 -0.0000
vn 0.0000 0.0000 -1.0000
vn 0.0000 0.0000 1.0000
vn 0.0000 0.5764 0.8172
vn 0.0000 0.5633 0.8262
vn 0.0000 0.5633 -0.8262
vn 0.0000 0.5764 -0.8172
vn 0.0000 0.6243 -0.7812
vn 0.0000 0.6243 0.7812
vn 0.0000 0.6534 0.7570
vn 0.0000 0.6534 -0.7570
vn -0.0054 -0.6009 0.7993
vn 0.0564 -0.6082 0.7918
vn 0.0054 -0.6009 0.7993
vn 0.0054 -0.6009 -0.7993
vn -0.0564 -0.6082 -0.7918
vn -0.0054 -0.6009 -0.7993
vn 0.0000 0.5892 -0.8080
vn 0.0201 -0.5651 0.8248
vn 0.1587 -0.5754 0.8023
vn -0.1587 -0.5754 0.8023
vn 0.0000 -0.5633 0.8262
vn -0.0201 -0.5651 0.8248
vn 0.0000 -0.5633 -0.8262
vn -0.1587 -0.5754 -0.8023
vn -0.0201 -0.5651 -0.8248
vn -0.0564 -0.6082 0.7918
vn 0.0000 -0.8262 -0.5633
vn 0.1587 -0.5754 -0.8023
vn 0.0201 -0.5651 -0.8248
vn 0.0564 -0.6082 -0.7918
vn 0.0000 0.5892 0.8080
vn 0.0000 -0.8262 0.5633
usemtl Light_Stone.003
s 1
f 1/1/1 2/2/1 3/3/1
f 4/4/1 5/5/1 6/6/1
f 7/7/2 8/8/2 9/9/2
f 10/10/2 11/11/2 12/12/2
f 13/13/3 14/14/3 15/15/3 16/16/3
f 14/14/3 1/17/3 3/18/3
f 6/19/3 13/13/3 16/16/3 9/20/3
f 12/12/3 11/21/3 15/15/3
f 16/16/3 7/22/3 9/20/3
f 17/23/4 18/24/4 1/25/4 14/26/4
f 6/19/3 5/27/3 13/13/3
f 1/1/1 18/28/1 2/2/1
f 13/29/5 5/30/5 19/31/5 20/32/5
f 4/4/1 19/33/1 5/5/1
f 14/14/3 3/18/3 12/12/3 15/15/3
f 21/34/5 22/35/5 7/36/5 16/37/5
f 4/38/4 6/39/4 9/40/4 8/41/4
f 7/7/2 22/42/2 8/8/2
f 15/43/4 11/44/4 23/45/4 24/46/4
f 10/10/2 23/47/2 11/11/2
f 10/10/5 12/12/5 3/48/5 2/49/5
usemtl Dark_Stone.004
f 20/50/1 25/51/1 17/52/1
f 13/53/1 20/50/1 17/52/1 14/54/1
f 15/55/2 24/56/2 21/57/2 16/58/2
f 24/56/2 26/59/2 21/57/2
f 27/60/6 28/61/6 29/62/7 30/63/7
f 30/64/8 29/65/8 31/66/9 32/67/9
usemtl Green_Roof.002
f 25/68/8 20/69/10 21/70/10 26/71/8
f 17/72/11 24/73/11 10/74/12 2/75/12
f 8/76/13 22/77/13 21/70/10
f 20/69/10 19/78/13 4/79/13
f 26/80/7 24/73/11 17/72/11 25/81/7
f 21/70/10 20/69/10 4/79/13 8/76/13
f 2/75/12 18/82/12 17/72/11
f 24/73/11 23/83/12 10/74/12
usemtl Red_Roof.004
f 33/84/14 8/76/15 34/85/16
f 35/86/17 2/87/18 36/88/19
f 31/66/9 37/89/20 38/90/20 32/67/9
f 33/84/14 39/91/21 19/92/22
f 22/77/23 21/93/24 26/94/24 40/95/25
f 26/96/26 24/97/26 23/83/27 40/98/28
f 40/95/25 34/85/16 22/77/23
f 33/84/14 19/92/22 4/99/29
f 8/76/15 22/77/23 34/85/16
f 33/84/14 4/99/29 8/76/15
f 32/100/2 38/101/2 34/102/2 40/103/2
f 30/104/2 32/100/2 40/103/2 27/105/2
f 41/106/2 27/105/2 40/103/2 35/107/2
f 37/108/30 33/109/30 34/110/30 38/111/30
f 25/112/24 20/113/24 19/92/22 39/91/21
f 37/114/1 31/115/1 39/116/1 33/117/1
f 35/86/17 40/98/28 23/83/27
f 18/118/31 17/119/26 25/120/26 39/121/32
f 39/121/32 36/88/19 18/118/31
f 35/86/17 23/83/27 10/74/33
f 2/87/18 18/118/31 36/88/19
f 35/86/17 10/74/33 2/87/18
f 29/122/1 28/123/1 39/116/1 31/115/1
f 27/60/6 41/124/34 42/125/34 28/61/6
f 36/126/1 39/116/1 28/123/1 42/127/1
f 41/128/35 35/129/35 36/130/35 42/131/35
