# Blender v2.79 (sub 0) OBJ File: ''
# www.blender.org
mtllib Roof_Point_Red_01.mtl
o Mesh1_Roof_Point_Red_Model
v -0.170570 1.358700 0.000000
v -0.303330 1.141070 -0.132760
v -0.303330 1.141070 0.132760
v 0.000000 1.358700 -0.170570
v -0.132760 1.141070 -0.303330
v 0.132760 1.141070 -0.303330
v 0.170570 1.358700 0.000000
v 0.303330 1.141070 -0.132760
v 0.303330 1.141070 0.132760
v 0.000000 1.358700 0.170570
v 0.132760 1.141070 0.303330
v -0.132760 1.141070 0.303330
v -1.500000 -1.100190 1.670570
v -1.670570 -1.100190 1.500000
v 1.500000 -1.100190 1.670570
v 1.670570 -1.100190 1.500000
v 1.670570 -1.100190 -1.500000
v 1.500000 -1.100190 -1.670570
v -1.500000 -1.100190 -1.670570
v -1.670570 -1.100190 -1.500000
v -1.500000 -1.205000 -1.500000
v -1.500000 -1.205000 1.500000
v 1.500000 -1.205000 1.500000
v 1.500000 -1.205000 -1.500000
vt -0.681818 1.406530
vt -0.742164 1.290660
vt -0.621472 1.290660
vt -0.681818 0.696378
vt -0.742164 0.580502
vt -0.621472 0.580502
vt 0.681818 0.696378
vt 0.621472 0.580502
vt 0.742164 0.580502
vt 0.681818 1.406530
vt 0.621472 1.290660
vt 0.742164 1.290660
vt 0.054823 0.302712
vt -0.054823 0.302712
vt -0.054823 0.172064
vt 0.054823 0.172064
vt 1.019060 0.801923
vt 1.019060 0.932571
vt 0.909413 0.932571
vt 0.909413 0.801923
vt 0.054823 1.431780
vt 0.054823 1.562430
vt -0.054823 1.562430
vt -0.054823 1.431780
vt 0.681818 0.759350
vt 0.604286 0.681818
vt 0.681818 0.604286
vt 0.759350 0.681818
vt -0.909413 0.932571
vt -1.019060 0.932571
vt -1.019060 0.801923
vt -0.909413 0.801923
vt 0.054823 0.147168
vt -0.054823 0.147168
vt 0.000000 0.074538
vt 1.019060 0.874995
vt 0.909413 0.874995
vt 0.964237 0.802364
vt 0.054823 1.602820
vt -0.054823 1.602820
vt 0.000000 1.530190
vt -0.909413 0.874995
vt -1.019060 0.874995
vt -0.964237 0.802364
vt -0.054823 -1.173420
vt 0.054823 -1.173420
vt 0.000000 0.097304
vt 1.363640 0.097304
vt 0.000000 -0.612849
vt 1.363640 -0.612849
vt -0.054823 0.086302
vt 0.054823 0.086302
vt -1.363640 -0.612849
vt 0.000000 -0.612849
vt -1.019060 -0.543557
vt -0.909413 -0.543557
vt -1.363640 0.097304
vt 0.000000 0.097304
vt 0.909413 -0.543557
vt 1.019060 -0.543557
vt -1.363640 0.150491
vt -1.363640 0.059492
vt 0.000000 0.059492
vt 0.000000 0.150491
vt 0.000000 0.150491
vt 1.363640 0.059492
vt 1.363640 0.150491
vt 0.000000 1.312320
vt 0.000000 1.221320
vt 1.363640 1.221320
vt 1.363640 1.312320
vt -1.363640 1.312320
vt -1.363640 1.221320
vt 0.000000 1.221320
vt 0.000000 1.312320
vt 53.828300 47.112900
vt 64.281898 47.112900
vt 70.997299 53.828300
vt 70.997299 64.281898
vt 64.281898 70.997299
vt 47.112900 64.281898
vt 53.828300 70.997299
vt 47.112900 53.828300
vn -0.8537 0.5208 0.0000
vn 0.0000 0.5208 -0.8537
vn 0.8537 0.5208 0.0000
vn 0.0000 0.5208 0.8537
vn 0.5354 0.6532 -0.5354
vn 0.5354 0.6532 0.5354
vn -0.5354 0.6532 0.5354
vn 0.0000 1.0000 0.0000
vn -0.5354 0.6532 -0.5354
vn -0.4638 -0.7548 0.4638
vn 0.4638 -0.7548 0.4638
vn 0.4638 -0.7548 -0.4638
vn -0.4638 -0.7548 -0.4638
vn -0.5235 -0.8520 -0.0000
vn 0.0000 -0.8520 0.5235
vn 0.5235 -0.8520 -0.0000
vn 0.0000 -0.8520 -0.5235
usemtl Dark_Stone.002
s 1
f 1/1/1 2/2/1 3/3/1
f 4/4/2 6/5/2 5/6/2
f 7/7/3 9/8/3 8/9/3
f 10/10/4 12/11/4 11/12/4
f 4/13/5 7/14/5 8/15/5 6/16/5
f 9/17/6 7/18/6 10/19/6 11/20/6
f 12/21/7 10/22/7 1/23/7 3/24/7
f 4/25/8 1/26/8 10/27/8 7/28/8
f 1/29/9 4/30/9 5/31/9 2/32/9
usemtl Red_Roof.002
f 13/33/10 14/34/10 22/35/10
f 16/36/11 15/37/11 23/38/11
f 18/39/12 17/40/12 24/41/12
f 20/42/13 19/43/13 21/44/13
f 17/45/5 18/46/5 6/16/5 8/15/5
f 12/11/4 13/47/4 15/48/4 11/12/4
f 9/8/3 16/49/3 17/50/3 8/9/3
f 14/51/7 13/52/7 12/21/7 3/24/7
f 6/5/2 18/53/2 19/54/2 5/6/2
f 19/55/9 20/56/9 2/32/9 5/31/9
f 2/2/1 20/57/1 14/58/1 3/3/1
f 15/59/6 16/60/6 9/17/6 11/20/6
f 20/61/14 21/62/14 22/63/14 14/64/14
f 13/65/15 22/63/15 23/66/15 15/67/15
f 16/68/16 23/69/16 24/70/16 17/71/16
f 18/72/17 24/73/17 21/74/17 19/75/17
usemtl FrontColor.001
f 12/76/8 11/77/8 9/78/8
f 8/79/8 6/80/8 2/81/8
f 6/80/8 5/82/8 2/81/8
f 3/83/8 12/76/8 9/78/8
f 2/81/8 3/83/8 9/78/8 8/79/8
