# Blender v2.79 (sub 0) OBJ File: ''
# www.blender.org
mtllib Roof_Slant_Red_01.mtl
o Mesh1_Roof_Slant_Red_Model
v 1.500000 -1.100000 -1.500000
v 1.000000 -1.100000 -1.500000
v 1.000000 -0.733333 -1.500000
v -1.500000 -1.100000 1.500000
v -1.500000 -1.100000 1.000000
v -1.400000 -1.100000 1.000000
v -1.400000 -1.100000 -1.000000
v -1.500000 -1.100000 -1.000000
v -1.500000 -1.100000 -1.500000
v -1.000000 -1.100000 -1.500000
v -1.000000 -1.100000 -1.400000
v 1.000000 -1.100000 -1.400000
v 1.500000 -1.100000 1.500000
v 1.000000 -1.100000 1.500000
v 1.000000 -1.100000 1.400000
v -1.000000 -1.100000 1.400000
v -1.000000 -1.100000 1.500000
v -1.500000 1.100000 1.500000
v -1.500000 1.100000 1.000000
v -1.500000 1.100000 -1.500000
v -1.500000 1.100000 -1.000000
v -1.400000 1.026670 -1.000000
v -1.400000 1.026670 1.000000
v -1.000000 0.733330 1.500000
v -1.000000 0.733330 1.400000
v 1.000000 -0.733333 1.400000
v 1.000000 -0.733333 1.500000
v 1.000000 -0.733333 -1.400000
v -1.000000 0.733330 -1.400000
v -1.000000 0.733330 -1.500000
v -1.500000 1.348010 1.500000
v -1.500000 1.348010 -1.500000
v -1.131727 1.077950 -1.500000
v -1.131727 1.077950 1.500000
v 1.661280 -1.218273 -1.500000
v 1.779550 -1.056991 -1.500000
v 1.661280 -1.218273 1.500000
v 1.779550 -1.056992 1.500000
vt -1.363640 -0.000000
vt -1.136360 -0.000000
vt -1.136360 0.166667
vt 0.000000 0.000000
vt 0.000000 0.227273
vt -0.045454 0.227273
vt -0.045454 1.136360
vt 0.000000 1.136360
vt 0.000000 1.363640
vt -0.227273 1.363640
vt -0.227273 1.318180
vt -1.136360 1.318180
vt -1.136360 1.363640
vt -1.363640 1.363640
vt -1.363640 0.000000
vt -1.136360 0.000000
vt -1.136360 0.045454
vt -0.227273 0.045454
vt -0.227273 0.000000
vt 0.000000 1.000000
vt -0.227273 1.000000
vt -0.227273 -0.000000
vt 0.227273 0.000000
vt 0.227273 0.833333
vt -0.000000 0.833333
vt -0.000000 0.000000
vt 0.045454 0.000000
vt 0.045454 0.833333
vt 0.000000 0.000000
vt 0.000000 0.166667
vt -0.045454 0.166667
vt -0.045454 0.000000
vt 1.363640 0.000000
vt 1.136360 0.166667
vt 1.136360 0.000000
vt -1.363640 0.166667
vt -1.363640 0.000000
vt -1.318180 0.000000
vt -1.318180 0.166667
vt 1.363640 -0.000000
vt 1.363640 0.833333
vt 1.318180 0.833333
vt 1.318180 -0.000000
vt 0.000000 1.000000
vt -0.227273 0.833333
vt -0.227273 0.000000
vt 0.000000 0.000000
vt -1.136360 -0.000000
vt -1.136360 1.000000
vt -1.363640 1.000000
vt -1.363640 -0.000000
vt 0.045454 -0.000000
vt 0.045454 0.966667
vt -0.000000 1.000000
vt -0.000000 0.000000
vt 0.000000 0.000000
vt 0.000000 1.000000
vt -0.045454 0.966667
vt -0.045454 -0.000000
vt 1.363640 0.591364
vt 1.136360 0.591364
vt 1.136360 0.534997
vt 0.227273 0.534997
vt 0.227273 0.591364
vt 0.000000 0.591364
vt -0.000000 0.309529
vt 0.045454 0.309529
vt 0.045454 -0.817809
vt -0.000000 -0.817809
vt -0.000000 -1.099640
vt 1.363640 -1.099640
vt 1.363640 -0.817809
vt 1.318180 -0.817809
vt 1.318180 0.309529
vt 1.363640 0.309529
vt 0.000000 1.112730
vt -1.363640 1.112730
vt -1.436950 -0.053760
vt -0.000000 1.112730
vt -0.167397 0.989976
vt -1.490710 0.019549
vt 0.000000 -1.190550
vt -1.363640 -1.099640
vt -1.363640 -1.190550
vt 0.167397 0.989976
vt 1.436950 -0.053760
vt 1.490710 0.019549
vt -0.045454 -0.817809
vt -0.045454 0.309529
vt -0.000000 0.806405
vt 1.363640 0.806405
vt 1.363640 0.897314
vt -0.000000 0.897314
vt -0.000000 0.450446
vt -0.000000 -1.190550
vt 1.363640 -1.190550
vt 1.363640 0.450446
vt -1.363640 0.309529
vt -1.363640 -0.817809
vt -1.318180 -0.817809
vt -1.318180 0.309529
vt 1.363640 0.658030
vt -0.000000 0.658030
vt 0.227273 0.000000
vt 1.136360 0.000000
vt 1.136360 0.166667
vt 0.227273 0.833333
vt -0.227273 0.833333
vt -1.136360 0.166667
vt -1.136360 0.000000
vt -0.227273 0.000000
vt -0.227273 -0.000000
vt -0.227273 0.966667
vt -1.136360 0.966667
vt -1.136360 -0.000000
vn 0.0000 0.0000 -1.0000
vn 0.0000 -1.0000 -0.0000
vn -1.0000 0.0000 0.0000
vn 0.0000 0.0000 1.0000
vn 1.0000 0.0000 0.0000
vn 0.5914 0.8064 0.0000
vn 0.5913 0.8064 0.0000
vn -0.5914 -0.8064 -0.0000
vn 0.8064 -0.5914 -0.0000
usemtl Light_Stone.002
s 1
f 1/1/1 2/2/1 3/3/1
f 4/4/2 5/5/2 6/6/2 7/7/2 8/8/2 9/9/2 10/10/2 11/11/2 12/12/2 2/13/2 1/14/2 13/15/2 14/16/2 15/17/2 16/18/2 17/19/2
f 18/20/3 19/21/3 5/22/3 4/4/3
f 4/4/4 17/23/4 24/24/4 18/20/4
f 24/25/5 17/26/5 16/27/5 25/28/5
f 14/29/3 27/30/3 26/31/3 15/32/3
f 13/33/4 27/34/4 14/35/4
f 3/36/3 2/37/3 12/38/3 28/39/3
f 10/40/5 30/41/5 29/42/5 11/43/5
f 20/44/1 30/45/1 10/46/1 9/47/1
f 8/48/3 21/49/3 20/50/3 9/51/3
f 7/52/4 22/53/4 21/54/4 8/55/4
f 5/56/1 19/57/1 23/58/1 6/59/1
usemtl Green_Roof.001
f 20/60/6 21/61/6 22/62/6 23/63/6 19/64/6 18/65/6 24/66/6 25/67/6 26/68/6 27/69/6 13/70/6 1/71/6 3/72/6 28/73/6 29/74/6 30/75/6
f 21/61/7 19/64/7 23/63/7 22/62/7
usemtl Red_Roof.003
f 31/76/3 32/77/3 20/50/3 21/49/3 19/21/3 18/20/3
f 35/78/1 1/1/1 3/3/1 30/45/1 20/44/1 32/79/1 33/80/1 36/81/1
f 37/82/8 13/70/8 1/83/8 35/84/8
f 34/85/4 31/76/4 18/20/4 24/24/4 27/34/4 13/33/4 37/86/4 38/87/4
f 26/88/8 27/69/8 24/66/8 25/89/8
f 37/90/9 35/91/9 36/92/9 38/93/9
f 34/94/6 38/95/6 36/96/6 33/97/6
f 30/98/8 3/99/8 28/100/8 29/101/8
usemtl Dark_Stone.003
f 33/97/6 32/102/6 31/103/6 34/94/6
f 16/104/4 15/105/4 26/106/4 25/107/4
f 29/108/1 28/109/1 12/110/1 11/111/1
f 6/112/3 23/113/3 22/114/3 7/115/3
