# Blender v2.79 (sub 0) OBJ File: ''
# www.blender.org
mtllib Roof_Corner_Red_01.mtl
o Mesh1_Roof_Corner_Red_Model
v -1.000000 0.736610 1.500000
v -1.000000 0.663270 1.400000
v 1.000000 -0.803394 1.400000
v 1.000000 -0.730061 1.500000
v -1.000000 -1.096727 1.500000
v -1.000000 -1.096727 1.400000
v 1.000000 -1.096727 1.000000
v 1.000000 -1.096727 1.100000
v -1.100000 -1.096727 -1.000000
v -1.000000 -1.096727 -1.000000
v -1.500000 -1.096727 -1.500000
v -1.500000 -1.096727 -1.000000
v -1.400000 -1.096727 -1.000000
v -1.400000 -1.096727 1.000000
v -1.500000 -1.096727 1.000000
v -1.500000 -1.096727 1.500000
v 1.000000 -1.096727 1.400000
v 1.000000 -1.096727 1.500000
v 1.500000 -1.096727 1.500000
v 1.000000 -1.023394 1.100000
v -1.100000 -1.023394 -1.000000
v -1.500000 -1.215000 -1.661280
v 1.661280 -1.215000 1.500000
v -1.400000 0.663270 1.000000
v -1.400000 -0.803394 -1.000000
v -1.500000 -0.730061 -1.000000
v -1.500000 1.103270 1.500000
v -1.500000 0.736610 1.000000
v -1.500000 -1.053719 -1.779550
v -1.500000 1.351290 1.500000
v -1.500000 1.081220 1.131727
v 1.779550 -1.053719 1.500000
v -1.131727 1.081220 1.500000
vt 0.642824 -0.630593
vt -0.642824 -0.630593
vt 1.016070 -0.705275
vt -0.227273 0.887094
vt -0.000000 1.053760
vt -0.167397 1.043740
vt 0.167397 1.043740
vt 0.227273 0.887094
vt -0.128565 0.480731
vt -0.160706 0.527036
vt -0.803530 -0.399067
vt -0.771389 -0.445372
vt -0.964237 -0.630593
vt -1.016070 -0.705275
vt 0.964237 -0.630593
vt -0.118367 0.669185
vt -1.054090 -0.678888
vt 1.054090 -0.678888
vt 0.118367 0.669185
vt -1.016070 0.467735
vt 1.016070 0.467735
vt 1.054090 0.550315
vt -1.054090 0.550315
vt -1.490710 0.073310
vt -1.136360 0.220427
vt -1.436950 0.000000
vt -1.363640 0.053760
vt -0.000000 1.166490
vt 0.674966 -0.584288
vt -0.674966 -0.584288
vt 1.436950 0.000000
vt 1.490710 0.073310
vt 1.363640 0.053760
vt 1.136360 0.220427
vt 0.803530 -0.399067
vt 0.160706 0.527036
vt 0.128565 0.480731
vt 0.771389 -0.445372
vt -1.136360 0.053760
vt 0.227273 0.053760
vt 0.181818 0.087094
vt 0.181818 0.053760
vt -0.000000 0.053760
vt -0.000000 0.887094
vt -0.045454 0.853760
vt -0.045454 0.053760
vt -0.227273 0.053760
vt -0.000000 0.053760
vt 0.045454 0.187094
vt 0.000000 0.220427
vt 0.000000 0.053760
vt 0.045454 0.053760
vt 0.045454 0.853760
vt 0.000000 0.887094
vt 0.000000 0.053760
vt 0.045454 0.053760
vt 0.227273 0.053760
vt 98.425201 3.937010
vt 118.110001 0.000000
vt 98.425201 15.748000
vt 19.684999 4.656410
vt 15.748000 7.543540
vt 15.748000 4.656410
vt 98.425201 4.656410
vt 118.110001 4.656410
vt 98.425201 19.092100
vt 98.425201 19.684999
vt 15.748000 98.425201
vt 19.684999 98.425201
vt 0.000000 118.110001
vt 0.000000 98.425201
vt 3.937010 98.425201
vt 3.937010 19.684999
vt 0.000002 19.684999
vt 0.000002 0.000000
vt 19.684999 3.937010
vt 19.684999 0.000000
vt 98.425201 -0.000000
vt 3.937010 16.205000
vt 0.000000 19.092100
vt 0.000000 4.656410
vt 3.937010 4.656410
vt 0.000000 0.758562
vt -0.000000 0.839715
vt 0.227273 0.053760
vt 1.136360 0.053760
vt 1.136360 0.187094
vt 0.227273 0.853760
vt -0.227273 0.053760
vt -0.227273 0.853760
vt -1.136360 0.187094
vt -1.136360 0.053760
vt 0.674966 0.053760
vt 0.674966 0.087094
vt -0.674966 0.087094
vt -0.674966 0.053760
vn -0.5090 -0.6941 0.5090
vn -1.0000 0.0000 0.0000
vn 0.0000 0.0000 1.0000
vn 0.5090 0.6941 -0.5090
vn 0.6277 -0.4603 -0.6277
vn 0.0000 0.0000 -1.0000
vn 1.0000 0.0000 0.0000
vn -0.0000 1.0000 0.0000
vn -0.5090 -0.6941 0.5091
vn 0.7071 0.0000 -0.7071
usemtl Red_Roof
s 1
f 7/1/1 10/2/1 23/3/1
f 28/4/2 27/5/2 31/6/2
f 33/7/3 27/5/3 1/8/3
f 24/9/1 28/10/1 26/11/1 25/12/1
f 10/2/1 11/13/1 22/14/1
f 23/3/1 19/15/1 7/1/1
f 10/2/1 22/14/1 23/3/1
f 33/16/4 32/17/4 29/18/4 31/19/4
f 23/20/5 22/21/5 29/22/5 32/23/5
f 31/6/2 29/24/2 26/25/2
f 29/24/2 22/26/2 11/27/2
f 11/27/2 26/25/2 29/24/2
f 26/25/2 28/4/2 31/6/2
f 27/5/2 30/28/2 31/6/2
f 20/29/1 21/30/1 10/2/1 7/1/1
f 23/31/3 32/32/3 19/33/3
f 32/32/3 33/7/3 4/34/3
f 19/33/3 32/32/3 4/34/3
f 33/7/3 30/28/3 27/5/3
f 1/8/3 4/34/3 33/7/3
f 4/35/1 1/36/1 2/37/1 3/38/1
usemtl Light_Stone
f 12/39/2 26/25/2 11/27/2
f 10/40/3 21/41/3 9/42/3
f 15/43/6 28/44/6 24/45/6 14/46/6
f 28/4/2 15/47/2 16/48/2 27/5/2
f 25/49/3 26/50/3 12/51/3 13/52/3
f 2/53/7 1/54/7 5/55/7 6/56/7
f 16/48/3 5/57/3 1/8/3 27/5/3
usemtl FrontColor
f 17/58/8 19/59/8 8/60/8
f 7/61/7 20/62/7 8/63/7
f 18/64/3 19/65/3 4/66/3
f 19/59/8 7/67/8 8/60/8
f 9/68/8 10/69/8 11/70/8
f 11/70/8 12/71/8 13/72/8
f 14/73/8 15/74/8 16/75/8
f 9/68/8 11/70/8 13/72/8
f 14/73/8 16/75/8 6/76/8
f 16/75/8 5/77/8 6/76/8
f 9/68/8 13/72/8 14/73/8
f 17/58/8 18/78/8 19/59/8
f 6/76/8 17/58/8 8/60/8
f 14/73/8 6/76/8 8/60/8 9/68/8
f 3/79/7 4/80/7 18/81/7 17/82/7
usemtl Green_Roof
f 25/12/1 26/11/1 11/13/1
f 11/13/1 10/2/1 21/30/1
f 20/29/1 7/1/1 19/15/1
f 25/12/1 11/13/1 21/30/1
f 20/29/1 19/15/1 3/38/1
f 19/15/1 4/35/1 3/38/1
f 25/12/1 21/30/1 24/9/1
f 2/37/1 27/83/1 28/10/1 24/9/1
f 2/37/1 1/36/9 27/83/1
f 20/29/1 3/38/1 2/37/1
f 20/29/1 2/37/1 24/9/1 21/30/1
usemtl Dark_Stone
f 30/84/4 33/16/4 31/19/4
f 6/85/3 17/86/3 3/87/3 2/88/3
f 14/89/2 24/90/2 25/91/2 13/92/2
f 9/93/10 21/94/10 20/95/10 8/96/10
