# Blender v2.79 (sub 0) OBJ File: ''
# www.blender.org
mtllib Roof_Straight_Red_01.mtl
o Mesh1_Roof_Straight_Red_Model
v -1.500000 -1.100000 1.500000
v 1.500000 -1.100000 1.500000
v 1.500000 -0.800000 1.500000
v -1.500000 -0.800000 1.500000
v 1.500000 -1.100000 1.000000
v -1.500000 -1.100000 1.000000
v -1.400000 -1.100000 1.000000
v -1.400000 -1.100000 -1.000000
v -1.500000 -1.100000 -1.000000
v -1.500000 -1.100000 -1.500000
v 1.500000 -1.100000 -1.500000
v 1.500000 -1.100000 -1.000000
v 1.400000 -1.100000 -1.000000
v 1.400000 -1.100000 1.000000
v 1.500000 -0.066670 1.000000
v 1.400000 -0.066670 1.000000
v 1.400000 -0.066670 -1.000000
v 1.400000 1.400000 0.000000
v 1.500000 -0.066670 -1.000000
v 1.500000 -0.800000 -1.500000
v -1.500000 -0.800000 -1.500000
v -1.500000 -0.066670 -1.000000
v -1.400000 -0.066670 -1.000000
v -1.400000 1.400000 0.000000
v 1.700000 -0.965245 -1.612670
v 1.700000 1.400000 0.000000
v -1.700000 1.400000 0.000000
v -1.700000 -0.965245 -1.612670
v 1.700000 -0.852578 -1.777910
v 1.700000 1.512670 -0.165250
v 1.700000 1.755030 0.000000
v 1.700000 1.512670 0.165250
v 1.700000 -0.852578 1.777913
v 1.700000 -0.965245 1.612667
v -1.700000 -0.852578 -1.777910
v -1.700000 1.512670 -0.165250
v -1.700000 -0.965245 1.612667
v -1.700000 -0.852578 1.777913
v -1.700000 1.512670 0.165250
v -1.700000 1.755030 0.000000
v -1.400000 -0.066670 1.000000
v -1.500000 -0.066670 1.000000
vt 0.227273 -0.000000
vt 0.000000 0.136364
vt 0.000000 -0.000000
vt 1.363640 0.136364
vt 1.136360 -0.000000
vt 1.363640 -0.000000
vt -1.136360 0.000000
vt -1.363640 0.136364
vt -1.363640 0.000000
vt 0.000000 0.136364
vt -0.227273 0.000000
vt 0.000000 0.000000
vt -1.318180 1.136360
vt -1.318180 0.227273
vt -0.045454 0.227273
vt -0.045454 1.136360
vt -1.363640 0.227273
vt -1.363640 0.000000
vt -1.363640 1.363640
vt 0.000000 1.363640
vt 0.000000 0.227273
vt 0.000000 1.136360
vt -1.318180 0.469697
vt -1.363640 0.469697
vt -1.363640 0.000000
vt -1.318180 -0.000000
vt -1.363640 1.136360
vt 0.227273 0.469697
vt 1.318180 -0.000000
vt 1.363640 0.000000
vt 1.363640 0.469697
vt 1.318180 0.469697
vt 1.136360 0.469697
vt 0.045454 0.469697
vt 0.000000 0.469697
vt 0.000000 0.000000
vt 0.045454 0.000000
vt -1.363640 0.136364
vt -1.363640 0.000000
vt 0.000000 0.000000
vt 0.000000 0.136364
vt -1.136360 0.469697
vt -0.045454 0.000000
vt 0.000000 0.000000
vt 0.000000 0.469697
vt -0.045454 0.469697
vt -0.227273 0.469697
vt 1.363640 0.000000
vt 1.363640 0.136364
vt 1.136360 0.469697
vt 0.681818 1.136360
vt 0.227273 0.469697
vt 1.136360 -0.000000
vt 0.227273 -0.000000
vt -0.227273 0.000000
vt -0.227273 0.469697
vt -1.136360 0.469697
vt -1.136360 0.000000
vt -0.681818 1.136360
vt -0.090909 1.322990
vt 1.454550 1.322990
vt 1.454550 1.456320
vt -0.090909 1.456320
vt 0.090909 0.688135
vt -1.454550 0.688135
vt -1.454550 0.554801
vt 0.090909 0.554801
vt -1.318180 0.554801
vt -1.318180 -0.252079
vt -0.045454 -0.252079
vt -0.045454 0.554801
vt 1.318180 0.516108
vt 0.045454 0.516108
vt 0.000000 0.112667
vt 1.363640 0.112667
vt 0.000000 -0.655519
vt 0.000000 -0.252079
vt -1.363640 -0.252079
vt -1.363640 -0.655519
vt 0.045454 1.322990
vt 1.318180 1.322990
vt 1.363640 0.516108
vt 0.000000 0.516108
vt 1.454550 -0.746428
vt -0.090909 -0.746428
vt 0.090909 0.021758
vt -1.363640 0.112667
vt -1.454550 0.021758
vt -1.454550 -0.746428
vt 0.090909 -0.746428
vt 1.454550 0.554801
vt 1.363640 -0.252079
vt 0.045454 -0.252079
vt 0.045454 0.554801
vt -0.090909 0.554801
vt -0.045454 1.322990
vt -0.045454 0.516108
vt 0.090909 1.322990
vt 1.363640 -0.655519
vt -0.756930 1.187580
vt -1.489960 0.112464
vt -1.414850 0.061252
vt -0.681818 1.136360
vt -0.681818 1.297740
vt -0.606707 1.187580
vt 0.126324 0.112464
vt 0.051212 0.061252
vt -1.454550 1.294400
vt -1.454550 1.203490
vt 0.090909 1.203490
vt 0.090909 1.294400
vt 1.318180 0.554801
vt 1.318180 -0.252079
vt 1.489960 0.112464
vt 0.756930 1.187580
vt 0.681818 1.136360
vt 1.414850 0.061252
vt -1.363640 0.516108
vt -1.318180 0.516108
vt -1.318180 1.322990
vt -1.454550 1.322990
vt 0.681818 1.297740
vt 0.606707 1.187580
vt -0.090909 0.021758
vt 1.454550 0.021758
vt -0.051212 0.061252
vt -0.126324 0.112464
vt -0.090909 0.167728
vt -0.090909 0.076819
vt 1.454550 0.076819
vt 1.454550 0.167728
vn 1.0000 0.0000 0.0000
vn -1.0000 0.0000 0.0000
vn 0.0000 -1.0000 -0.0000
vn 0.0000 0.0000 -1.0000
vn 0.0000 0.0000 1.0000
vn 0.0000 0.5633 0.8262
vn 0.0000 0.5633 -0.8262
vn 0.0000 -0.5633 0.8262
vn -0.0000 -0.5633 -0.8262
vn 0.0000 -0.8262 -0.5633
vn 0.0000 -0.8262 0.5633
usemtl Light_Stone.003
s 1
f 5/1/1 3/2/1 2/3/1
f 20/4/1 12/5/1 11/6/1
f 9/7/2 21/8/2 10/9/2
f 4/10/2 6/11/2 1/12/2
f 13/13/3 14/14/3 7/15/3 8/16/3
f 14/14/3 5/17/3 2/18/3
f 11/19/3 13/13/3 8/16/3 10/20/3
f 1/12/3 6/21/3 7/15/3
f 8/16/3 9/22/3 10/20/3
f 16/23/4 15/24/4 5/25/4 14/26/4
f 11/19/3 12/27/3 13/13/3
f 5/1/1 15/28/1 3/2/1
f 13/29/5 12/30/5 19/31/5 17/32/5
f 20/4/1 19/33/1 12/5/1
f 14/14/3 2/18/3 1/12/3 7/15/3
f 23/34/5 22/35/5 9/36/5 8/37/5
f 20/38/4 11/39/4 10/40/4 21/41/4
f 9/7/2 22/42/2 21/8/2
f 7/43/4 6/44/4 42/45/4 41/46/4
f 4/10/2 42/47/2 6/11/2
f 4/10/5 1/12/5 2/48/5 3/49/5
usemtl Dark_Stone.004
f 17/50/1 18/51/1 16/52/1
f 13/53/1 17/50/1 16/52/1 14/54/1
f 7/55/2 41/56/2 23/57/2 8/58/2
f 41/56/2 24/59/2 23/57/2
f 39/60/6 32/61/6 31/62/6 40/63/6
f 40/64/7 31/65/7 30/66/7 36/67/7
usemtl Green_Roof.002
f 18/68/7 17/69/7 23/70/7 24/71/7
f 16/72/6 41/73/6 4/74/6 3/75/6
f 21/76/7 22/77/7 23/70/7
f 17/69/7 19/78/7 20/79/7
f 24/80/6 41/73/6 16/72/6 18/81/6
f 23/70/7 17/69/7 20/79/7 21/76/7
f 3/75/6 15/82/6 16/72/6
f 41/73/6 42/83/6 4/74/6
usemtl Red_Roof.004
f 25/84/8 21/76/8 28/85/8
f 37/86/9 3/87/9 34/88/9
f 30/66/7 29/89/7 35/90/7 36/67/7
f 25/84/8 26/91/8 19/92/8
f 22/77/8 23/93/8 24/94/8 27/95/8
f 24/96/9 41/97/9 42/83/9 27/98/9
f 27/95/8 28/85/8 22/77/8
f 25/84/8 19/92/8 20/99/8
f 21/76/8 22/77/8 28/85/8
f 25/84/8 20/99/8 21/76/8
f 36/100/2 35/101/2 28/102/2 27/103/2
f 40/104/2 36/100/2 27/103/2 39/105/2
f 38/106/2 39/105/2 27/103/2 37/107/2
f 29/108/10 25/109/10 28/110/10 35/111/10
f 18/112/8 17/113/8 19/92/8 26/91/8
f 29/114/1 30/115/1 26/116/1 25/117/1
f 37/86/9 27/98/9 42/83/9
f 15/118/9 16/119/9 18/120/9 26/121/9
f 26/121/9 34/88/9 15/118/9
f 37/86/9 42/83/9 4/74/9
f 3/87/9 15/118/9 34/88/9
f 37/86/9 4/74/9 3/87/9
f 31/122/1 32/123/1 26/116/1 30/115/1
f 39/60/6 38/124/6 33/125/6 32/61/6
f 34/126/1 26/116/1 32/123/1 33/127/1
f 38/128/11 37/129/11 34/130/11 33/131/11
