# Blender v2.79 (sub 0) OBJ File: ''
# www.blender.org
mtllib Stairs_Wood_01.mtl
o Mesh1_Stairs_Wood_Model
v 0.750000 -1.100000 0.750000
v 0.750000 -1.100000 -0.750000
v 1.500000 -1.100000 -0.750000
v 1.500000 -1.100000 0.750000
v -1.500000 0.550000 0.750000
v -1.500000 0.550000 -0.750000
v -1.500000 1.100000 0.750000
v 1.500000 -0.825000 0.750000
v 1.125000 -0.825000 0.750000
v 1.125000 -0.550000 0.750000
v 0.750000 -0.550000 0.750000
v 0.750000 -0.275000 0.750000
v 0.375000 -0.275000 0.750000
v 0.375000 -0.000000 0.750000
v 0.000000 -0.000000 0.750000
v 0.000000 0.275000 0.750000
v -0.375000 0.275000 0.750000
v -0.375000 0.550000 0.750000
v -0.750000 0.550000 0.750000
v -0.750000 0.825000 0.750000
v -1.125000 0.825000 0.750000
v -1.125000 1.100000 0.750000
v -1.500000 1.100000 -0.750000
v -1.125000 1.100000 -0.750000
v -1.125000 0.825000 -0.750000
v -0.750000 0.825000 -0.750000
v -0.750000 0.550000 -0.750000
v -0.375000 0.550000 -0.750000
v -0.375000 0.275000 -0.750000
v 0.000000 0.275000 -0.750000
v 0.000000 0.000000 -0.750000
v 0.375000 0.000000 -0.750000
v 0.375000 -0.275000 -0.750000
v 0.750000 -0.275000 -0.750000
v 0.750000 -0.550000 -0.750000
v 1.125000 -0.550000 -0.750000
v 1.125000 -0.825000 -0.750000
v 1.500000 -0.825000 -0.750000
vt 0.340909 0.750000
vt 0.170455 0.875000
vt 0.000000 0.750000
vt -0.852273 0.375000
vt -1.022730 0.250000
vt -1.022730 -0.000000
vt -0.681818 -0.824732
vt 0.000000 -0.824732
vt 0.000000 0.443523
vt -0.681818 0.443523
vt 0.000000 1.000000
vt -0.681818 1.000000
vt -0.681818 0.750000
vt 1.022730 -0.000000
vt 1.193180 0.125000
vt 1.193180 0.250000
vt 1.022730 0.250000
vt 0.681818 0.500000
vt 1.363640 -0.000000
vt 1.363640 0.125000
vt 0.000000 1.000000
vt -0.170455 1.000000
vt -0.170455 0.875000
vt 0.000000 0.750000
vt 1.022730 0.375000
vt 0.852273 0.375000
vt 0.852273 0.500000
vt 0.681818 0.625000
vt 0.511364 0.625000
vt 0.511364 0.750000
vt 0.340909 0.875000
vt -0.000000 -0.000000
vt 0.170455 -0.000000
vt 0.170455 0.681818
vt -0.000000 0.681818
vt -1.363640 0.125000
vt -1.363640 -0.000000
vt -1.193180 0.125000
vt -0.681818 0.500000
vt -1.193180 0.250000
vt -0.340909 0.875000
vt -0.340909 0.750000
vt -0.511364 0.750000
vt -0.511364 0.625000
vt -0.681818 0.625000
vt -0.852273 0.500000
vt -1.022730 0.375000
vt 0.681818 1.000000
vt -0.000000 1.000000
vt -0.000000 0.875000
vt 0.681818 0.875000
vt 0.170455 0.681818
vt 0.170455 -0.000000
vt 0.340909 -0.000000
vt 0.340909 0.681818
vt 0.681818 0.875000
vt -0.000000 0.875000
vt -0.000000 0.750000
vt 0.681818 0.750000
vt 0.340909 0.681818
vt 0.340909 -0.000000
vt 0.511364 -0.000000
vt 0.511364 0.681818
vt 0.681818 0.750000
vt -0.000000 0.750000
vt -0.000000 0.625000
vt 0.681818 0.625000
vt 0.511364 0.681818
vt 0.511364 -0.000000
vt 0.681818 -0.000000
vt 0.681818 0.681818
vt 0.681818 0.625000
vt -0.000000 0.625000
vt -0.000000 0.500000
vt 0.681818 0.500000
vt 0.681818 0.681818
vt 0.681818 -0.000000
vt 0.852273 -0.000000
vt 0.852273 0.681818
vt 0.681818 0.500000
vt -0.000000 0.500000
vt -0.000000 0.375000
vt 0.681818 0.375000
vt 0.852273 0.681818
vt 0.852273 -0.000000
vt 1.022730 -0.000000
vt 1.022730 0.681818
vt 0.681818 0.375000
vt -0.000000 0.375000
vt -0.000000 0.250000
vt 0.681818 0.250000
vt 1.022730 0.681818
vt 1.022730 -0.000000
vt 1.193180 -0.000000
vt 1.193180 0.681818
vt 0.681818 0.250000
vt -0.000000 0.250000
vt -0.000000 0.125000
vt 0.681818 0.125000
vt 1.193180 0.681818
vt 1.193180 -0.000000
vt 1.363640 -0.000000
vt 1.363640 0.681818
vt -0.000000 0.000000
vt 0.681818 0.000000
vt 0.681818 0.125000
vt -0.000000 0.125000
vt 0.170455 1.000000
vt -1.363640 0.000000
vt -1.022730 0.000000
vt -1.022730 0.681818
vt -1.363640 0.681818
vn 0.0000 -0.0000 1.0000
vn 0.0000 0.0000 -1.0000
vn -0.5914 -0.8064 -0.0000
vn -1.0000 0.0000 0.0000
vn 0.0000 1.0000 0.0000
vn 1.0000 0.0000 0.0000
vn 0.0000 -1.0000 0.0000
usemtl Wood
s 1
f 19/1/1 21/2/1 5/3/1
f 33/4/2 35/5/2 2/6/2
f 2/7/3 1/8/3 5/9/3 6/10/3
f 7/11/4 23/12/4 6/13/4 5/3/4
f 1/14/1 9/15/1 10/16/1 11/17/1
f 5/3/1 1/14/1 15/18/1
f 1/14/1 4/19/1 9/15/1
f 4/19/1 8/20/1 9/15/1
f 23/21/2 24/22/2 25/23/2 6/24/2
f 11/17/1 12/25/1 13/26/1
f 13/26/1 14/27/1 15/18/1
f 15/18/1 16/28/1 17/29/1
f 17/29/1 18/30/1 19/1/1
f 19/1/1 20/31/1 21/2/1
f 13/26/1 1/14/1 11/17/1
f 13/26/1 15/18/1 1/14/1
f 15/18/1 17/29/1 5/3/1
f 17/29/1 19/1/1 5/3/1
f 7/32/5 22/33/5 24/34/5 23/35/5
f 38/36/2 3/37/2 37/38/2
f 3/37/2 2/6/2 37/38/2
f 2/6/2 6/24/2 31/39/2
f 37/38/2 2/6/2 35/5/2 36/40/2
f 25/23/2 26/41/2 27/42/2
f 27/42/2 28/43/2 29/44/2
f 29/44/2 30/45/2 31/39/2
f 31/39/2 32/46/2 33/4/2
f 33/4/2 34/47/2 35/5/2
f 6/24/2 25/23/2 27/42/2
f 27/42/2 29/44/2 6/24/2
f 29/44/2 31/39/2 6/24/2
f 31/39/2 33/4/2 2/6/2
f 24/48/6 22/49/6 21/50/6 25/51/6
f 25/52/5 21/53/5 20/54/5 26/55/5
f 26/56/6 20/57/6 19/58/6 27/59/6
f 27/60/5 19/61/5 18/62/5 28/63/5
f 28/64/6 18/65/6 17/66/6 29/67/6
f 29/68/5 17/69/5 16/70/5 30/71/5
f 30/72/6 16/73/6 15/74/6 31/75/6
f 31/76/5 15/77/5 14/78/5 32/79/5
f 32/80/6 14/81/6 13/82/6 33/83/6
f 33/84/5 13/85/5 12/86/5 34/87/5
f 34/88/6 12/89/6 11/90/6 35/91/6
f 35/92/5 11/93/5 10/94/5 36/95/5
f 36/96/6 10/97/6 9/98/6 37/99/6
f 37/100/5 9/101/5 8/102/5 38/103/5
f 4/104/6 3/105/6 38/106/6 8/107/6
f 7/11/1 5/3/1 21/2/1 22/108/1
f 4/109/7 1/110/7 2/111/7 3/112/7
