# Blender v2.79 (sub 0) OBJ File: ''
# www.blender.org
mtllib Stair_Wood_Collider.mtl
o Mesh1_Stairs_Wood_Model
v -1.500000 0.550000 0.750000
v 0.750000 -1.100000 -0.750000
v 0.750000 -1.100000 0.750000
v -1.500000 0.550000 -0.750000
v -1.500000 1.100000 0.750000
v -1.500000 1.100000 -0.750000
v 1.500000 -1.100000 0.750000
v 1.500000 -1.100000 -0.750000
vt -0.681818 -0.824732
vt 0.000000 -0.824732
vt 0.000000 0.443523
vt -0.681818 0.443523
vt 0.000000 1.000000
vt -0.681818 1.000000
vt -0.681818 0.750000
vt 0.000000 0.750000
vt -1.022730 0.681818
vt -1.363640 0.681818
vt -1.022730 0.000000
vt -1.363640 0.000000
vn -0.5914 -0.8064 -0.0000
vn -1.0000 0.0000 0.0000
vn 0.0000 0.0000 -1.0000
vn -0.0000 -0.0000 1.0000
vn 0.5914 0.8064 0.0000
vn 0.0000 -1.0000 0.0000
usemtl Wood
s 1
f 2/1/1 3/2/1 1/3/1 4/4/1
f 5/5/2 6/6/2 4/7/2 1/8/2
f 2/9/3 4/7/3 6/6/3 8/10/3
f 5/5/4 1/3/4 3/11/4 7/12/4
f 8/10/5 6/6/5 5/5/5 7/12/5
f 7/12/6 3/11/6 2/9/6 8/10/6
