# Blender v2.79 (sub 0) OBJ File: ''
# www.blender.org
mtllib Wood_Window_Narrow_01.mtl
o Mesh1_Wood_Window_Narrow_Model
v -0.150000 1.100000 1.000000
v -0.250000 1.100000 1.000000
v -0.250000 1.100000 1.500000
v 0.150000 1.100000 -1.000000
v 0.250000 1.100000 -1.000000
v 0.250000 1.100000 -1.500000
v 0.150000 -1.100000 1.000000
v 0.250000 -1.100000 1.500000
v -0.250000 -1.100000 1.500000
v -0.150000 -1.100000 1.000000
v 0.250000 1.100000 1.500000
v 0.250000 1.100000 1.000000
v 0.150000 1.100000 1.000000
v -0.250000 -1.100000 1.000000
v 0.250000 -1.100000 1.000000
v -0.150000 1.100000 -1.000000
v -0.250000 1.100000 -1.500000
v -0.250000 -1.100000 -1.500000
v -0.250000 -1.100000 -1.000000
v -0.250000 1.100000 -1.000000
v -0.150000 -1.100000 -1.000000
v 0.250000 -1.100000 -1.500000
v 0.150000 -1.100000 -1.000000
v 0.250000 -1.100000 -1.000000
v -0.150000 -0.517788 0.154450
v -0.150000 -0.517788 -0.154450
v -0.150000 0.627000 0.109210
v 0.150000 -0.517788 0.154450
v 0.150000 0.517790 0.154450
v 0.150000 0.627000 -0.109210
v 0.150000 0.517790 -0.154450
v 0.150000 0.672230 0.000000
v 0.150000 0.627000 0.109210
v -0.150000 0.517790 -0.154450
v 0.150000 -0.517788 -0.154450
v -0.150000 0.517790 0.154450
v -0.150000 0.672230 0.000000
v -0.150000 0.627000 -0.109210
vt 0.045454 0.227273
vt 0.000000 0.227273
vt 0.000000 0.000000
vt 0.181818 1.136360
vt 0.227273 1.136360
vt 0.227273 1.363640
vt -0.181818 0.227273
vt -0.227273 0.000000
vt 0.000000 0.000000
vt -0.045454 0.227273
vt 0.227273 0.000000
vt 0.227273 0.227273
vt 0.181818 0.227273
vt -0.045454 0.000000
vt 0.000000 0.000000
vt 0.000000 1.000000
vt -0.045454 1.000000
vt 0.000000 0.227273
vt -0.227273 0.227273
vt 0.045454 1.136360
vt 0.000000 1.363640
vt 0.000000 1.000000
vt -0.227273 1.000000
vt -0.227273 0.000000
vt 0.227273 0.000000
vt 0.227273 1.000000
vt -1.363640 1.000000
vt -1.363640 0.000000
vt -1.136360 0.000000
vt -1.136360 1.000000
vt -0.045454 1.136360
vt 0.000000 1.363640
vt -0.227273 1.363640
vt -0.181818 1.136360
vt 0.000000 1.136360
vt 0.181818 0.000000
vt 0.227273 0.000000
vt 0.227273 1.000000
vt 0.181818 1.000000
vt -0.227273 1.136360
vt 0.000000 1.136360
vt 1.363640 0.000000
vt 1.363640 1.000000
vt 1.136360 1.000000
vt 1.136360 0.000000
vt -0.227273 1.000000
vt -0.227273 0.000000
vt 0.000000 0.000000
vt 0.000000 1.000000
vt 0.045454 1.000000
vt 0.000000 1.000000
vt 0.000000 0.000000
vt 0.045454 0.000000
vt -0.181818 1.000000
vt -0.227273 1.000000
vt -0.227273 0.000000
vt -0.181818 0.000000
vt 0.000000 1.000000
vt 0.000000 0.000000
vt 0.227273 0.000000
vt 0.227273 1.000000
vt -0.611615 0.264642
vt -0.752021 0.264642
vt -1.136360 0.000000
vt -0.227273 0.000000
vt -0.632177 0.784999
vt -0.227273 1.000000
vt -1.136360 1.000000
vt 0.227273 0.000000
vt 0.611615 0.264642
vt 0.611615 0.735358
vt 0.227273 1.000000
vt 1.136360 1.000000
vt 0.731459 0.784999
vt 0.752021 0.735358
vt 0.681818 0.805561
vt 0.632177 0.784999
vt -0.752021 0.735358
vt 1.136360 0.000000
vt 0.752021 0.264642
vt -0.611615 0.735358
vt -0.681818 0.805561
vt -0.731459 0.784999
vt -0.045454 0.967168
vt -0.181818 0.967168
vt -0.181818 0.913437
vt -0.045454 0.913437
vt -0.045454 0.735358
vt -0.181818 0.735358
vt -0.181818 0.264642
vt -0.045454 0.264642
vt 0.045454 0.611615
vt 0.181818 0.611615
vt 0.181818 0.752021
vt 0.045454 0.752021
vt 0.045454 0.264642
vt 0.181818 0.264642
vt 0.181818 0.735358
vt 0.045454 0.735358
vt 0.045454 0.391596
vt 0.181818 0.391596
vt 0.181818 0.445327
vt 0.045454 0.445327
vt 0.045454 -0.375374
vt 0.181818 -0.375374
vt 0.181818 -0.321643
vt 0.045454 -0.321643
vt -0.045454 0.938193
vt -0.181818 0.938193
vt -0.181818 0.884462
vt -0.045454 0.884462
vn 0.0000 1.0000 0.0000
vn 0.0000 -1.0000 -0.0000
vn 0.0000 0.0000 -1.0000
vn -1.0000 0.0000 0.0000
vn 0.0000 0.0000 1.0000
vn 1.0000 0.0000 0.0000
vn 0.0000 -0.3827 -0.9239
vn 0.0000 -0.3827 0.9239
vn 0.0000 -0.9239 0.3826
vn 0.0000 -0.9239 -0.3826
usemtl Wood.021
s 1
f 1/1/1 2/2/1 3/3/1
f 4/4/1 5/5/1 6/6/1
f 7/7/2 8/8/2 9/9/2 10/10/2
f 11/11/1 12/12/1 13/13/1
f 10/14/3 14/15/3 2/16/3 1/17/3
f 9/9/2 14/18/2 10/10/2
f 7/7/2 15/19/2 8/8/2
f 16/20/1 4/4/1 6/6/1 17/21/1
f 9/9/4 3/22/4 2/23/4 14/24/4
f 3/22/5 9/9/5 8/25/5 11/26/5
f 17/27/4 18/28/4 19/29/4 20/30/4
f 21/31/2 18/32/2 22/33/2 23/34/2
f 17/21/1 20/35/1 16/20/1
f 23/36/5 24/37/5 5/38/5 4/39/5
f 22/33/2 24/40/2 23/34/2
f 21/31/2 19/41/2 18/32/2
f 22/42/6 6/43/6 5/44/6 24/45/6
f 6/46/3 22/47/3 18/48/3 17/49/3
f 16/50/5 20/51/5 19/52/5 21/53/5
f 13/54/3 12/55/3 15/56/3 7/57/3
f 13/13/1 1/1/1 3/3/1 11/11/1
f 11/58/6 8/59/6 15/60/6 12/61/6
usemtl Dark_Stone.027
f 25/62/4 26/63/4 21/64/4 10/65/4
f 27/66/4 1/67/4 16/68/4
f 7/69/6 28/70/6 29/71/6 13/72/6
f 4/73/6 30/74/6 31/75/6
f 4/73/6 32/76/6 30/74/6
f 33/77/6 13/72/6 29/71/6
f 21/64/4 26/63/4 34/78/4 16/68/4
f 13/72/6 33/77/6 32/76/6 4/73/6
f 23/79/6 35/80/6 28/70/6 7/69/6
f 25/62/4 10/65/4 36/81/4
f 27/66/4 16/68/4 37/82/4
f 37/82/4 16/68/4 38/83/4
f 38/83/4 16/68/4 34/78/4
f 27/66/4 36/81/4 10/65/4 1/67/4
f 13/13/1 4/4/1 16/20/1 1/1/1
f 35/80/6 23/79/6 4/73/6 31/75/6
f 7/7/2 10/10/2 21/31/2 23/34/2
f 27/84/7 33/85/7 29/86/7 36/87/7
f 36/88/3 29/89/3 28/90/3 25/91/3
f 25/92/1 28/93/1 35/94/1 26/95/1
f 26/96/5 35/97/5 31/98/5 34/99/5
f 34/100/8 31/101/8 30/102/8 38/103/8
f 38/104/9 30/105/9 32/106/9 37/107/9
f 37/108/10 32/109/10 33/110/10 27/111/10
