# Blender v2.79 (sub 0) OBJ File: ''
# www.blender.org
mtllib Wood_Window_Round_Sill_01.mtl
o Mesh1_Wood_Window_Round_Sill_Model
v -0.150000 1.100000 1.000000
v -0.250000 1.100000 1.000000
v -0.250000 1.100000 1.500000
v 0.150000 1.100000 -1.000000
v 0.250000 1.100000 -1.000000
v 0.250000 1.100000 -1.500000
v 0.150000 -1.100000 1.000000
v 0.250000 -1.100000 1.500000
v -0.250000 -1.100000 1.500000
v -0.150000 -1.100000 1.000000
v 0.250000 1.100000 1.500000
v 0.250000 1.100000 1.000000
v 0.150000 1.100000 1.000000
v -0.250000 -1.100000 1.000000
v 0.250000 -1.100000 1.000000
v -0.150000 1.100000 -1.000000
v -0.250000 1.100000 -1.500000
v -0.250000 -1.100000 -1.500000
v -0.250000 -1.100000 -1.000000
v -0.250000 1.100000 -1.000000
v -0.150000 -1.100000 -1.000000
v 0.250000 -1.100000 -1.500000
v 0.150000 -1.100000 -1.000000
v 0.250000 -1.100000 -1.000000
v 0.150000 -0.442338 0.252340
v 0.150000 -0.542338 0.252340
v -0.150000 -0.542338 0.252340
v -0.150000 -0.442338 0.252340
v 0.150000 -0.542338 -0.252340
v -0.150000 -0.542338 -0.252340
v -0.150000 -0.442338 -0.252340
v 0.150000 -0.442338 -0.252340
v 0.250000 -0.442338 -0.252340
v 0.250000 -0.442338 0.252340
v 0.250000 -0.542338 0.252340
v 0.250000 -0.542338 -0.252340
v -0.150000 0.604680 0.000000
v -0.150000 0.530770 0.178430
v 0.150000 0.530770 0.178430
v 0.150000 0.604680 0.000000
v 0.150000 0.530770 -0.178430
v 0.150000 0.352340 -0.252340
v -0.150000 0.352340 0.252340
v 0.150000 0.352340 0.252340
v -0.150000 0.352340 -0.252340
v -0.150000 0.530770 -0.178430
vt 0.045454 0.227273
vt 0.000000 0.227273
vt 0.000000 0.000000
vt 0.181818 1.136360
vt 0.227273 1.136360
vt 0.227273 1.363640
vt -0.181818 0.227273
vt -0.227273 0.000000
vt 0.000000 0.000000
vt -0.045454 0.227273
vt 0.227273 0.000000
vt 0.227273 0.227273
vt 0.181818 0.227273
vt -0.045454 0.000000
vt 0.000000 0.000000
vt 0.000000 1.000000
vt -0.045454 1.000000
vt 0.000000 0.227273
vt -0.227273 0.227273
vt 0.045454 1.136360
vt 0.000000 1.363640
vt 0.000000 1.000000
vt -0.227273 1.000000
vt -0.227273 0.000000
vt 0.227273 0.000000
vt 0.227273 1.000000
vt -1.363640 1.000000
vt -1.363640 0.000000
vt -1.136360 0.000000
vt -1.136360 1.000000
vt -0.045454 1.136360
vt 0.000000 1.363640
vt -0.227273 1.363640
vt -0.181818 1.136360
vt 0.000000 1.136360
vt 0.181818 0.000000
vt 0.227273 0.000000
vt 0.227273 1.000000
vt 0.181818 1.000000
vt -0.227273 1.136360
vt 0.000000 1.136360
vt 1.363640 0.000000
vt 1.363640 1.000000
vt 1.136360 1.000000
vt 1.136360 0.000000
vt -0.227273 1.000000
vt -0.227273 0.000000
vt 0.000000 0.000000
vt 0.000000 1.000000
vt -0.181818 0.298937
vt -0.181818 0.253483
vt -0.045454 0.253483
vt -0.045454 0.298937
vt 0.045454 0.567119
vt 0.181818 0.567119
vt 0.181818 0.796517
vt 0.045454 0.796517
vt -0.796517 0.298937
vt -0.796517 0.253483
vt -0.567119 0.253483
vt -0.567119 0.298937
vt 0.181818 0.796517
vt 0.045454 0.796517
vt 0.045454 0.567119
vt 0.181818 0.567119
vt 0.227273 0.796517
vt 0.227273 0.567119
vt 0.227273 0.298937
vt 0.181818 0.298937
vt 0.181818 0.253483
vt 0.227273 0.253483
vt -0.227273 0.567119
vt -0.181818 0.567119
vt -0.181818 0.796517
vt -0.227273 0.796517
vt -0.227273 0.253483
vt -0.181818 0.253483
vt -0.181818 0.298937
vt -0.227273 0.298937
vt 0.045454 0.298937
vt 0.045454 0.253483
vt 0.181818 0.253483
vt 0.181818 0.298937
vt 0.567119 0.298937
vt 0.567119 0.253483
vt 0.796517 0.253483
vt 0.796517 0.298937
vt 0.045454 1.000000
vt 0.000000 1.000000
vt 0.000000 0.000000
vt 0.045454 0.000000
vt -0.181818 1.000000
vt -0.227273 1.000000
vt -0.227273 0.000000
vt -0.181818 0.000000
vt 0.000000 1.000000
vt 0.000000 0.000000
vt 0.227273 0.000000
vt 0.227273 1.000000
vt -1.136360 1.000000
vt -0.681818 0.774853
vt -0.600714 0.741258
vt -0.227273 1.000000
vt -1.136360 0.000000
vt 0.227273 1.000000
vt 0.600714 0.741258
vt 0.681818 0.774853
vt 1.136360 1.000000
vt 0.762923 0.741258
vt 0.796517 0.660154
vt -0.567119 0.660154
vt -0.227273 0.000000
vt 0.567119 0.660154
vt 0.796517 0.298937
vt 1.136360 0.000000
vt 0.227273 0.000000
vt 0.567119 0.253483
vt 0.567119 0.298937
vt 0.796517 0.253483
vt -0.796517 0.660154
vt -0.762923 0.741258
vt -0.045454 0.914717
vt -0.181818 0.914717
vt -0.181818 0.826930
vt -0.045454 0.826930
vt -0.045454 0.660154
vt -0.181818 0.660154
vt 0.181818 0.660154
vt 0.045454 0.660154
vt -0.045454 0.926441
vt -0.181818 0.926441
vt -0.181818 0.838654
vt -0.045454 0.838654
vt 0.045454 -0.421181
vt 0.181818 -0.421181
vt 0.181818 -0.333395
vt 0.045454 -0.333395
vt 0.045454 0.305089
vt 0.181818 0.305089
vt 0.181818 0.392875
vt 0.045454 0.392875
vn 0.0000 1.0000 0.0000
vn 0.0000 -1.0000 -0.0000
vn 0.0000 0.0000 -1.0000
vn -1.0000 0.0000 0.0000
vn 0.0000 0.0000 1.0000
vn 1.0000 0.0000 0.0000
vn 0.0000 -0.3827 -0.9239
vn 0.0000 -0.9239 -0.3827
vn 0.0000 -0.9239 0.3827
vn 0.0000 -0.3827 0.9239
usemtl Wood.024
s 1
f 1/1/1 2/2/1 3/3/1
f 4/4/1 5/5/1 6/6/1
f 7/7/2 8/8/2 9/9/2 10/10/2
f 11/11/1 12/12/1 13/13/1
f 10/14/3 14/15/3 2/16/3 1/17/3
f 9/9/2 14/18/2 10/10/2
f 7/7/2 15/19/2 8/8/2
f 16/20/1 4/4/1 6/6/1 17/21/1
f 9/9/4 3/22/4 2/23/4 14/24/4
f 3/22/5 9/9/5 8/25/5 11/26/5
f 17/27/4 18/28/4 19/29/4 20/30/4
f 21/31/2 18/32/2 22/33/2 23/34/2
f 17/21/1 20/35/1 16/20/1
f 23/36/5 24/37/5 5/38/5 4/39/5
f 22/33/2 24/40/2 23/34/2
f 21/31/2 19/41/2 18/32/2
f 22/42/6 6/43/6 5/44/6 24/45/6
f 6/46/3 22/47/3 18/48/3 17/49/3
f 25/50/3 26/51/3 27/52/3 28/53/3
f 27/54/1 26/55/1 29/56/1 30/57/1
f 31/58/4 30/59/4 27/60/4 28/61/4
f 32/62/1 31/63/1 28/64/1 25/65/1
f 33/66/1 32/62/1 25/65/1 34/67/1
f 34/68/5 25/69/5 26/70/5 35/71/5
f 35/72/2 26/73/2 29/74/2 36/75/2
f 36/76/3 29/77/3 32/78/3 33/79/3
f 31/80/5 30/81/5 29/82/5 32/83/5
f 34/84/6 35/85/6 36/86/6 33/87/6
f 16/88/5 20/89/5 19/90/5 21/91/5
f 13/92/3 12/93/3 15/94/3 7/95/3
f 13/13/1 1/1/1 3/3/1 11/11/1
f 11/96/6 8/97/6 15/98/6 12/99/6
usemtl Dark_Stone.030
f 16/100/4 37/101/4 38/102/4 1/103/4
f 21/104/4 30/59/4 31/58/4 16/100/4
f 13/105/6 39/106/6 40/107/6 4/108/6
f 4/108/6 41/109/6 42/110/6
f 4/108/6 40/107/6 41/109/6
f 38/102/4 43/111/4 10/112/4 1/103/4
f 39/106/6 13/105/6 44/113/6
f 32/114/6 23/115/6 4/108/6 42/110/6
f 7/116/6 26/117/6 44/113/6 13/105/6
f 27/60/4 10/112/4 43/111/4
f 44/113/6 26/117/6 25/118/5
f 29/119/6 23/115/6 32/114/6
f 45/120/4 16/100/4 31/58/4
f 46/121/4 16/100/4 45/120/4
f 37/101/4 16/100/4 46/121/4
f 27/60/4 30/59/4 21/104/4 10/112/4
f 27/60/4 43/111/4 28/61/5
f 13/13/1 4/4/1 16/20/1 1/1/1
f 23/115/6 29/119/6 26/117/6 7/116/6
f 7/7/2 10/10/2 21/31/2 23/34/2
f 38/122/7 39/123/7 44/124/7 43/125/7
f 43/126/3 44/127/3 25/50/3 28/53/3
f 42/128/5 45/129/5 31/80/5 32/83/5
f 37/130/8 40/131/8 39/132/8 38/133/8
f 46/134/9 41/135/9 40/136/9 37/137/9
f 45/138/10 42/139/10 41/140/10 46/141/10
