# Blender v2.79 (sub 0) OBJ File: ''
# www.blender.org
mtllib Wood_Door_Square_01.mtl
o Mesh1_Wood_Door_Square_Model
v -1.000000 1.100000 1.500000
v -1.000000 1.100000 1.000000
v -1.100000 1.100000 1.000000
v -1.400000 1.100000 1.000000
v -1.500000 1.100000 1.000000
v -1.500000 1.100000 1.500000
v -1.000000 -1.100000 1.500000
v -1.000000 -1.100000 1.000000
v -1.500000 -1.100000 1.000000
v -1.400000 -1.100000 1.000000
v -1.100000 -1.100000 1.000000
v -1.500000 -1.100000 1.500000
v -1.400000 -1.100000 -1.000000
v -1.400000 -1.100000 -0.611140
v -1.400000 0.815620 -0.611140
v -1.400000 0.815620 0.611141
v -1.400000 -1.100000 0.611141
v -1.400000 1.100000 -1.000000
v -1.100000 -1.100000 -1.000000
v -1.100000 -1.100000 -0.611140
v -1.100000 0.815620 0.611141
v -1.100000 0.815620 -0.611140
v -1.100000 1.100000 -1.000000
v -1.100000 -1.100000 0.611141
v -1.000000 -1.100000 -1.000000
v -1.000000 1.100000 -1.000000
v -1.000000 1.100000 -1.500000
v -1.000000 -1.100000 -1.500000
v -1.500000 1.100000 -1.500000
v -1.500000 1.100000 -1.000000
v -1.500000 -1.100000 -1.500000
v -1.500000 -1.100000 -1.000000
vt 0.045454 0.227273
vt 0.000000 0.227273
vt 0.000000 0.000000
vt 0.181818 1.136360
vt 0.227273 1.136360
vt 0.227273 1.363640
vt -0.181818 0.227273
vt -0.227273 0.000000
vt 0.000000 0.000000
vt -0.045454 0.227273
vt 0.227273 0.000000
vt 0.227273 0.227273
vt 0.181818 0.227273
vt -0.045454 0.000000
vt 0.000000 0.000000
vt 0.000000 1.000000
vt -0.045454 1.000000
vt 0.000000 0.227273
vt -0.227273 0.227273
vt 0.045454 1.136360
vt 0.000000 1.363640
vt 0.000000 1.000000
vt -0.227273 1.000000
vt -0.227273 0.000000
vt 0.227273 0.000000
vt 0.227273 1.000000
vt 0.181818 0.000000
vt 0.227273 0.000000
vt 0.227273 1.000000
vt 0.181818 1.000000
vt 1.363640 0.000000
vt 1.363640 1.000000
vt 1.136360 1.000000
vt 1.136360 0.000000
vt -1.363640 1.000000
vt -1.363640 0.000000
vt -1.136360 0.000000
vt -1.136360 1.000000
vt -0.045454 1.136360
vt 0.000000 1.363640
vt -0.227273 1.363640
vt -0.181818 1.136360
vt 0.000000 1.136360
vt 0.045454 1.000000
vt 0.000000 1.000000
vt 0.000000 0.000000
vt 0.045454 0.000000
vt -0.227273 1.136360
vt 0.000000 1.136360
vt -0.227273 1.000000
vt -0.227273 0.000000
vt 0.000000 0.000000
vt 0.000000 1.000000
vt -0.181818 1.000000
vt -0.227273 1.000000
vt -0.227273 0.000000
vt -0.181818 0.000000
vt 0.000000 1.000000
vt 0.000000 0.000000
vt 0.227273 0.000000
vt 0.227273 1.000000
vt -0.181818 0.959609
vt -0.045454 0.959609
vt 1.136360 -0.000000
vt 1.136360 1.000000
vt 0.959609 0.870738
vt 0.959609 -0.000000
vt 0.227273 -0.000000
vt 0.404027 -0.000000
vt 0.404027 0.870738
vt 0.227273 1.000000
vt -0.045454 0.404027
vt -0.045454 0.959609
vt -0.181818 0.959609
vt -0.181818 0.404027
vt -0.227273 0.000000
vt -0.227273 1.000000
vt -0.404027 0.870738
vt -0.404027 -0.000000
vt -0.959609 0.870738
vt -1.136360 1.000000
vt 0.045454 -0.000000
vt 0.181818 -0.000000
vt 0.181818 0.870738
vt 0.045454 0.870738
vt -0.045454 -0.000000
vt -0.045454 0.870738
vt -0.181818 0.870738
vt -0.181818 -0.000000
vt -0.045454 0.404027
vt -0.181818 0.404027
vt -1.136360 0.000000
vt -0.959609 -0.000000
vn 0.0000 1.0000 0.0000
vn 0.0000 -1.0000 -0.0000
vn 0.0000 0.0000 -1.0000
vn -1.0000 0.0000 0.0000
vn 0.0000 0.0000 1.0000
vn 1.0000 0.0000 0.0000
usemtl Wood.010
s 1
f 4/1/1 5/2/1 6/3/1
f 23/4/1 26/5/1 27/6/1
f 11/7/2 7/8/2 12/9/2 10/10/2
f 1/11/1 2/12/1 3/13/1
f 10/14/3 9/15/3 5/16/3 4/17/3
f 12/9/2 9/18/2 10/10/2
f 11/7/2 8/19/2 7/8/2
f 18/20/1 23/4/1 27/6/1 29/21/1
f 12/9/4 6/22/4 5/23/4 9/24/4
f 6/22/5 12/9/5 7/25/5 1/26/5
f 19/27/5 25/28/5 26/29/5 23/30/5
f 28/31/6 27/32/6 26/33/6 25/34/6
f 29/35/4 31/36/4 32/37/4 30/38/4
f 13/39/2 31/40/2 28/41/2 19/42/2
f 29/21/1 30/43/1 18/20/1
f 18/44/5 30/45/5 32/46/5 13/47/5
f 28/41/2 25/48/2 19/42/2
f 13/39/2 32/49/2 31/40/2
f 27/50/3 28/51/3 31/52/3 29/53/3
f 3/54/3 2/55/3 8/56/3 11/57/3
f 3/13/1 4/1/1 6/3/1 1/11/1
f 1/58/6 7/59/6 8/60/6 2/61/6
usemtl Dark_Stone.020
f 13/39/2 19/42/2 20/62/2 14/63/2
f 19/64/6 23/65/6 22/66/6 20/67/6
f 11/68/6 24/69/6 21/70/6 3/71/6
f 16/72/2 15/73/2 22/74/2 21/75/2
f 10/76/4 4/77/4 16/78/4 17/79/4
f 22/66/6 23/65/6 3/71/6 21/70/6
f 15/80/4 16/78/4 4/77/4 18/81/4
f 14/82/5 20/83/5 22/84/5 15/85/5
f 17/86/3 16/87/3 21/88/3 24/89/3
f 11/7/2 10/10/2 17/90/2 24/91/2
f 13/92/4 14/93/4 15/80/4 18/81/4
f 3/13/1 23/4/1 18/20/1 4/1/1
