# Blender v2.79 (sub 0) OBJ File: ''
# www.blender.org
mtllib Wood_Slanted_Wall_01.mtl
o Mesh1_Wood_Slanted_Wall_Model
v -1.000000 -1.100000 -1.500000
v -1.500000 -1.100000 -1.500000
v -1.500000 1.100000 -1.500000
v -1.000000 1.100000 -1.500000
v -1.000000 -1.100000 -1.000000
v -1.100000 -1.100000 -1.000000
v -1.400000 -1.100000 -1.000000
v -1.500000 -1.100000 -1.000000
v -1.000000 1.100000 -1.000000
v -1.100000 1.100000 -1.000000
v -1.500000 1.100000 -1.000000
v -1.400000 1.100000 -1.000000
v -1.400000 -1.100000 1.000000
v -1.400000 0.000000 1.000000
v -1.100000 -1.100000 1.000000
v -1.100000 0.000000 1.000000
v -1.000000 0.000000 1.500000
v -1.000000 0.000000 1.000000
v -1.500000 0.000000 1.000000
v -1.500000 0.000000 1.500000
v -1.000000 -1.100000 1.500000
v -1.000000 -1.100000 1.000000
v -1.500000 -1.100000 1.000000
v -1.500000 -1.100000 1.500000
vt 0.181818 1.136360
vt 0.227273 1.136360
vt 0.227273 1.363640
vt 0.045454 0.227273
vt 0.000000 0.227273
vt 0.000000 0.000000
vt 0.181818 0.000000
vt 0.227273 0.000000
vt 0.227273 1.000000
vt 0.181818 1.000000
vt -0.227273 1.363640
vt -0.227273 1.136360
vt -0.181818 1.136360
vt -0.045454 1.136360
vt 0.000000 1.136360
vt 0.000000 1.363640
vt 0.045454 1.136360
vt 0.000000 1.363640
vt 1.363640 0.000000
vt 1.363640 1.000000
vt 1.136360 1.000000
vt 1.136360 0.000000
vt -1.363640 1.000000
vt -1.363640 0.000000
vt -1.136360 0.000000
vt -1.136360 1.000000
vt 0.181818 0.227273
vt 0.227273 0.000000
vt 0.000000 1.136360
vt 0.045454 1.000000
vt 0.000000 1.000000
vt 0.000000 0.000000
vt 0.045454 0.000000
vt 0.000000 0.500000
vt 0.000000 0.000000
vt 0.227273 0.000000
vt 0.227273 0.500000
vt -0.181818 0.227273
vt -0.227273 0.000000
vt 0.000000 0.000000
vt -0.045454 0.227273
vt 0.227273 0.227273
vt -0.045454 0.000000
vt 0.000000 0.000000
vt 0.000000 0.500000
vt -0.045454 0.500000
vt 0.000000 0.227273
vt -0.227273 0.227273
vt -0.227273 0.000000
vt 0.000000 0.500000
vt -0.227273 0.500000
vt 0.227273 0.000000
vt 0.227273 0.500000
vt -0.181818 0.500000
vt -0.227273 0.500000
vt -0.227273 0.000000
vt -0.181818 0.000000
vt -0.227273 1.000000
vt -0.227273 0.000000
vt 0.000000 0.000000
vt 0.000000 1.000000
vt 0.227273 0.500000
vt 0.227273 0.000000
vt 1.136360 0.000000
vt 1.136360 1.000000
vt 0.045454 0.440099
vt 0.181818 0.440099
vt 0.181818 1.477620
vt 0.045454 1.477620
vt -0.227273 0.500000
vt -1.136360 1.000000
vt -1.136360 0.000000
vt -0.227273 0.000000
vn 0.0000 1.0000 0.0000
vn 0.0000 -0.0000 1.0000
vn 0.0000 -1.0000 -0.0000
vn 1.0000 0.0000 0.0000
vn -1.0000 -0.0000 0.0000
vn 0.0000 0.0000 -1.0000
vn 0.0000 0.8762 0.4819
usemtl Wood.014
s 1
f 10/1/1 9/2/1 4/3/1
f 14/4/1 19/5/1 20/6/1
f 6/7/2 5/8/2 9/9/2 10/10/2
f 1/11/3 5/12/3 6/13/3
f 7/14/3 8/15/3 2/16/3
f 12/17/1 10/1/1 4/3/1 3/18/1
f 1/19/4 4/20/4 9/21/4 5/22/4
f 3/23/5 2/24/5 8/25/5 11/26/5
f 16/27/1 14/4/1 20/6/1 17/28/1
f 3/18/1 11/29/1 12/17/1
f 12/30/2 11/31/2 8/32/2 7/33/2
f 17/34/4 21/35/4 22/36/4 18/37/4
f 15/38/3 21/39/3 24/40/3 13/41/3
f 17/28/1 18/42/1 16/27/1
f 13/43/6 23/44/6 19/45/6 14/46/6
f 24/40/3 23/47/3 13/41/3
f 15/38/3 22/48/3 21/39/3
f 23/49/5 24/40/5 20/50/5 19/51/5
f 20/50/2 24/40/2 21/52/2 17/53/2
f 16/54/6 18/55/6 22/56/6 15/57/6
f 7/14/3 2/16/3 1/11/3 6/13/3
f 4/58/6 1/59/6 2/60/6 3/61/6
usemtl Dark_Stone.021
f 15/38/3 13/41/3 7/14/3 6/13/3
f 16/62/4 15/63/4 6/64/4 10/65/4
f 14/66/7 16/67/7 10/68/7 12/69/7
f 14/70/5 12/71/5 7/72/5 13/73/5
