# Blender v2.79 (sub 0) OBJ File: ''
# www.blender.org
mtllib Wood_Corner_01.mtl
o Mesh1_Wood_Corner_Model
v -1.500000 -1.100000 -1.000000
v -1.500000 -1.100000 -1.500000
v -1.000000 -1.100000 -1.500000
v -1.000000 -1.100000 -1.250000
v -1.000000 -1.100000 -1.000000
v -1.250000 -1.100000 -1.000000
v -1.500000 1.100000 -1.000000
v -1.500000 1.100000 -1.500000
v -1.000000 1.100000 -1.000000
v -1.000000 1.100000 -1.250000
v -1.000000 1.100000 -1.500000
v -1.250000 1.100000 -1.000000
v 1.000000 1.100000 1.250000
v 1.000000 1.100000 1.000000
v 1.250000 1.100000 1.000000
v 1.000000 -1.100000 1.250000
v 1.250000 -1.100000 1.000000
v 1.000000 -1.100000 1.000000
v 1.500000 -1.100000 1.000000
v 1.500000 1.100000 1.000000
v 1.500000 -1.100000 1.500000
v 1.000000 -1.100000 1.500000
v 1.500000 1.100000 1.500000
v 1.000000 1.100000 1.500000
vt -0.113636 1.136360
vt 0.000000 1.136360
vt 0.000000 1.363640
vt -0.227273 1.363640
vt -0.227273 1.250000
vt 1.363640 0.000000
vt 1.363640 1.000000
vt 1.250000 1.000000
vt 1.250000 0.000000
vt 1.363640 0.000000
vt 1.250000 0.227273
vt 1.136360 0.227273
vt 1.136360 0.113636
vt 0.227273 1.250000
vt 0.227273 1.363640
vt 0.000000 1.363640
vt 0.000000 1.136360
vt 0.113636 1.136360
vt 0.227273 1.136360
vt -0.227273 0.000000
vt 0.000000 0.000000
vt 0.000000 1.000000
vt -0.227273 1.000000
vt -1.363640 1.000000
vt -1.363640 0.000000
vt -1.250000 0.000000
vt -1.250000 1.000000
vt 0.000000 1.000000
vt 0.000000 0.000000
vt 0.227273 0.000000
vt 0.227273 1.000000
vt -1.136360 0.000000
vt -1.136360 0.113636
vt -1.363640 0.000000
vt -0.227273 1.136360
vt -1.250000 0.227273
vt -1.363640 0.227273
vt 0.000000 0.000000
vt 0.000000 1.000000
vt -0.113636 1.000000
vt -0.113636 0.000000
vt 1.136360 0.000000
vt 1.363640 0.227273
vt -1.136360 0.227273
vt 1.136360 1.000000
vt 1.136360 0.000000
vt 1.363640 0.000000
vt 1.363640 1.000000
vt 0.000000 1.000000
vt 0.000000 0.000000
vt 0.113636 0.000000
vt 0.113636 1.000000
vt -1.136360 0.000000
vt -1.136360 1.000000
vt -1.363640 1.000000
vt -1.363640 0.000000
vt -0.723177 1.000000
vt -0.723177 0.000000
vt 0.723177 0.000000
vt 0.723177 1.000000
vt -0.723177 1.000000
vt -0.723177 0.000000
vt 0.723177 0.000000
vt 0.723177 1.000000
vn -0.0000 -1.0000 0.0000
vn 1.0000 0.0000 0.0000
vn 0.0000 1.0000 0.0000
vn 0.0000 0.0000 -1.0000
vn -1.0000 0.0000 0.0000
vn 0.0000 0.0000 1.0000
vn 0.7071 0.0000 -0.7071
vn -0.7071 -0.0000 0.7071
usemtl Wood.007
s 1
f 6/1/1 1/2/1 2/3/1
f 2/3/1 3/4/1 4/5/1
f 3/6/2 11/7/2 10/8/2 4/9/2
f 23/10/3 15/11/3 14/12/3 13/13/3
f 10/14/3 11/15/3 8/16/3
f 8/16/3 7/17/3 12/18/3
f 10/14/3 8/16/3 12/18/3 9/19/3
f 3/20/4 2/21/4 8/22/4 11/23/4
f 20/24/4 19/25/4 17/26/4 15/27/4
f 23/28/2 21/29/2 19/30/2 20/31/2
f 22/32/1 16/33/1 21/34/1
f 2/3/1 4/5/1 5/35/1 6/1/1
f 17/36/1 19/37/1 21/34/1
f 22/38/5 24/39/5 13/40/5 16/41/5
f 24/42/3 23/10/3 13/13/3
f 23/10/3 20/43/3 15/11/3
f 17/36/1 21/34/1 16/33/1 18/44/1
f 24/45/6 22/46/6 21/47/6 23/48/6
f 7/49/6 1/50/6 6/51/6 12/52/6
f 1/53/5 7/54/5 8/55/5 2/56/5
usemtl Dark_Stone.018
f 17/36/1 18/44/1 5/35/1 4/5/1
f 10/14/3 9/19/3 14/12/3 15/11/3
f 15/57/7 17/58/7 4/59/7 10/60/7
f 6/1/1 5/35/1 18/44/1 16/33/1
f 13/13/3 14/12/3 9/19/3 12/18/3
f 12/61/8 6/62/8 16/63/8 13/64/8
