# Blender v2.79 (sub 0) OBJ File: ''
# www.blender.org
mtllib Wood_Small_Wall_01.mtl
o Mesh1_Wood_Small_Wall_Model
v -0.150000 -0.000000 1.000000
v -0.250000 -0.000000 1.000000
v -0.250000 -0.000000 1.500000
v 0.150000 0.000000 -1.000000
v 0.250000 0.000000 -1.000000
v 0.250000 0.000000 -1.500000
v 0.150000 -1.100000 1.000000
v 0.250000 -1.100000 1.500000
v -0.250000 -1.100000 1.500000
v -0.150000 -1.100000 1.000000
v 0.250000 -0.000000 1.500000
v 0.250000 -0.000000 1.000000
v 0.150000 -0.000000 1.000000
v -0.250000 -1.100000 1.000000
v 0.250000 -1.100000 1.000000
v -0.150000 -1.100000 -1.000000
v -0.250000 -1.100000 -1.500000
v 0.250000 -1.100000 -1.500000
v 0.150000 -1.100000 -1.000000
v 0.250000 -1.100000 -1.000000
v -0.250000 -1.100000 -1.000000
v -0.150000 0.000000 -1.000000
v -0.250000 0.000000 -1.500000
v -0.250000 0.000000 -1.000000
vt 0.045454 0.227273
vt 0.000000 0.227273
vt 0.000000 0.000000
vt 0.181818 1.136360
vt 0.227273 1.136360
vt 0.227273 1.363640
vt -0.181818 0.227273
vt -0.227273 0.000000
vt 0.000000 0.000000
vt -0.045454 0.227273
vt 0.227273 0.000000
vt 0.227273 0.227273
vt 0.181818 0.227273
vt -0.045454 0.000000
vt 0.000000 0.000000
vt 0.000000 0.500000
vt -0.045454 0.500000
vt 0.000000 0.227273
vt -0.227273 0.227273
vt -0.045454 1.136360
vt 0.000000 1.363640
vt -0.227273 1.363640
vt -0.181818 1.136360
vt 0.000000 0.500000
vt -0.227273 0.500000
vt -0.227273 0.000000
vt 0.227273 0.000000
vt 0.227273 0.500000
vt 0.181818 0.000000
vt 0.227273 0.000000
vt 0.227273 0.500000
vt 0.181818 0.500000
vt -0.227273 1.136360
vt 0.000000 1.136360
vt 0.045454 1.136360
vt 0.000000 1.363640
vt 1.363640 0.000000
vt 1.363640 0.500000
vt 1.136360 0.500000
vt 1.136360 0.000000
vt -1.363640 0.500000
vt -1.363640 0.000000
vt -1.136360 0.000000
vt -1.136360 0.500000
vt 0.000000 1.136360
vt 0.045454 0.500000
vt 0.000000 0.500000
vt 0.000000 0.000000
vt 0.045454 0.000000
vt -0.227273 0.500000
vt -0.227273 0.000000
vt 0.000000 0.000000
vt 0.000000 0.500000
vt -0.181818 0.500000
vt -0.227273 0.500000
vt -0.227273 0.000000
vt -0.181818 0.000000
vt 0.000000 0.500000
vt 0.000000 0.000000
vt 0.227273 0.000000
vt 0.227273 0.500000
vt -1.136360 0.500000
vt -1.136360 0.000000
vt -0.227273 0.000000
vt -0.227273 0.500000
vt 0.227273 0.500000
vt 0.227273 0.000000
vt 1.136360 0.000000
vt 1.136360 0.500000
vn 0.0000 1.0000 0.0000
vn 0.0000 -1.0000 -0.0000
vn 0.0000 0.0000 -1.0000
vn -1.0000 0.0000 0.0000
vn 0.0000 0.0000 1.0000
vn 1.0000 0.0000 0.0000
usemtl Wood.015
s 1
f 1/1/1 2/2/1 3/3/1
f 4/4/1 5/5/1 6/6/1
f 7/7/2 8/8/2 9/9/2 10/10/2
f 11/11/1 12/12/1 13/13/1
f 10/14/3 14/15/3 2/16/3 1/17/3
f 9/9/2 14/18/2 10/10/2
f 7/7/2 15/19/2 8/8/2
f 16/20/2 17/21/2 18/22/2 19/23/2
f 9/9/4 3/24/4 2/25/4 14/26/4
f 3/24/5 9/9/5 8/27/5 11/28/5
f 19/29/5 20/30/5 5/31/5 4/32/5
f 18/22/2 20/33/2 19/23/2
f 16/20/2 21/34/2 17/21/2
f 22/35/1 4/4/1 6/6/1 23/36/1
f 18/37/6 6/38/6 5/39/6 20/40/6
f 23/41/4 17/42/4 21/43/4 24/44/4
f 23/36/1 24/45/1 22/35/1
f 22/46/5 24/47/5 21/48/5 16/49/5
f 6/50/3 18/51/3 17/52/3 23/53/3
f 13/54/3 12/55/3 15/56/3 7/57/3
f 13/13/1 1/1/1 3/3/1 11/11/1
f 11/58/6 8/59/6 15/60/6 12/61/6
usemtl Dark_Stone.022
f 22/62/4 16/63/4 10/64/4 1/65/4
f 7/7/2 10/10/2 16/20/2 19/23/2
f 13/13/1 4/4/1 22/35/1 1/1/1
f 13/66/6 7/67/6 19/68/6 4/69/6
