# Blender v2.79 (sub 0) OBJ File: ''
# www.blender.org
mtllib Wood_Wall_Double_Cross_01.mtl
o Mesh1_Wood_Wall_Double_Cross_Model
v -0.150000 1.100000 1.000000
v -0.250000 1.100000 1.000000
v -0.250000 1.100000 1.500000
v 0.250000 0.825000 1.000000
v 0.250000 1.100000 1.000000
v 0.250000 1.100000 1.500000
v 0.250000 -0.825000 -1.000000
v 0.250000 -1.100000 -1.000000
v 0.250000 -1.100000 -1.500000
v 0.150000 1.100000 -1.000000
v 0.250000 1.100000 -1.000000
v 0.250000 1.100000 -1.500000
v 0.150000 -1.100000 1.000000
v 0.250000 -1.100000 1.500000
v -0.250000 -1.100000 1.500000
v -0.150000 -1.100000 1.000000
v 0.150000 1.100000 1.000000
v 0.250000 0.825000 -1.000000
v 0.250000 -1.100000 1.000000
v 0.250000 -0.825000 1.000000
v -0.250000 -1.100000 1.000000
v -0.150000 -1.100000 -1.000000
v -0.250000 -1.100000 -1.500000
v 0.150000 -1.100000 -1.000000
v 0.250000 -1.100000 -0.750000
v 0.150000 -1.100000 -0.750000
v -0.250000 -1.100000 -1.000000
v -0.150000 1.100000 -1.000000
v -0.250000 1.100000 -1.500000
v 0.150000 -0.825000 -1.000000
v 0.150000 0.825000 -1.000000
v 0.250000 1.100000 -0.750000
v 0.250000 0.275000 0.000000
v 0.250000 0.000000 -0.250000
v 0.250000 -0.275000 -0.000000
v 0.250000 -0.000000 0.250000
v -0.250000 1.100000 -1.000000
v 0.150000 0.000000 -0.250000
v 0.250000 -1.100000 0.750000
v 0.250000 1.100000 0.750000
v 0.150000 0.825000 1.000000
v 0.150000 -0.000000 0.250000
v 0.150000 1.100000 -0.750000
v 0.150000 1.100000 0.750000
v 0.150000 0.275000 0.000000
v 0.150000 -0.825000 1.000000
v 0.150000 -1.100000 0.750000
v 0.150000 -0.275000 -0.000000
vt 0.045454 0.227273
vt -0.000000 0.227273
vt 0.000000 0.000000
vt 0.227273 0.875000
vt 0.227273 1.000000
vt -0.000000 1.000000
vt 1.136360 0.125000
vt 1.136360 -0.000000
vt 1.363640 -0.000000
vt 0.181818 1.136360
vt 0.227273 1.136360
vt 0.227273 1.363640
vt -0.181818 0.227273
vt -0.227273 -0.000000
vt 0.000000 0.000000
vt -0.045454 0.227273
vt 0.227273 -0.000000
vt 0.227273 0.227273
vt 0.181818 0.227273
vt 1.136360 0.875000
vt 1.363640 1.000000
vt -0.000000 0.000000
vt 0.227273 0.000000
vt 0.227273 0.125000
vt 0.000000 0.227273
vt -0.227273 0.227273
vt -0.045454 1.136360
vt -0.000000 1.363640
vt -0.227273 1.363640
vt -0.181818 1.136360
vt 0.000000 1.000000
vt -0.227273 1.000000
vt -0.227273 0.000000
vt 0.227273 0.000000
vt 0.227273 1.000000
vt -0.227273 1.022730
vt -0.181818 1.022730
vt -0.227273 1.136360
vt 0.000000 1.136360
vt 0.045454 1.136360
vt 0.000000 1.363640
vt 0.181818 0.125000
vt 0.227273 0.125000
vt 0.227273 0.875000
vt 0.181818 0.875000
vt 1.022730 1.000000
vt 0.681818 0.625000
vt 0.795455 0.500000
vt 0.681818 0.375000
vt 1.022730 0.000000
vt 0.568182 0.500000
vt -1.363640 1.000000
vt -1.363640 0.000000
vt -1.136360 0.000000
vt -1.136360 1.000000
vt 1.136360 1.000000
vt -0.000000 1.136360
vt 0.045454 1.000000
vt -0.000000 1.000000
vt -0.000000 0.000000
vt 0.045454 0.000000
vt -0.227273 -0.671908
vt -0.181818 -0.671908
vt -0.181818 -0.165111
vt -0.227273 -0.165111
vt 0.340909 0.000000
vt 0.340909 1.000000
vt 0.227273 0.494567
vt 0.181818 0.494567
vt 0.181818 -0.012230
vt 0.227273 -0.012230
vt 0.181818 1.022730
vt 0.227273 1.022730
vt 0.227273 0.340909
vt 0.181818 0.340909
vt -0.227273 0.003822
vt -0.181818 0.003822
vt -0.181818 0.510620
vt -0.227273 0.510620
vt 0.227273 1.427900
vt 0.181818 1.427900
vt 0.181818 0.921103
vt 0.227273 0.921103
vt -0.227273 0.125000
vt -0.181818 0.125000
vt -0.181818 0.875000
vt -0.227273 0.875000
vt 0.227273 0.752170
vt 0.181818 0.752170
vt 0.181818 0.245373
vt 0.227273 0.245373
vt -0.181818 0.340909
vt -0.227273 0.340909
vt -0.227273 0.229320
vt -0.181818 0.229320
vt -0.181818 0.736118
vt -0.227273 0.736118
vt 0.227273 -0.181163
vt 0.181818 -0.181163
vt 0.181818 -0.687961
vt 0.227273 -0.687961
vt -0.227273 1.000000
vt -0.227273 0.000000
vt -0.000000 0.000000
vt -0.000000 1.000000
vt -0.227273 0.905051
vt -0.181818 0.905051
vt -0.181818 1.411850
vt -0.227273 1.411850
vt -0.045454 0.000000
vt 0.000000 0.000000
vt 0.000000 1.000000
vt -0.045454 1.000000
vt 1.136360 0.125000
vt 1.136360 0.875000
vt 0.795455 0.500000
vt 0.340909 1.000000
vt 0.681818 0.625000
vt 1.022730 1.000000
vt 0.227273 0.875000
vt 0.227273 0.125000
vt 0.568182 0.500000
vt 1.022730 0.000000
vt 0.681818 0.375000
vt 0.340909 0.000000
vt -1.136360 1.000000
vt -1.136360 0.000000
vt -0.227273 0.000000
vt -0.227273 1.000000
vt 1.136360 -0.000000
vt 1.136360 1.000000
vt 0.227273 1.000000
vt 0.227273 -0.000000
vt 0.181818 0.000000
vt 0.227273 0.000000
vt 0.227273 1.000000
vt 0.181818 1.000000
vt -0.181818 1.000000
vt -0.227273 1.000000
vt -0.227273 0.000000
vt -0.181818 0.000000
vt 15.748000 75.787399
vt 15.748000 86.614197
vt 3.937010 86.614197
vt -15.748000 75.787399
vt -15.748000 10.826800
vt -3.937010 -0.000000
vt 3.937010 -0.000000
vt 15.748000 10.826800
vt 15.748000 -0.000000
vt -15.748000 -0.000000
vt -3.937010 86.614197
vt -15.748000 86.614197
vn 0.0000 1.0000 0.0000
vn 1.0000 0.0000 0.0000
vn 0.0000 -1.0000 -0.0000
vn -1.0000 0.0000 0.0000
vn 0.0000 0.0000 1.0000
vn 0.0000 0.6727 -0.7399
vn 0.0000 -0.6727 0.7399
vn 0.0000 0.6727 0.7399
vn 0.0000 0.0000 -1.0000
vn 0.0000 -0.6727 -0.7399
usemtl Wood.020
s 1
f 1/1/1 2/2/1 3/3/1
f 4/4/2 5/5/2 6/6/2
f 7/7/2 8/8/2 9/9/2
f 10/10/1 11/11/1 12/12/1
f 13/13/3 14/14/3 15/15/3 16/16/3
f 6/17/1 5/18/1 17/19/1
f 18/20/2 7/7/2 9/9/2 12/21/2
f 14/22/2 19/23/2 20/24/2
f 15/15/3 21/25/3 16/16/3
f 13/13/3 19/26/3 14/14/3
f 22/27/3 23/28/3 9/29/3 24/30/3
f 15/15/4 3/31/4 2/32/4 21/33/4
f 3/31/5 15/15/5 14/34/5 6/35/5
f 25/36/3 26/37/3 24/30/3 8/38/3
f 9/29/3 8/38/3 24/30/3
f 22/27/3 27/39/3 23/28/3
f 28/40/1 10/10/1 12/12/1 29/41/1
f 30/42/5 7/43/5 18/44/5 31/45/5
f 18/20/2 32/46/2 33/47/2 34/48/2
f 35/49/2 25/50/2 7/7/2 34/48/2
f 34/48/2 33/47/2 36/51/2 35/49/2
f 29/52/4 23/53/4 27/54/4 37/55/4
f 12/21/2 11/56/2 18/20/2
f 20/24/2 4/4/2 6/6/2 14/22/2
f 29/41/1 37/57/1 28/40/1
f 28/58/5 37/59/5 27/60/5 22/61/5
f 7/62/6 30/63/6 38/64/6 34/65/6
f 8/8/2 7/7/2 25/50/2
f 20/24/2 39/66/2 35/49/2 36/51/2
f 4/4/2 36/51/2 33/47/2 40/67/2
f 18/20/2 11/56/2 32/46/2
f 17/19/1 1/1/1 3/3/1 6/17/1
f 40/67/2 5/5/2 4/4/2
f 20/24/2 19/23/2 39/66/2
f 4/68/7 41/69/7 42/70/7 36/71/7
f 11/11/1 10/10/1 43/72/1 32/73/1
f 40/74/1 44/75/1 17/19/1 5/18/1
f 33/76/6 45/77/6 44/78/6 40/79/6
f 32/80/8 43/81/8 45/82/8 33/83/8
f 20/84/9 46/85/9 41/86/9 4/87/9
f 36/88/8 42/89/8 46/90/8 20/91/8
f 19/26/3 13/13/3 47/92/3 39/93/3
f 39/94/10 47/95/10 48/96/10 35/97/10
f 35/98/7 48/99/7 26/100/7 25/101/7
f 12/102/9 9/103/9 23/104/9 29/105/9
f 34/106/10 38/107/10 31/108/10 18/109/10
f 16/110/9 21/111/9 2/112/9 1/113/9
usemtl Dark_Stone.026
f 30/114/2 31/115/2 38/116/2
f 44/117/2 45/118/2 43/119/2
f 41/120/2 46/121/2 42/122/2
f 26/123/2 48/124/2 47/125/2
f 28/126/4 22/127/4 16/128/4 1/129/4
f 13/13/3 16/16/3 47/92/3
f 22/27/3 24/30/3 26/37/3
f 24/130/2 30/114/2 26/123/2
f 46/121/2 47/125/2 48/124/2 42/122/2
f 41/120/2 42/122/2 45/118/2 44/117/2
f 31/115/2 10/131/2 43/119/2
f 44/117/2 17/132/2 41/120/2
f 46/121/2 13/133/2 47/125/2
f 44/75/1 43/72/1 28/40/1 1/1/1
f 7/43/5 30/42/5 24/134/5 8/135/5
f 31/115/2 43/119/2 45/118/2 38/116/2
f 48/124/2 26/123/2 30/114/2 38/116/2
f 11/136/5 10/137/5 31/45/5 18/44/5
f 4/87/9 41/86/9 17/138/9 5/139/9
f 43/72/1 10/10/1 28/40/1
f 26/37/3 47/92/3 16/16/3 22/27/3
f 1/1/1 17/19/1 44/75/1
f 19/140/9 13/141/9 46/85/9 20/84/9
f 38/116/2 45/118/2 42/122/2 48/124/2
usemtl Light_Stone.016
f 31/142/5 10/143/5 28/144/5
f 41/145/9 46/146/9 16/147/9
f 28/144/5 22/148/5 30/149/5
f 22/148/5 24/150/5 30/149/5
f 30/149/5 31/142/5 28/144/5
f 46/146/9 13/151/9 16/147/9
f 16/147/9 1/152/9 41/145/9
f 1/152/9 17/153/9 41/145/9
