# Blender v2.79 (sub 0) OBJ File: ''
# www.blender.org
o Mesh1_Wood_Door_Square_Model.002
v 0.250000 1.100000 -1.000000
v 0.250000 1.100000 -1.500000
v -0.250000 1.100000 -1.500000
v 0.250000 -1.100000 -1.000000
v 0.250000 -1.100000 -1.500000
v -0.250000 -1.100000 -1.500000
v -0.250000 -1.100000 -1.000000
v -0.250000 1.100000 -1.000000
v 0.150000 -1.100000 -0.611140
v -0.150000 -1.100000 -0.611140
v 0.150000 0.815620 -0.611140
v -0.150000 0.815620 -0.611140
vt 0.000000 0.000000
vt -0.227273 1.000000
vt -1.363640 1.000000
vt 0.000000 0.000000
vt 1.363640 0.000000
vt 1.363640 1.000000
vt 1.136360 1.000000
vt 1.136360 0.000000
vt -1.363640 0.000000
vt -1.136360 0.000000
vt -1.136360 1.000000
vt 0.181818 -0.000000
vt 0.045454 -0.000000
vt 0.181818 0.870738
vt -0.227273 0.000000
vt 0.000000 0.000000
vt 0.000000 1.000000
vt 0.045454 0.870738
vn 0.0000 1.0000 0.0000
vn 1.0000 0.0000 0.0000
vn -1.0000 0.0000 0.0000
vn 0.0000 -1.0000 0.0000
vn 0.9685 -0.0000 0.2491
vn 0.0000 0.0000 -1.0000
vn -0.9685 -0.0000 0.2491
vn 0.0000 -0.0000 1.0000
s 1
f 1/1/1 2/2/1 3/3/1 8/4/1
f 5/5/2 2/6/2 1/7/2 4/8/2
f 3/3/3 6/9/3 7/10/3 8/11/3
f 9/12/4 10/13/4 7/10/4 4/8/4
f 9/12/5 4/8/5 1/7/5 11/14/5
f 2/2/6 5/15/6 6/16/6 3/17/6
f 7/10/4 6/9/4 5/15/4 4/8/4
f 8/11/7 7/10/7 10/13/7 12/18/7
f 10/13/8 9/12/8 11/14/8 12/18/8
