# Blender v2.79 (sub 0) OBJ File: ''
# www.blender.org
mtllib Wood_Window_Round_Long_01.mtl
o Mesh1_Wood_Window_Round_Long_Model
v -0.150000 1.100000 1.000000
v -0.250000 1.100000 1.000000
v -0.250000 1.100000 1.500000
v 0.150000 1.100000 -1.000000
v 0.250000 1.100000 -1.000000
v 0.250000 1.100000 -1.500000
v 0.150000 -1.100000 1.000000
v 0.250000 -1.100000 1.500000
v -0.250000 -1.100000 1.500000
v -0.150000 -1.100000 1.000000
v 0.250000 1.100000 1.500000
v 0.250000 1.100000 1.000000
v 0.150000 1.100000 1.000000
v -0.250000 -1.100000 1.000000
v 0.250000 -1.100000 1.000000
v -0.150000 1.100000 -1.000000
v -0.250000 1.100000 -1.500000
v -0.250000 -1.100000 -1.500000
v -0.250000 -1.100000 -1.000000
v -0.250000 1.100000 -1.000000
v -0.150000 -1.100000 -1.000000
v 0.250000 -1.100000 -1.500000
v 0.150000 -1.100000 -1.000000
v 0.250000 -1.100000 -1.000000
v -0.150000 -0.912338 0.252340
v -0.150000 -0.912338 -0.252340
v -0.150000 0.530770 0.178430
v -0.150000 0.352340 0.252340
v 0.150000 -0.912338 0.252340
v 0.150000 0.352340 0.252340
v 0.150000 0.530770 -0.178430
v 0.150000 0.352340 -0.252340
v 0.150000 0.604680 0.000000
v -0.150000 0.604680 0.000000
v 0.150000 0.530770 0.178430
v 0.150000 -0.912338 -0.252340
v -0.150000 0.352340 -0.252340
v -0.150000 0.530770 -0.178430
vt 0.045454 0.227273
vt 0.000000 0.227273
vt 0.000000 0.000000
vt 0.181818 1.136360
vt 0.227273 1.136360
vt 0.227273 1.363640
vt -0.181818 0.227273
vt -0.227273 0.000000
vt 0.000000 0.000000
vt -0.045454 0.227273
vt 0.227273 0.000000
vt 0.227273 0.227273
vt 0.181818 0.227273
vt -0.045454 0.000000
vt 0.000000 0.000000
vt 0.000000 1.000000
vt -0.045454 1.000000
vt 0.000000 0.227273
vt -0.227273 0.227273
vt 0.045454 1.136360
vt 0.000000 1.363640
vt 0.000000 1.000000
vt -0.227273 1.000000
vt -0.227273 0.000000
vt 0.227273 0.000000
vt 0.227273 1.000000
vt -1.363640 1.000000
vt -1.363640 0.000000
vt -1.136360 0.000000
vt -1.136360 1.000000
vt -0.045454 1.136360
vt 0.000000 1.363640
vt -0.227273 1.363640
vt -0.181818 1.136360
vt 0.000000 1.136360
vt 0.181818 0.000000
vt 0.227273 0.000000
vt 0.227273 1.000000
vt 0.181818 1.000000
vt -0.227273 1.136360
vt 0.000000 1.136360
vt 1.363640 0.000000
vt 1.363640 1.000000
vt 1.136360 1.000000
vt 1.136360 0.000000
vt -0.227273 1.000000
vt -0.227273 0.000000
vt 0.000000 0.000000
vt 0.000000 1.000000
vt 0.045454 1.000000
vt 0.000000 1.000000
vt 0.000000 0.000000
vt 0.045454 0.000000
vt -0.181818 1.000000
vt -0.227273 1.000000
vt -0.227273 0.000000
vt -0.181818 0.000000
vt 0.000000 1.000000
vt 0.000000 0.000000
vt 0.227273 0.000000
vt 0.227273 1.000000
vt -0.567119 0.085301
vt -0.796517 0.085301
vt -1.136360 0.000000
vt -0.227273 0.000000
vt -0.600714 0.741258
vt -0.567119 0.660154
vt -0.227273 1.000000
vt 0.227273 0.000000
vt 0.567119 0.085301
vt 0.567119 0.660154
vt 0.227273 1.000000
vt 1.136360 1.000000
vt 0.762923 0.741258
vt 0.796517 0.660154
vt 0.681818 0.774853
vt -1.136360 1.000000
vt -0.681818 0.774853
vt 0.600714 0.741258
vt 0.796517 0.085301
vt 1.136360 0.000000
vt -0.796517 0.660154
vt -0.762923 0.741258
vt -0.045454 0.914717
vt -0.181818 0.914717
vt -0.181818 0.826930
vt -0.045454 0.826930
vt -0.045454 0.660154
vt -0.181818 0.660154
vt -0.181818 0.085301
vt -0.045454 0.085301
vt 0.045454 0.567119
vt 0.181818 0.567119
vt 0.181818 0.796517
vt 0.045454 0.796517
vt 0.045454 0.085301
vt 0.181818 0.085301
vt 0.181818 0.660154
vt 0.045454 0.660154
vt 0.045454 0.305089
vt 0.181818 0.305089
vt 0.181818 0.392875
vt 0.045454 0.392875
vt 0.045454 -0.421181
vt 0.181818 -0.421181
vt 0.181818 -0.333395
vt 0.045454 -0.333395
vt -0.045454 0.926441
vt -0.181818 0.926441
vt -0.181818 0.838654
vt -0.045454 0.838654
vn 0.0000 1.0000 0.0000
vn 0.0000 -1.0000 -0.0000
vn 0.0000 0.0000 -1.0000
vn -1.0000 0.0000 0.0000
vn 0.0000 0.0000 1.0000
vn 1.0000 0.0000 0.0000
vn 0.0000 -0.3827 -0.9239
vn 0.0000 -0.3827 0.9239
vn 0.0000 -0.9239 0.3827
vn 0.0000 -0.9239 -0.3827
usemtl Wood.023
s 1
f 1/1/1 2/2/1 3/3/1
f 4/4/1 5/5/1 6/6/1
f 7/7/2 8/8/2 9/9/2 10/10/2
f 11/11/1 12/12/1 13/13/1
f 10/14/3 14/15/3 2/16/3 1/17/3
f 9/9/2 14/18/2 10/10/2
f 7/7/2 15/19/2 8/8/2
f 16/20/1 4/4/1 6/6/1 17/21/1
f 9/9/4 3/22/4 2/23/4 14/24/4
f 3/22/5 9/9/5 8/25/5 11/26/5
f 17/27/4 18/28/4 19/29/4 20/30/4
f 21/31/2 18/32/2 22/33/2 23/34/2
f 17/21/1 20/35/1 16/20/1
f 23/36/5 24/37/5 5/38/5 4/39/5
f 22/33/2 24/40/2 23/34/2
f 21/31/2 19/41/2 18/32/2
f 22/42/6 6/43/6 5/44/6 24/45/6
f 6/46/3 22/47/3 18/48/3 17/49/3
f 16/50/5 20/51/5 19/52/5 21/53/5
f 13/54/3 12/55/3 15/56/3 7/57/3
f 13/13/1 1/1/1 3/3/1 11/11/1
f 11/58/6 8/59/6 15/60/6 12/61/6
usemtl Dark_Stone.029
f 25/62/4 26/63/4 21/64/4 10/65/4
f 27/66/4 28/67/4 10/65/4 1/68/4
f 7/69/6 29/70/6 30/71/6 13/72/6
f 4/73/6 31/74/6 32/75/6
f 4/73/6 33/76/6 31/74/6
f 16/77/4 34/78/4 27/66/4 1/68/4
f 35/79/6 13/72/6 30/71/6
f 13/72/6 35/79/6 33/76/6 4/73/6
f 36/80/6 23/81/6 4/73/6 32/75/6
f 21/64/4 26/63/4 37/82/4 16/77/4
f 25/62/4 10/65/4 28/67/4
f 34/78/4 16/77/4 38/83/4
f 38/83/4 16/77/4 37/82/4
f 13/13/1 4/4/1 16/20/1 1/1/1
f 23/81/6 36/80/6 29/70/6 7/69/6
f 7/7/2 10/10/2 21/31/2 23/34/2
f 27/84/7 35/85/7 30/86/7 28/87/7
f 28/88/3 30/89/3 29/90/3 25/91/3
f 25/92/1 29/93/1 36/94/1 26/95/1
f 26/96/5 36/97/5 32/98/5 37/99/5
f 37/100/8 32/101/8 31/102/8 38/103/8
f 38/104/9 31/105/9 33/106/9 34/107/9
f 34/108/10 33/109/10 35/110/10 27/111/10
