# Blender v2.79 (sub 0) OBJ File: ''
# www.blender.org
mtllib Wood_Border_Wall_01.mtl
o Mesh1_Wood_Border_Wall_Model
v -1.000000 1.100000 1.500000
v -1.000000 1.100000 1.000000
v -1.100000 1.100000 1.000000
v -1.400000 1.100000 1.000000
v -1.500000 1.100000 1.000000
v -1.500000 1.100000 1.500000
v -1.000000 -1.100000 1.500000
v -1.000000 -1.100000 -1.500000
v -1.000000 1.100000 -1.500000
v -1.000000 1.100000 -1.000000
v -1.000000 -0.399806 -1.000000
v -1.000000 -0.399806 1.000000
v -1.500000 -1.100000 1.500000
v -1.500000 -1.100000 -1.500000
v -1.500000 1.100000 -1.500000
v -1.500000 -0.399806 1.000000
v -1.500000 -0.399806 -1.000000
v -1.500000 1.100000 -1.000000
v -1.400000 1.100000 -1.000000
v -1.100000 1.100000 -1.000000
v -1.400000 -0.399806 -1.000000
v -1.400000 -0.399806 1.000000
v -1.100000 -0.399806 1.000000
v -1.100000 -0.399806 -1.000000
vt 0.045454 0.227273
vt 0.000000 0.227273
vt 0.000000 0.000000
vt 0.181818 1.136360
vt 0.227273 1.136360
vt 0.227273 1.363640
vt 0.045454 1.136360
vt 0.000000 1.363640
vt 0.227273 0.000000
vt 0.227273 0.227273
vt 0.181818 0.227273
vt 0.000000 1.000000
vt -0.227273 1.000000
vt -0.227273 0.318270
vt 0.000000 0.000000
vt 0.000000 1.000000
vt 0.000000 0.000000
vt 0.227273 0.318270
vt 0.227273 1.000000
vt -1.136360 0.318270
vt -1.363640 0.000000
vt 0.000000 1.363640
vt -0.227273 1.363640
vt -0.227273 0.000000
vt -0.227273 1.000000
vt -0.227273 0.000000
vt 0.000000 0.000000
vt 0.000000 1.000000
vt -1.363640 1.000000
vt -1.136360 1.000000
vt 1.363640 1.000000
vt 1.136360 1.000000
vt 1.136360 0.318270
vt 1.363640 0.000000
vt 0.045454 1.000000
vt 0.000000 1.000000
vt 0.000000 0.318270
vt 0.045454 0.318270
vt 0.000000 1.136360
vt 0.000000 1.136360
vt 0.000000 0.227273
vt 0.045454 0.227273
vt 0.045454 1.136360
vt 0.000000 1.000000
vt -0.045454 1.000000
vt -0.045454 0.318270
vt 0.000000 0.318270
vt -0.181818 1.000000
vt -0.227273 1.000000
vt -0.227273 0.318270
vt -0.181818 0.318270
vt 0.227273 0.227273
vt 0.227273 1.136360
vt 0.181818 1.136360
vt 0.181818 0.227273
vt 0.227273 1.000000
vt 0.181818 1.000000
vt 0.181818 0.318270
vt 0.227273 0.318270
vt 0.227273 0.000000
vt 0.227273 1.000000
vt -0.227273 1.000000
vt -1.136360 1.000000
vt -1.136360 0.318270
vt -0.227273 0.318270
vt 1.136360 1.000000
vt 0.227273 1.000000
vt 0.227273 0.318270
vt 1.136360 0.318270
vn 0.0000 1.0000 0.0000
vn -1.0000 0.0000 0.0000
vn 1.0000 0.0000 0.0000
vn 0.0000 -1.0000 -0.0000
vn 0.0000 0.0000 -1.0000
vn 0.0000 -0.0000 1.0000
usemtl Wood.005
s 1
f 4/1/1 5/2/1 6/3/1
f 20/4/1 10/5/1 9/6/1
f 19/7/1 20/4/1 9/6/1 15/8/1
f 1/9/1 2/10/1 3/11/1
f 6/12/2 5/13/2 16/14/2 13/15/2
f 1/16/3 7/17/3 12/18/3 2/19/3
f 16/14/2 17/20/2 14/21/2 13/15/2
f 14/22/4 8/23/4 7/24/4 13/15/4
f 9/25/5 8/26/5 14/27/5 15/28/5
f 15/29/2 14/21/2 17/20/2 18/30/2
f 9/31/3 10/32/3 11/33/3 8/34/3
f 19/35/6 18/36/6 17/37/6 21/38/6
f 7/17/3 8/34/3 11/33/3 12/18/3
f 15/8/1 18/39/1 19/7/1
f 17/40/1 16/41/1 22/42/1 21/43/1
f 5/44/5 4/45/5 22/46/5 16/47/5
f 3/48/5 2/49/5 12/50/5 23/51/5
f 12/52/1 11/53/1 24/54/1 23/55/1
f 10/56/6 20/57/6 24/58/6 11/59/6
f 3/11/1 4/1/1 6/3/1 1/9/1
f 6/12/6 13/15/6 7/60/6 1/61/6
usemtl Dark_Stone.016
f 4/62/2 19/63/2 21/64/2 22/65/2
f 3/11/1 20/4/1 19/7/1 4/1/1
f 20/66/3 3/67/3 23/68/3 24/69/3
