# Blender v2.79 (sub 0) OBJ File: ''
# www.blender.org
mtllib Wood_Door_Round_01.mtl
o Mesh1_Wood_Door_Round_Model
v -0.150000 1.100000 1.000000
v -0.250000 1.100000 1.000000
v -0.250000 1.100000 1.500000
v 0.150000 1.100000 -1.000000
v 0.250000 1.100000 -1.000000
v 0.250000 1.100000 -1.500000
v 0.150000 -1.100000 1.000000
v 0.250000 -1.100000 1.500000
v -0.250000 -1.100000 1.500000
v -0.150000 -1.100000 1.000000
v 0.250000 1.100000 1.500000
v 0.250000 1.100000 1.000000
v 0.150000 1.100000 1.000000
v -0.250000 -1.100000 1.000000
v 0.250000 -1.100000 1.000000
v -0.150000 1.100000 -1.000000
v -0.250000 1.100000 -1.500000
v 0.150000 -1.100000 -1.000000
v 0.250000 -1.100000 -1.000000
v 0.250000 -1.100000 -1.500000
v -0.250000 -1.100000 -1.500000
v -0.250000 -1.100000 -1.000000
v -0.250000 1.100000 -1.000000
v -0.150000 -1.100000 -1.000000
v -0.150000 0.815620 0.000000
v 0.150000 0.815620 0.000000
v 0.150000 -1.100000 -0.611140
v -0.150000 -1.100000 -0.611140
v -0.150000 0.204480 -0.611140
v -0.150000 0.591140 -0.450980
v -0.150000 0.636620 -0.432140
v -0.150000 0.591140 0.450980
v -0.150000 0.204480 0.611141
v -0.150000 0.636620 0.432140
v -0.150000 -1.100000 0.611141
v 0.150000 -1.100000 0.611141
v 0.150000 0.204480 0.611141
v 0.150000 0.591140 0.450980
v 0.150000 0.636620 0.432140
v 0.150000 0.591140 -0.450980
v 0.150000 0.204480 -0.611140
v 0.150000 0.636620 -0.432140
vt 0.045454 0.227273
vt 0.000000 0.227273
vt 0.000000 0.000000
vt 0.181818 1.136360
vt 0.227273 1.136360
vt 0.227273 1.363640
vt -0.181818 0.227273
vt -0.227273 0.000000
vt 0.000000 0.000000
vt -0.045454 0.227273
vt 0.227273 0.000000
vt 0.227273 0.227273
vt 0.181818 0.227273
vt -0.045454 0.000000
vt 0.000000 0.000000
vt 0.000000 1.000000
vt -0.045454 1.000000
vt 0.000000 0.227273
vt -0.227273 0.227273
vt 0.045454 1.136360
vt 0.000000 1.363640
vt 0.000000 1.000000
vt -0.227273 1.000000
vt -0.227273 0.000000
vt 0.227273 0.000000
vt 0.227273 1.000000
vt 0.181818 0.000000
vt 0.227273 0.000000
vt 0.227273 1.000000
vt 0.181818 1.000000
vt 1.363640 0.000000
vt 1.363640 1.000000
vt 1.136360 1.000000
vt 1.136360 0.000000
vt -1.363640 1.000000
vt -1.363640 0.000000
vt -1.136360 0.000000
vt -1.136360 1.000000
vt -0.045454 1.136360
vt 0.000000 1.363640
vt -0.227273 1.363640
vt -0.181818 1.136360
vt 0.000000 1.136360
vt 0.045454 1.000000
vt 0.000000 1.000000
vt 0.000000 0.000000
vt 0.045454 0.000000
vt -0.227273 1.136360
vt 0.000000 1.136360
vt -0.227273 1.000000
vt -0.227273 0.000000
vt 0.000000 0.000000
vt 0.000000 1.000000
vt -0.181818 1.000000
vt -0.227273 1.000000
vt -0.227273 0.000000
vt -0.181818 0.000000
vt 0.000000 1.000000
vt 0.000000 0.000000
vt 0.227273 0.000000
vt 0.227273 1.000000
vt -0.681818 0.870738
vt -0.227273 1.000000
vt -1.136360 1.000000
vt 0.681818 0.870738
vt 1.136360 1.000000
vt 0.227273 1.000000
vt -0.181818 0.959609
vt -0.045454 0.959609
vt -1.136360 0.000000
vt -0.959609 -0.000000
vt -0.959609 0.592947
vt -0.886810 0.768700
vt -0.878246 0.789375
vt -0.476826 0.768700
vt -0.404027 0.592947
vt -0.485390 0.789375
vt -0.045454 0.404027
vt -0.181818 0.404027
vt -0.227273 0.000000
vt -0.404027 -0.000000
vt 0.227273 0.000000
vt 0.404027 -0.000000
vt 0.404027 0.592947
vt 0.476826 0.768700
vt 0.485390 0.789375
vt 0.886810 0.768700
vt 0.959609 0.592947
vt 0.878246 0.789375
vt -0.045454 0.592947
vt -0.181818 0.592947
vt -0.181818 -0.000000
vt -0.045454 -0.000000
vt -0.045454 0.892660
vt -0.181818 0.892660
vt -0.181818 0.702426
vt -0.045454 0.702426
vt -0.045454 0.915038
vt -0.181818 0.915038
vt -0.045454 0.963135
vt -0.181818 0.963135
vt -0.181818 0.750523
vt -0.045454 0.750523
vt 0.045454 -0.509313
vt 0.181818 -0.509313
vt 0.181818 -0.296701
vt 0.045454 -0.296701
vt 0.045454 0.370819
vt 0.181818 0.370819
vt 0.181818 0.393197
vt 0.045454 0.393197
vt 0.045454 0.180585
vt 0.181818 0.180585
vt 0.045454 -0.000000
vt 0.181818 -0.000000
vt 0.181818 0.592947
vt 0.045454 0.592947
vt 1.136360 0.000000
vt 0.959609 -0.000000
vn 0.0000 1.0000 0.0000
vn 0.0000 -1.0000 -0.0000
vn 0.0000 0.0000 -1.0000
vn -1.0000 0.0000 0.0000
vn 0.0000 0.0000 1.0000
vn 1.0000 0.0000 0.0000
vn 0.0000 -0.3827 -0.9239
vn 0.0000 -0.9239 -0.3827
vn 0.0000 -0.9239 0.3827
vn 0.0000 -0.3827 0.9239
usemtl Wood.009
s 1
f 1/1/1 2/2/1 3/3/1
f 4/4/1 5/5/1 6/6/1
f 7/7/2 8/8/2 9/9/2 10/10/2
f 11/11/1 12/12/1 13/13/1
f 10/14/3 14/15/3 2/16/3 1/17/3
f 9/9/2 14/18/2 10/10/2
f 7/7/2 15/19/2 8/8/2
f 16/20/1 4/4/1 6/6/1 17/21/1
f 9/9/4 3/22/4 2/23/4 14/24/4
f 3/22/5 9/9/5 8/25/5 11/26/5
f 18/27/5 19/28/5 5/29/5 4/30/5
f 20/31/6 6/32/6 5/33/6 19/34/6
f 17/35/4 21/36/4 22/37/4 23/38/4
f 24/39/2 21/40/2 20/41/2 18/42/2
f 17/21/1 23/43/1 16/20/1
f 16/44/5 23/45/5 22/46/5 24/47/5
f 20/41/2 19/48/2 18/42/2
f 24/39/2 22/49/2 21/40/2
f 6/50/3 20/51/3 21/52/3 17/53/3
f 13/54/3 12/55/3 15/56/3 7/57/3
f 13/13/1 1/1/1 3/3/1 11/11/1
f 11/58/6 8/59/6 15/60/6 12/61/6
usemtl Dark_Stone.019
f 25/62/4 1/63/4 16/64/4
f 26/65/6 4/66/6 13/67/6
f 24/39/2 18/42/2 27/68/2 28/69/2
f 24/70/4 28/71/4 29/72/4 16/64/4
f 16/64/4 29/72/4 30/73/4
f 16/64/4 30/73/4 31/74/4
f 32/75/4 33/76/4 1/63/4
f 34/77/4 32/75/4 1/63/4
f 16/64/4 31/74/4 25/62/4
f 25/62/4 34/77/4 1/63/4
f 7/7/2 10/10/2 35/78/2 36/79/2
f 10/80/4 1/63/4 33/76/4 35/81/4
f 7/82/6 36/83/6 37/84/6 13/67/6
f 13/67/6 37/84/6 38/85/6
f 13/67/6 38/85/6 39/86/6
f 40/87/6 41/88/6 4/66/6
f 42/89/6 40/87/6 4/66/6
f 13/67/6 39/86/6 26/65/6
f 26/65/6 42/89/6 4/66/6
f 33/90/3 37/91/3 36/92/3 35/93/3
f 32/94/7 38/95/7 37/96/7 33/97/7
f 34/98/7 39/99/7 38/95/7 32/94/7
f 25/100/8 26/101/8 39/102/8 34/103/8
f 31/104/9 42/105/9 26/106/9 25/107/9
f 30/108/10 40/109/10 42/110/10 31/111/10
f 29/112/10 41/113/10 40/109/10 30/108/10
f 28/114/5 27/115/5 41/116/5 29/117/5
f 18/118/6 4/66/6 41/88/6 27/119/6
f 13/13/1 4/4/1 16/20/1 1/1/1
