# Blender v2.79 (sub 0) OBJ File: ''
# www.blender.org
o Mesh1_Wood_Door_Square_Model.002
v 0.250000 1.100000 -1.000000
v 0.250000 1.100000 -1.500000
v -0.250000 1.100000 -1.500000
v 0.250000 -1.100000 -1.000000
v 0.250000 -1.100000 -1.500000
v -0.250000 -1.100000 -1.500000
v -0.250000 -1.100000 -1.000000
v -0.250000 1.100000 -1.000000
v 0.150000 -1.100000 -0.611140
v -0.150000 -1.100000 -0.611140
v 0.150000 0.815620 -0.611140
v -0.150000 0.815620 -0.611140
vt 0.000000 0.000000
vt -0.227273 1.000000
vt -1.363640 1.000000
vt 0.000000 0.000000
vt 1.363640 0.000000
vt 1.363640 1.000000
vt 1.136360 1.000000
vt 1.136360 0.000000
vt -1.363640 0.000000
vt -1.136360 0.000000
vt -1.136360 1.000000
vt 0.181818 -0.000000
vt 0.045454 -0.000000
vt 0.181818 0.870738
vt -0.227273 0.000000
vt 0.000000 0.000000
vt 0.000000 1.000000
vt 0.045454 0.870738
vn 0.0000 1.0000 0.0000
vn 1.0000 0.0000 0.0000
vn -1.0000 0.0000 0.0000
vn 0.0000 -1.0000 0.0000
vn 0.9685 -0.0000 0.2491
vn 0.0000 0.0000 -1.0000
vn -0.9685 -0.0000 0.2491
vn 0.0000 -0.0000 1.0000
s 1
f 1/1/1 2/2/1 3/3/1 8/4/1
f 5/5/2 2/6/2 1/7/2 4/8/2
f 3/3/3 6/9/3 7/10/3 8/11/3
f 9/12/4 10/13/4 7/10/4 4/8/4
f 9/12/5 4/8/5 1/7/5 11/14/5
f 2/2/6 5/15/6 6/16/6 3/17/6
f 7/10/4 6/9/4 5/15/4 4/8/4
f 8/11/7 7/10/7 10/13/7 12/18/7
f 10/13/8 9/12/8 11/14/8 12/18/8
o Mesh1_Wood_Door_Square_Model.001
v -0.250000 1.100000 1.000000
v -0.250000 1.100000 1.500000
v 0.250000 -1.100000 1.500000
v -0.250000 -1.100000 1.500000
v 0.250000 1.100000 1.500000
v 0.250000 1.100000 1.000000
v -0.250000 -1.100000 1.000000
v 0.250000 -1.100000 1.000000
v 0.150000 -1.100000 0.611141
v 0.150000 0.815620 0.611141
v -0.150000 0.815620 0.611141
v -0.150000 -1.100000 0.611141
vt -0.227273 1.000000
vt 0.000000 1.000000
vt 0.000000 1.000000
vt 0.227273 1.000000
vt 0.000000 0.000000
vt -0.227273 0.000000
vt 0.227273 0.000000
vt 0.227273 1.000000
vt 0.227273 0.000000
vt -0.181818 -0.000000
vt -0.181818 0.870738
vt 0.000000 0.000000
vt -0.045454 -0.000000
vt -0.045454 0.870738
vn 0.0000 1.0000 0.0000
vn -1.0000 0.0000 0.0000
vn 0.0000 0.0000 1.0000
vn 0.9685 0.0000 -0.2491
vn 0.0000 -1.0000 -0.0000
vn 1.0000 0.0000 0.0000
vn -0.9685 0.0000 -0.2491
vn 0.0000 0.0000 -1.0000
s 1
f 13/19/9 14/20/9 17/21/9 18/22/9
f 16/23/10 14/20/10 13/19/10 19/24/10
f 14/20/11 16/23/11 15/25/11 17/26/11
f 18/22/12 20/27/12 21/28/12 22/29/12
f 20/27/13 15/25/13 16/23/13 19/24/13
f 17/21/14 15/30/14 20/27/14 18/22/14
f 24/31/15 19/24/15 13/19/15 23/32/15
f 21/28/13 20/27/13 19/24/13 24/31/13
f 24/31/16 23/32/16 22/29/16 21/28/16
o Mesh1_Wood_Door_Square_Model
v -0.250000 1.100000 1.000000
v 0.250000 1.100000 -1.000000
v 0.250000 1.100000 1.000000
v -0.250000 1.100000 -1.000000
v 0.150000 0.815620 -0.611140
v 0.150000 0.815620 0.611141
v -0.150000 0.815620 0.611141
v -0.150000 0.815620 -0.611140
vt -1.136360 1.000000
vt 0.045454 0.870738
vt -0.045454 0.404027
vt -0.227273 1.000000
vt 0.227273 1.000000
vt 0.000000 0.000000
vt 0.000000 0.000000
vt -0.181818 0.870738
vt -0.181818 0.959609
vt 1.136360 1.000000
vt -0.045454 0.959609
vt -0.181818 0.404027
vn -0.9434 -0.3317 0.0000
vn 0.0000 1.0000 0.0000
vn 0.9434 -0.3317 0.0000
vn 0.0000 -1.0000 0.0000
s 1
f 28/33/17 32/34/17 31/35/17 25/36/17
f 25/36/18 27/37/18 26/38/18 28/39/18
f 27/37/19 30/40/19 29/41/19 26/42/19
f 31/35/20 32/43/20 29/41/20 30/44/20
