# Blender v2.79 (sub 0) OBJ File: ''
# www.blender.org
mtllib Wood_Window_Square_Sill_Inside_01.mtl
o Mesh1_Wood_Window_Square_Sill_Model
v -1.000000 1.100000 1.500000
v -1.000000 1.100000 1.000000
v -1.100000 1.100000 1.000000
v -1.400000 1.100000 1.000000
v -1.500000 1.100000 1.000000
v -1.500000 1.100000 1.500000
v -1.000000 -1.100000 1.500000
v -1.000000 -1.100000 1.000000
v -1.500000 -1.100000 1.000000
v -1.400000 -1.100000 1.000000
v -1.100000 -1.100000 1.000000
v -1.500000 -1.100000 1.500000
v -1.400000 0.604680 0.252340
v -1.400000 1.100000 -1.000000
v -1.100000 1.100000 -1.000000
v -1.500000 1.100000 -1.500000
v -1.500000 1.100000 -1.000000
v -1.000000 1.100000 -1.000000
v -1.000000 1.100000 -1.500000
v -1.500000 -1.100000 -1.500000
v -1.500000 -1.100000 -1.000000
v -1.000000 -1.100000 -1.000000
v -1.100000 -1.100000 -1.000000
v -1.400000 -1.100000 -1.000000
v -1.000000 -1.100000 -1.500000
v -1.100000 0.604680 -0.252340
v -1.100000 0.604680 0.252340
v -1.100000 -0.542338 0.252340
v -1.400000 -0.542338 0.252340
v -1.400000 -0.442338 0.252340
v -1.100000 -0.442338 0.252340
v -1.400000 0.604680 -0.252340
v -1.400000 -0.442338 -0.252340
v -1.400000 -0.542338 -0.252340
v -1.100000 -0.542338 -0.252340
v -1.100000 -0.442338 -0.252340
v -1.000000 -0.442338 0.252340
v -1.000000 -0.442338 -0.252340
v -1.000000 -0.542338 -0.252340
v -1.000000 -0.542338 0.252340
vt 0.045454 0.227273
vt 0.000000 0.227273
vt 0.000000 0.000000
vt 0.181818 1.136360
vt 0.227273 1.136360
vt 0.227273 1.363640
vt -0.181818 0.227273
vt -0.227273 0.000000
vt 0.000000 0.000000
vt -0.045454 0.227273
vt 0.227273 0.000000
vt 0.227273 0.227273
vt 0.181818 0.227273
vt -0.045454 0.000000
vt 0.000000 0.000000
vt 0.000000 1.000000
vt -0.045454 1.000000
vt 0.000000 0.227273
vt -0.227273 0.227273
vt 0.045454 1.136360
vt 0.000000 1.363640
vt 0.000000 1.000000
vt -0.227273 1.000000
vt -0.227273 0.000000
vt 0.227273 0.000000
vt 0.227273 1.000000
vt -1.363640 1.000000
vt -1.363640 0.000000
vt -1.136360 0.000000
vt -1.136360 1.000000
vt -0.045454 1.136360
vt 0.000000 1.363640
vt -0.227273 1.363640
vt -0.181818 1.136360
vt 0.000000 1.136360
vt 0.181818 0.000000
vt 0.227273 0.000000
vt 0.227273 1.000000
vt 0.181818 1.000000
vt -0.227273 1.136360
vt 0.000000 1.136360
vt 1.363640 0.000000
vt 1.363640 1.000000
vt 1.136360 1.000000
vt 1.136360 0.000000
vt -0.227273 1.000000
vt -0.227273 0.000000
vt 0.000000 0.000000
vt 0.000000 1.000000
vt 0.045454 0.567119
vt 0.181818 0.567119
vt 0.181818 0.796517
vt 0.045454 0.796517
vt 0.181818 0.796517
vt 0.045454 0.796517
vt 0.045454 0.567119
vt 0.181818 0.567119
vt 0.227273 0.796517
vt 0.227273 0.567119
vt -0.181818 0.298937
vt -0.181818 0.253483
vt -0.045454 0.253483
vt -0.045454 0.298937
vt -0.796517 0.298937
vt -0.796517 0.253483
vt -0.567119 0.253483
vt -0.567119 0.298937
vt 0.045454 0.298937
vt 0.045454 0.253483
vt 0.181818 0.253483
vt 0.181818 0.298937
vt -0.227273 0.253483
vt -0.181818 0.253483
vt -0.181818 0.298937
vt -0.227273 0.298937
vt 0.567119 0.298937
vt 0.567119 0.253483
vt 0.796517 0.253483
vt 0.796517 0.298937
vt -0.227273 0.567119
vt -0.181818 0.567119
vt -0.181818 0.796517
vt -0.227273 0.796517
vt 0.227273 0.298937
vt 0.181818 0.298937
vt 0.181818 0.253483
vt 0.227273 0.253483
vt 0.045454 1.000000
vt 0.000000 1.000000
vt 0.000000 0.000000
vt 0.045454 0.000000
vt -0.181818 1.000000
vt -0.227273 1.000000
vt -0.227273 0.000000
vt -0.181818 0.000000
vt 0.000000 1.000000
vt 0.000000 0.000000
vt 0.227273 0.000000
vt 0.227273 1.000000
vt 1.136360 0.000000
vt 0.796517 0.253483
vt 0.567119 0.253483
vt 0.227273 0.000000
vt -1.136360 0.000000
vt -1.136360 1.000000
vt 0.227273 1.000000
vt 0.567119 0.774853
vt 0.796517 0.774853
vt 1.136360 1.000000
vt -0.227273 0.000000
vt -0.227273 1.000000
vt -0.567119 0.774853
vt 0.796517 0.298937
vt -0.796517 0.774853
vt 0.567119 0.298937
vt -0.045454 0.774853
vt -0.181818 0.774853
vt -0.181818 0.567119
vt -0.045454 0.567119
vt -0.045454 0.796517
vt -0.181818 0.796517
vt 0.181818 0.774853
vt 0.045454 0.774853
vn 0.0000 1.0000 0.0000
vn 0.0000 -1.0000 -0.0000
vn 0.0000 0.0000 -1.0000
vn -1.0000 0.0000 0.0000
vn 0.0000 0.0000 1.0000
vn 1.0000 0.0000 0.0000
usemtl Wood.026
s 1
f 4/1/1 5/2/1 6/3/1
f 15/4/1 18/5/1 19/6/1
f 11/7/2 7/8/2 12/9/2 10/10/2
f 1/11/1 2/12/1 3/13/1
f 10/14/3 9/15/3 5/16/3 4/17/3
f 12/9/2 9/18/2 10/10/2
f 11/7/2 8/19/2 7/8/2
f 14/20/1 15/4/1 19/6/1 16/21/1
f 12/9/4 6/22/4 5/23/4 9/24/4
f 6/22/5 12/9/5 7/25/5 1/26/5
f 16/27/4 20/28/4 21/29/4 17/30/4
f 24/31/2 20/32/2 25/33/2 23/34/2
f 16/21/1 17/35/1 14/20/1
f 23/36/5 22/37/5 18/38/5 15/39/5
f 25/33/2 22/40/2 23/34/2
f 24/31/2 21/41/2 20/32/2
f 25/42/6 19/43/6 18/44/6 22/45/6
f 19/46/3 25/47/3 20/48/3 16/49/3
f 29/50/1 28/51/1 35/52/1 34/53/1
f 36/54/1 33/55/1 30/56/1 31/57/1
f 38/58/1 36/54/1 31/57/1 37/59/1
f 31/60/3 28/61/3 29/62/3 30/63/3
f 33/64/4 34/65/4 29/66/4 30/67/4
f 33/68/5 34/69/5 35/70/5 36/71/5
f 39/72/3 35/73/3 36/74/3 38/75/3
f 37/76/6 40/77/6 39/78/6 38/79/6
f 40/80/2 28/81/2 35/82/2 39/83/2
f 37/84/5 31/85/5 28/86/5 40/87/5
f 14/88/5 17/89/5 21/90/5 24/91/5
f 3/92/3 2/93/3 8/94/3 11/95/3
f 3/13/1 4/1/1 6/3/1 1/11/1
f 1/96/6 7/97/6 8/98/6 2/99/6
usemtl Dark_Stone.032
f 23/100/6 35/101/6 28/102/6 11/103/6
f 24/104/4 34/65/4 33/64/4 14/105/4
f 3/106/6 27/107/6 26/108/6 15/109/6
f 29/66/4 34/65/4 24/104/4 10/110/4
f 29/66/4 10/110/4 4/111/4 13/112/4
f 36/113/6 23/100/6 15/109/6 26/108/6
f 14/105/4 32/114/4 13/112/4 4/111/4
f 29/66/4 13/112/4 30/67/6
f 32/114/4 14/105/4 33/64/4
f 35/101/6 23/100/6 36/113/6
f 27/107/6 28/102/6 31/115/4
f 3/13/1 15/4/1 14/20/1 4/1/1
f 11/103/6 28/102/6 27/107/6 3/106/6
f 11/7/2 10/10/2 24/31/2 23/34/2
f 30/63/3 13/116/3 27/117/3 31/60/3
f 27/118/2 13/119/2 32/120/2 26/121/2
f 33/68/5 36/71/5 26/122/5 32/123/5
