# Blender v2.79 (sub 0) OBJ File: ''
# www.blender.org
mtllib Wood_Window_Square_01.mtl
o Mesh1_Wood_Window_Square_Model
v -1.000000 1.100000 1.500000
v -1.000000 1.100000 1.000000
v -1.100000 1.100000 1.000000
v -1.400000 1.100000 1.000000
v -1.500000 1.100000 1.000000
v -1.500000 1.100000 1.500000
v -1.000000 -1.100000 1.500000
v -1.000000 -1.100000 1.000000
v -1.500000 -1.100000 1.000000
v -1.400000 -1.100000 1.000000
v -1.100000 -1.100000 1.000000
v -1.500000 -1.100000 1.500000
v -1.400000 0.604680 0.252340
v -1.400000 1.100000 -1.000000
v -1.100000 1.100000 -1.000000
v -1.500000 1.100000 -1.500000
v -1.500000 1.100000 -1.000000
v -1.000000 1.100000 -1.000000
v -1.000000 1.100000 -1.500000
v -1.500000 -1.100000 -1.500000
v -1.500000 -1.100000 -1.000000
v -1.000000 -1.100000 -1.000000
v -1.100000 -1.100000 -1.000000
v -1.400000 -1.100000 -1.000000
v -1.000000 -1.100000 -1.500000
v -1.100000 0.604680 -0.252340
v -1.100000 0.604680 0.252340
v -1.100000 -0.352338 0.252340
v -1.400000 -0.352338 0.252340
v -1.400000 0.604680 -0.252340
v -1.400000 -0.352338 -0.252340
v -1.100000 -0.352338 -0.252340
vt 0.045454 0.227273
vt 0.000000 0.227273
vt 0.000000 0.000000
vt 0.181818 1.136360
vt 0.227273 1.136360
vt 0.227273 1.363640
vt -0.181818 0.227273
vt -0.227273 0.000000
vt 0.000000 0.000000
vt -0.045454 0.227273
vt 0.227273 0.000000
vt 0.227273 0.227273
vt 0.181818 0.227273
vt -0.045454 0.000000
vt 0.000000 0.000000
vt 0.000000 1.000000
vt -0.045454 1.000000
vt 0.000000 0.227273
vt -0.227273 0.227273
vt 0.045454 1.136360
vt 0.000000 1.363640
vt 0.000000 1.000000
vt -0.227273 1.000000
vt -0.227273 0.000000
vt 0.227273 0.000000
vt 0.227273 1.000000
vt -1.363640 1.000000
vt -1.363640 0.000000
vt -1.136360 0.000000
vt -1.136360 1.000000
vt -0.045454 1.136360
vt 0.000000 1.363640
vt -0.227273 1.363640
vt -0.181818 1.136360
vt 0.000000 1.136360
vt 0.181818 0.000000
vt 0.227273 0.000000
vt 0.227273 1.000000
vt 0.181818 1.000000
vt -0.227273 1.136360
vt 0.000000 1.136360
vt 1.363640 0.000000
vt 1.363640 1.000000
vt 1.136360 1.000000
vt 1.136360 0.000000
vt -0.227273 1.000000
vt -0.227273 0.000000
vt 0.000000 0.000000
vt 0.000000 1.000000
vt 0.045454 1.000000
vt 0.000000 1.000000
vt 0.000000 0.000000
vt 0.045454 0.000000
vt -0.181818 1.000000
vt -0.227273 1.000000
vt -0.227273 0.000000
vt -0.181818 0.000000
vt 0.000000 1.000000
vt 0.000000 0.000000
vt 0.227273 0.000000
vt 0.227273 1.000000
vt -1.136360 0.000000
vt -0.796517 0.339846
vt -0.796517 0.774853
vt -1.136360 1.000000
vt 1.136360 0.000000
vt 0.796517 0.339846
vt 0.567119 0.339846
vt 0.227273 0.000000
vt 1.136360 1.000000
vt 0.796517 0.774853
vt -0.567119 0.774853
vt -0.227273 1.000000
vt 0.567119 0.774853
vt 0.227273 1.000000
vt -0.567119 0.339846
vt -0.227273 0.000000
vt -0.045454 0.339846
vt -0.045454 0.774853
vt -0.181818 0.774853
vt -0.181818 0.339846
vt -0.181818 0.567119
vt -0.045454 0.567119
vt -0.045454 0.796517
vt -0.181818 0.796517
vt 0.045454 0.567119
vt 0.181818 0.567119
vt 0.181818 0.796517
vt 0.045454 0.796517
vt 0.045454 0.339846
vt 0.181818 0.339846
vt 0.181818 0.774853
vt 0.045454 0.774853
vn 0.0000 1.0000 0.0000
vn 0.0000 -1.0000 -0.0000
vn 0.0000 0.0000 -1.0000
vn -1.0000 0.0000 0.0000
vn 0.0000 0.0000 1.0000
vn 1.0000 0.0000 0.0000
usemtl Wood.025
s 1
f 4/1/1 5/2/1 6/3/1
f 15/4/1 18/5/1 19/6/1
f 11/7/2 7/8/2 12/9/2 10/10/2
f 1/11/1 2/12/1 3/13/1
f 10/14/3 9/15/3 5/16/3 4/17/3
f 12/9/2 9/18/2 10/10/2
f 11/7/2 8/19/2 7/8/2
f 14/20/1 15/4/1 19/6/1 16/21/1
f 12/9/4 6/22/4 5/23/4 9/24/4
f 6/22/5 12/9/5 7/25/5 1/26/5
f 16/27/4 20/28/4 21/29/4 17/30/4
f 24/31/2 20/32/2 25/33/2 23/34/2
f 16/21/1 17/35/1 14/20/1
f 23/36/5 22/37/5 18/38/5 15/39/5
f 25/33/2 22/40/2 23/34/2
f 24/31/2 21/41/2 20/32/2
f 25/42/6 19/43/6 18/44/6 22/45/6
f 19/46/3 25/47/3 20/48/3 16/49/3
f 14/50/5 17/51/5 21/52/5 24/53/5
f 3/54/3 2/55/3 8/56/3 11/57/3
f 3/13/1 4/1/1 6/3/1 1/11/1
f 1/58/6 7/59/6 8/60/6 2/61/6
usemtl Dark_Stone.031
f 24/62/4 31/63/4 30/64/4 14/65/4
f 23/66/6 32/67/6 28/68/6 11/69/6
f 32/67/6 23/66/6 15/70/6 26/71/6
f 14/65/4 30/64/4 13/72/4 4/73/4
f 11/69/6 28/68/6 27/74/6 3/75/6
f 29/76/4 10/77/4 4/73/4 13/72/4
f 29/76/4 31/63/4 24/62/4 10/77/4
f 3/13/1 15/4/1 14/20/1 4/1/1
f 3/75/6 27/74/6 26/71/6 15/70/6
f 11/7/2 10/10/2 24/31/2 23/34/2
f 29/78/3 13/79/3 27/80/3 28/81/3
f 27/82/2 13/83/2 30/84/2 26/85/2
f 29/86/1 28/87/1 32/88/1 31/89/1
f 31/90/5 32/91/5 26/92/5 30/93/5
