# Blender v2.79 (sub 0) OBJ File: ''
# www.blender.org
mtllib Plate_Wood_01.mtl
o Mesh1_Plate_Wood_Model
v -1.500000 0.800000 1.500000
v 1.500000 0.800000 1.500000
v 1.500000 1.100000 1.500000
v -1.500000 1.100000 1.500000
v 1.500000 0.800000 -1.500000
v -1.500000 0.800000 -1.500000
v 1.500000 1.100000 -1.500000
v -1.500000 1.100000 -1.500000
vt 0.000000 0.000000
vt 1.363640 0.000000
vt 1.363640 0.136364
vt 0.000000 0.136364
vt -1.363640 1.363640
vt -1.363640 0.000000
vt 0.000000 1.363640
vt 0.000000 0.000000
vt 1.363640 0.000000
vt 1.363640 0.136364
vt 0.000000 0.136364
vt -1.363640 0.000000
vt 0.000000 0.000000
vt 0.000000 0.136364
vt -1.363640 0.136364
vt -1.363640 0.000000
vt -1.363640 0.136364
vt 1.363640 0.000000
vt 1.363640 1.363640
vt 0.000000 1.363640
vt 0.000000 0.000000
vn 0.0000 0.0000 1.0000
vn 0.0000 -1.0000 -0.0000
vn 1.0000 0.0000 0.0000
vn 0.0000 0.0000 -1.0000
vn -1.0000 0.0000 0.0000
vn 0.0000 1.0000 0.0000
usemtl Wood
s 1
f 1/1/1 2/2/1 3/3/1 4/4/1
f 5/5/2 2/6/2 1/1/2 6/7/2
f 2/8/3 5/9/3 7/10/3 3/11/3
f 5/12/4 6/13/4 8/14/4 7/15/4
f 6/16/5 1/1/5 4/4/5 8/17/5
f 3/18/6 7/19/6 8/20/6 4/21/6
